<svg width="33" height="28" viewBox="0 0 33 28" fill="none" xmlns="http://www.w3.org/2000/svg">
<path d="M32.1774 8.90715C31.1185 9.98073 30.0654 11.06 28.991 12.118C28.8824 12.2247 28.6049 12.2748 28.4751 12.21C28.3289 12.1369 28.1844 11.9096 28.173 11.7405C28.1354 11.1807 28.1591 10.6177 28.1591 9.96924C27.3011 10.0086 26.4594 10.0062 25.6307 10.1096C25.3638 10.1432 25.0976 10.4272 24.8911 10.6521C24.5686 11.0051 24.2951 11.4031 24.0061 11.7856C23.8494 11.9933 23.6534 12.1082 23.3987 12.0171C23.1277 11.9202 23.0395 11.692 23.0787 11.4237C23.1685 10.8081 23.2166 10.1794 23.3816 9.58429C23.7383 8.29485 24.5792 7.61853 25.9067 7.50116C26.5035 7.44863 27.1051 7.45273 27.7044 7.43304C27.844 7.42811 27.9844 7.43222 28.1575 7.43222C28.1575 6.86506 28.1583 6.32581 28.1575 5.78738C28.1567 5.53376 28.2252 5.31789 28.484 5.22022C28.7134 5.13404 28.8979 5.22597 29.0604 5.39012C30.0989 6.4399 31.1381 7.48885 32.1766 8.53862C32.1774 8.66174 32.1774 8.78403 32.1774 8.90715Z" fill="url(#paint0_linear_1_1852)"/>
<path d="M7.03121 14.5327C10.0609 15.4306 13.0489 16.3171 16.032 17.2011C16.032 20.8092 16.032 24.3902 16.032 28C15.107 27.7275 14.2016 27.4608 13.2962 27.1924C11.5214 26.6671 9.74736 26.1401 7.97251 25.6148C7.25653 25.4031 7.00917 25.0764 7.00835 24.327C7.00753 21.1941 7.00753 18.0612 7.00917 14.9283C7.00917 14.8101 7.02141 14.6928 7.03121 14.5327Z" fill="url(#paint1_linear_1_1852)"/>
<path d="M17.0356 27.9878C17.0356 24.3928 17.0356 20.8125 17.0356 17.206C20.0196 16.3212 23.0076 15.4348 26.0364 14.5369C26.0454 14.6936 26.0576 14.811 26.0576 14.9292C26.0585 18.0728 26.0593 21.2155 26.0576 24.3591C26.0576 25.0551 25.8037 25.4089 25.1547 25.6018C22.5324 26.3815 19.9094 27.1571 17.2863 27.9336C17.2104 27.9557 17.1303 27.9672 17.0356 27.9878Z" fill="url(#paint2_linear_1_1852)"/>
<path d="M7.7959 13.724C9.24337 13.1708 10.6288 12.6414 12.015 12.1128C13.3547 11.6023 14.6953 11.0951 16.0342 10.5821C16.3525 10.4598 16.662 10.4417 16.9844 10.5648C19.6916 11.5966 22.4004 12.625 25.1092 13.6559C25.146 13.6698 25.1794 13.6936 25.2611 13.7396C24.6822 13.9136 24.1459 14.0778 23.6079 14.237C21.366 14.901 19.1234 15.5593 16.884 16.2315C16.6375 16.3054 16.4203 16.298 16.177 16.2257C13.4592 15.4148 10.739 14.6129 8.02041 13.8077C7.96081 13.7897 7.9053 13.7651 7.7959 13.724Z" fill="url(#paint3_linear_1_1852)"/>
<path d="M4.91023 10.0069C4.91023 10.5667 4.90696 11.0871 4.91104 11.6066C4.91349 11.8783 4.87186 12.1212 4.58367 12.2361C4.30364 12.3478 4.1224 12.1861 3.9428 12.0055C3.00802 11.0633 2.0708 10.1235 1.13603 9.18203C0.796404 8.83977 0.797221 8.61815 1.14174 8.27097C2.08468 7.32133 3.03006 6.37579 3.97055 5.42533C4.14771 5.2464 4.3363 5.12082 4.59265 5.22342C4.86287 5.33176 4.91349 5.56486 4.91186 5.82751C4.90778 6.34871 4.91104 6.86908 4.91104 7.42967C5.18943 7.42967 5.45068 7.41736 5.71029 7.43213C6.30871 7.46496 6.91203 7.47153 7.5031 7.56017C8.5489 7.71858 9.29509 8.32103 9.60042 9.33634C9.81024 10.0332 9.87473 10.7752 9.98821 11.4999C10.0249 11.7355 9.90657 11.9242 9.68125 12.0112C9.44204 12.104 9.24284 12.0178 9.08936 11.82C8.80199 11.449 8.50482 11.0838 8.23214 10.7013C7.90395 10.2417 7.47044 10.0077 6.9104 10.0069C6.25973 10.0061 5.60988 10.0069 4.91023 10.0069Z" fill="url(#paint4_linear_1_1852)"/>
<path d="M17.8152 4.04562C17.8152 5.19307 17.8152 6.29701 17.8152 7.40096C17.8152 7.99274 17.6837 8.12734 17.1033 8.12898C16.7065 8.12981 16.3089 8.13145 15.9122 8.12898C15.4068 8.1257 15.2533 7.97222 15.2533 7.47072C15.2525 6.34544 15.2533 5.22015 15.2533 4.04644C14.7766 4.04644 14.3128 4.04808 13.8499 4.04562C13.5479 4.0448 13.214 4.10307 13.0564 3.74193C12.8956 3.3734 13.1764 3.17724 13.3895 2.96301C14.281 2.06426 15.1741 1.16715 16.0681 0.270045C16.4249 -0.0878143 16.6437 -0.0902766 16.998 0.264299C17.936 1.20327 18.87 2.14634 19.808 3.08531C19.9909 3.26834 20.1354 3.4604 20.0186 3.73454C19.9043 4.00376 19.6725 4.04972 19.4121 4.04726C18.892 4.04234 18.3736 4.04562 17.8152 4.04562Z" fill="url(#paint5_linear_1_1852)"/>
<defs>
<linearGradient id="paint0_linear_1_1852" x1="28.1408" y1="12.2093" x2="28.1228" y2="4.85063" gradientUnits="userSpaceOnUse">
<stop stop-color="#4AB255"/>
<stop offset="0.853165" stop-color="#1EA3D0"/>
</linearGradient>
<linearGradient id="paint1_linear_1_1852" x1="12.0324" y1="27.9436" x2="11.9661" y2="13.89" gradientUnits="userSpaceOnUse">
<stop stop-color="#4AB255"/>
<stop offset="0.853165" stop-color="#1EA3D0"/>
</linearGradient>
<linearGradient id="paint2_linear_1_1852" x1="22.0595" y1="27.9314" x2="21.9934" y2="13.895" gradientUnits="userSpaceOnUse">
<stop stop-color="#4AB255"/>
<stop offset="0.853165" stop-color="#1EA3D0"/>
</linearGradient>
<linearGradient id="paint3_linear_1_1852" x1="17.5203" y1="16.2592" x2="17.514" y2="10.2039" gradientUnits="userSpaceOnUse">
<stop stop-color="#4AB255"/>
<stop offset="0.853165" stop-color="#1EA3D0"/>
</linearGradient>
<linearGradient id="paint4_linear_1_1852" x1="5.95608" y1="12.2432" x2="5.93789" y2="4.84824" gradientUnits="userSpaceOnUse">
<stop stop-color="#4AB255"/>
<stop offset="0.853165" stop-color="#1EA3D0"/>
</linearGradient>
<linearGradient id="paint5_linear_1_1852" x1="16.9352" y1="8.09621" x2="16.9043" y2="-0.38806" gradientUnits="userSpaceOnUse">
<stop stop-color="#4AB255"/>
<stop offset="0.853165" stop-color="#1EA3D0"/>
</linearGradient>
</defs>
</svg>
