<svg width="33" height="32" viewBox="0 0 33 32" fill="none" xmlns="http://www.w3.org/2000/svg">
<path d="M8.18849 23.7283C7.72867 24.2835 7.27597 24.8476 6.85357 25.4321C6.66019 25.6995 6.44364 25.7556 6.1665 25.6576C5.89381 25.5605 5.77618 25.3439 5.77885 24.9991C5.80024 24.9278 5.82697 24.7968 5.87599 24.6747C6.15759 23.9805 6.61029 23.4084 7.17349 22.9245C7.50499 22.6384 7.96125 22.6937 8.1983 23.0332C8.35692 23.2604 8.39346 23.4806 8.18849 23.7283Z" fill="#4AB255"/>
<path d="M10.9521 24.8877C10.3515 25.6424 9.73127 26.383 9.08787 27.1012C8.91232 27.2964 8.64408 27.4283 8.39367 27.5317C8.10316 27.6529 7.79839 27.6377 7.58006 27.3579C7.39649 27.1244 7.4054 26.7385 7.61571 26.4578C8.09603 25.8198 8.58527 25.1889 9.07896 24.5615C9.33293 24.2398 9.59493 23.9217 9.87386 23.6213C10.1243 23.3513 10.5271 23.2872 10.8577 23.4289C11.1518 23.5545 11.2524 23.7978 11.2667 24.2246C11.1963 24.3788 11.1232 24.672 10.9521 24.8877Z" fill="#4AB255"/>
<path d="M12.8717 27.3632C12.346 28.02 11.8033 28.6634 11.257 29.3032C11.0262 29.5733 10.7268 29.7363 10.5013 29.7417C9.82582 29.7452 9.51837 29.3425 9.71086 28.8185C9.85077 28.4379 10.0308 28.0521 10.2794 27.7366C10.7018 27.1993 11.1697 26.6922 11.6616 26.2154C12.0973 25.7939 12.6338 25.7627 12.9502 26.0622C13.2585 26.3536 13.2407 26.9034 12.8717 27.3632Z" fill="#4AB255"/>
<path d="M14.848 29.1261C14.4978 29.6501 14.1395 30.1714 13.7492 30.6651C13.6111 30.8397 13.3678 30.9315 13.2653 31.0001C12.7003 30.9948 12.3893 30.6285 12.515 30.2177C12.6103 29.904 12.7431 29.5904 12.9214 29.3159C13.1548 28.9559 13.4391 28.6253 13.7198 28.2973C14.0112 27.9587 14.4122 27.9097 14.7232 28.1485C15.028 28.382 15.0922 28.7607 14.848 29.1261Z" fill="#4AB255"/>
<path d="M15.643 1.1192C13.0221 1.63428 10.9565 3.87372 10.6766 6.50347C10.3808 9.27491 11.9064 11.9109 14.4203 12.9544C14.5513 13.0088 14.7206 13.0177 14.8632 12.9927C15.4968 12.8831 16.1233 12.7254 16.7596 12.6372C17.7844 12.4955 18.8092 12.1827 19.8509 12.5784C19.9534 12.6176 20.1316 12.5374 20.2421 12.4634C22.101 11.2283 23.0296 9.47809 23.0956 7.73146C23.1579 3.34349 19.5283 0.355497 15.643 1.1192ZM18.852 10.3095C18.4848 10.6633 18.0214 10.8103 17.4921 10.8638V11.5723H16.2659C16.2659 11.378 16.2534 11.1819 16.2685 10.9868C16.2846 10.7711 16.2249 10.666 15.9852 10.6499C15.6875 10.6312 15.3934 10.5662 15.045 10.5127C15.0994 10.117 15.1528 9.73028 15.2099 9.31056C15.8096 9.39611 16.3773 9.47809 16.9458 9.55829C17.1 9.58057 17.2541 9.60642 17.4092 9.61265C17.869 9.63315 18.2237 9.34977 18.2861 8.92202C18.352 8.46665 18.1034 8.07722 17.64 7.98365C17.1071 7.87671 16.5671 7.80453 16.0297 7.72076C15.0147 7.56303 14.284 6.78863 14.2154 5.79501C14.1494 4.84595 14.7884 3.95303 15.7267 3.69281C15.896 3.64558 16.0725 3.62241 16.2641 3.58409V2.88722H17.4689V3.75965C17.8815 3.82381 18.2611 3.88263 18.696 3.95124C18.6434 4.34424 18.5917 4.73099 18.5347 5.1525C17.8984 5.06071 17.2969 4.97427 16.6954 4.88961C16.5742 4.87268 16.453 4.85308 16.3309 4.84951C15.8675 4.83436 15.5191 5.11418 15.4576 5.54282C15.3925 5.99552 15.6412 6.38584 16.1063 6.48119C16.6277 6.58902 17.1579 6.6514 17.6837 6.73606C18.5641 6.87686 19.1817 7.35183 19.4392 8.21356C19.6807 9.02005 19.4561 9.7285 18.852 10.3095Z" fill="#4AB255"/>
<path d="M26.5667 24.7183C26.3216 25.0659 25.8903 25.1381 25.4394 24.8948C23.9931 24.115 22.5494 23.3299 21.1049 22.5475C20.9498 22.4629 20.793 22.3818 20.596 22.2775C20.4 22.6393 20.2209 22.9699 20.023 23.3344C20.13 23.3995 20.2271 23.4645 20.3296 23.5198C21.3348 24.0651 22.3471 24.5971 23.3443 25.1568C23.7186 25.368 24.0715 25.6246 24.4092 25.8929C24.7817 26.1887 24.8388 26.6058 24.6008 26.956C24.3691 27.2955 23.9485 27.3873 23.5341 27.1654C22.1047 26.4008 20.6789 25.6291 19.2522 24.8609C19.1444 24.803 19.0365 24.7486 18.9002 24.6773C18.7113 25.024 18.5268 25.3617 18.3236 25.7342C18.4306 25.7966 18.5286 25.8599 18.632 25.916C19.6773 26.4792 20.7288 27.0326 21.7661 27.611C22.0424 27.7643 22.2937 27.9763 22.5245 28.1947C22.798 28.454 22.8203 28.798 22.6296 29.0698C22.4398 29.3389 22.1101 29.4244 21.7661 29.2667C20.8072 28.8283 19.8528 28.38 18.8966 27.9362C18.3664 27.6894 17.8344 27.4443 17.2783 27.1868C17.1063 27.5584 16.9442 27.9068 16.7659 28.2909C17.9895 28.8612 19.1907 29.4209 20.3866 29.9787C20.2137 30.6248 19.7192 31.0027 19.1907 30.8298C18.1187 30.4769 17.0618 30.075 15.971 29.6829C16.2713 29.0136 16.3186 28.3889 15.9835 27.7803C15.6493 27.1725 15.1129 26.8526 14.4106 26.7697C14.3875 26.2074 14.2734 25.6826 13.8804 25.2619C13.4954 24.8502 13.008 24.6667 12.427 24.6488C12.5642 23.7702 12.4323 22.9833 11.641 22.4718C10.8862 21.9834 10.1064 22.0414 9.31689 22.4807C8.8838 21.8319 8.28852 21.4906 7.49629 21.5289C6.69338 21.5673 6.21305 22.1224 5.68817 22.675C5.33528 22.1599 4.9913 21.6697 4.66514 21.1698C4.61702 21.0967 4.60811 20.9461 4.65178 20.874C6.04552 18.5383 7.44728 16.208 8.84548 13.8821C9.78741 14.2287 10.7106 14.5683 11.6597 14.9167C11.6258 14.9862 11.5893 15.0735 11.543 15.1555C11.1081 15.9299 10.6696 16.7025 10.2365 17.4778C9.55215 18.704 10.1768 19.9935 11.5626 20.1905C12.5749 20.3339 13.4545 20.0479 14.162 19.2949C14.5657 18.8653 14.9471 18.4144 15.3606 17.9965C15.5165 17.8387 15.7233 17.7131 15.9291 17.6293C16.2357 17.5046 16.5645 17.4324 16.8818 17.3317C17.2899 17.2016 17.6704 17.2604 18.0305 17.485C19.3984 18.3342 20.7778 19.1665 22.1288 20.0434C22.6189 20.3616 23.0422 20.784 23.4931 21.1627C24.4458 21.9638 25.3975 22.7658 26.3457 23.5732C26.7494 23.9172 26.826 24.3512 26.5667 24.7183Z" fill="#4AB255"/>
<path d="M25.1527 14.3036C26.4467 16.4557 27.7263 18.5837 29.0408 20.7697C28.4081 21.3855 27.7754 22.0012 27.1293 22.6295C26.305 21.9353 25.4958 21.3079 24.7499 20.6129C22.8857 18.8778 20.6409 17.7086 18.5155 16.363C17.9675 16.0164 17.3455 15.9709 16.7136 16.1197C16.6272 16.1393 16.5434 16.1723 16.4561 16.1866C15.3368 16.3701 14.4733 16.9467 13.813 17.8619C13.633 18.1123 13.4048 18.3324 13.1803 18.5463C12.724 18.9776 12.1822 19.1086 11.5789 18.9357C11.2028 18.8279 11.0594 18.524 11.2447 18.1872C11.8614 17.0706 12.4923 15.9602 13.1259 14.8534C13.174 14.7688 13.2854 14.6984 13.3817 14.669C15.1141 14.1307 16.8874 13.7885 18.692 13.6058C18.8087 13.5933 18.9344 13.6183 19.0502 13.6486C20.4039 13.997 21.7584 14.3419 23.1067 14.7073C23.5006 14.8142 23.865 14.816 24.2393 14.6511C24.5227 14.5273 24.8177 14.4301 25.1527 14.3036Z" fill="#4AB255"/>
<path d="M1.71757 19.6504C2.25314 20.022 2.77089 20.382 3.30736 20.7545C4.99963 17.9385 6.68032 15.1421 8.38329 12.3101C5.85958 10.8049 3.37152 9.32208 0.864746 7.82764L1.71757 19.6504Z" fill="#4AB255"/>
<path d="M30.4524 20.7456L32.0422 19.6423L32.895 7.8374C31.626 8.59398 30.3775 9.33719 29.1291 10.0813C27.8895 10.82 26.6508 11.5597 25.3765 12.3198L30.4524 20.7456Z" fill="#4AB255"/>
</svg>
