<svg width="25" height="26" viewBox="0 0 25 26" fill="none" xmlns="http://www.w3.org/2000/svg">
<path d="M12.8263 0.714355C12.9463 0.756014 13.0671 0.795779 13.1864 0.839331C14.0862 1.16881 14.8227 2.32341 14.2022 3.39304C13.8586 3.98525 13.4466 4.54267 13.0261 5.08612C12.7503 5.44259 12.2233 5.4414 11.9473 5.08518C11.5314 4.54835 11.1296 3.99519 10.782 3.41411C10.1291 2.32389 10.9032 1.05425 11.993 0.770689C12.0457 0.756961 12.0956 0.733291 12.1468 0.714355C12.3732 0.714355 12.5997 0.714355 12.8263 0.714355Z" fill="#858EA9"/>
<path d="M9.08454 2.49365C9.07351 3.15143 9.298 3.74317 9.61329 4.32071C7.30063 5.21234 5.62501 6.74447 4.6595 8.99095C3.90794 10.7392 3.79294 12.5466 4.28767 14.38C5.28217 18.0656 8.71678 20.6527 12.5345 20.6101C16.4253 20.5668 19.8026 17.9286 20.7298 14.2439C21.7499 10.1903 19.5201 5.76124 15.3872 4.31763C15.5067 4.02342 15.6493 3.73607 15.7391 3.43333C15.8287 3.13107 15.8654 2.81366 15.925 2.50501C19.6138 3.64399 23.2372 7.60557 22.9028 12.8659C22.553 18.366 17.9631 22.4341 12.7055 22.5295C7.21006 22.6289 2.82504 18.592 2.15517 13.6759C1.35642 7.81504 5.38878 3.6189 9.08454 2.49365Z" fill="#858EA9"/>
<path d="M7.28937 22.8013C10.7642 24.3533 14.2135 24.3519 17.6847 22.8032C17.7839 23.0794 17.8929 23.3433 17.9713 23.616C18.0213 23.7904 18.1143 23.8408 18.2842 23.8255C18.4205 23.8129 18.5587 23.8207 18.696 23.8236C19.1114 23.8318 19.4207 24.1336 19.4248 24.5318C19.4289 24.9419 19.1177 25.2579 18.691 25.2582C14.5527 25.2601 10.4147 25.2601 6.27666 25.2579C5.86291 25.2577 5.55241 24.9464 5.54882 24.5495C5.54523 24.14 5.8574 23.8342 6.28337 23.8219C6.49804 23.8157 6.76349 23.8692 6.91251 23.7653C7.05338 23.6671 7.07255 23.398 7.14418 23.2037C7.19042 23.0775 7.23546 22.9509 7.28937 22.8013Z" fill="#858EA9"/>
<path d="M9.61904 18.5588C10.184 17.5912 10.7403 16.6387 11.2968 15.686C11.5108 15.3199 11.7297 14.9563 11.9367 14.5863C12.0045 14.4652 12.0728 14.4159 12.2214 14.4453C12.3694 14.4744 12.5342 14.4907 12.6775 14.4559C12.8833 14.406 12.976 14.477 13.0735 14.646C13.7853 15.8797 14.5074 17.1079 15.2259 18.338C15.2659 18.4064 15.304 18.4755 15.3431 18.5446C13.9058 19.298 11.5213 19.4507 9.61904 18.5588Z" fill="#858EA9"/>
<path d="M19.4919 11.4904C19.3913 11.4946 19.3283 11.4998 19.265 11.4998C17.7942 11.5003 16.3234 11.4982 14.8527 11.5032C14.7068 11.5036 14.6164 11.48 14.5668 11.3256C14.5261 11.199 14.4602 11.0681 14.3697 10.9722C14.2029 10.7957 14.2257 10.6558 14.3457 10.4551C15.0594 9.2607 15.7556 8.0564 16.4581 6.8554C16.5058 6.77398 16.5561 6.69445 16.6203 6.58936C18.2727 7.83106 19.2257 9.44248 19.4919 11.4904Z" fill="#858EA9"/>
<path d="M5.48198 11.484C5.7436 9.44158 6.70216 7.833 8.34927 6.59082C8.40653 6.68005 8.45133 6.74444 8.49062 6.81189C9.21726 8.05431 9.94175 9.29815 10.672 10.5387C10.7487 10.6689 10.7762 10.7609 10.6605 10.8935C10.5472 11.0234 10.4695 11.1884 10.3972 11.3472C10.3483 11.4544 10.2978 11.5037 10.1698 11.5032C8.65066 11.4982 7.13148 11.4999 5.61231 11.4992C5.5814 11.4992 5.55026 11.4921 5.48198 11.484Z" fill="#858EA9"/>
<path d="M19.4914 12.9406C19.2319 14.9903 18.2746 16.6008 16.6274 17.8487C16.5752 17.7699 16.5292 17.7074 16.4904 17.6409C15.7595 16.3918 15.0316 15.1411 14.2961 13.8949C14.2151 13.7579 14.2041 13.6648 14.3191 13.5415C14.4099 13.444 14.4885 13.3202 14.5275 13.1945C14.5977 12.9678 14.7374 12.9335 14.9573 12.9351C16.3713 12.946 17.7856 12.9408 19.1998 12.9408C19.2865 12.9406 19.3733 12.9406 19.4914 12.9406Z" fill="#858EA9"/>
<path d="M8.35047 17.8525C6.69905 16.6004 5.73929 14.9913 5.48294 12.9529C5.58237 12.9477 5.65328 12.9408 5.7242 12.9408C7.18683 12.9401 8.64922 12.9427 10.1119 12.937C10.2695 12.9363 10.3584 12.9678 10.4121 13.1295C10.459 13.2703 10.5378 13.4133 10.6401 13.52C10.7839 13.6696 10.7432 13.7811 10.6523 13.9349C9.92882 15.1608 9.21391 16.3914 8.49589 17.6203C8.45612 17.6885 8.41228 17.754 8.35047 17.8525Z" fill="#858EA9"/>
<path d="M9.61378 5.86792C9.82821 5.78602 10.0208 5.72472 10.202 5.63974C10.384 5.5543 10.5021 5.58199 10.6219 5.75123C10.9612 6.23006 11.4013 6.58629 11.9942 6.70724C12.8917 6.89044 13.6344 6.61801 14.2183 5.92307C14.5364 5.54435 14.5343 5.54175 14.9964 5.7233C15.1083 5.76732 15.219 5.8149 15.3572 5.87194C15.31 5.95526 15.2693 6.02911 15.2269 6.10177C14.5043 7.33851 13.7791 8.57382 13.0625 9.81387C12.9739 9.96749 12.8912 10.0359 12.7034 9.98619C12.575 9.95234 12.4226 9.94879 12.2954 9.98311C12.0896 10.0387 11.9974 9.96157 11.9001 9.79328C11.1881 8.56009 10.4662 7.33235 9.74747 6.10296C9.70722 6.03502 9.66913 5.96567 9.61378 5.86792Z" fill="#858EA9"/>
<path d="M24.5 5.40463C24.4691 5.73292 24.2727 5.99518 23.961 6.09649C23.6531 6.19637 23.3354 6.08489 23.1337 5.8063C22.7914 5.33314 22.4902 4.82259 22.0963 4.39559C21.4998 3.74918 20.8438 3.15554 20.2022 2.55079C19.978 2.33942 19.8618 2.10272 19.9277 1.80449C19.9871 1.53584 20.1629 1.35547 20.4334 1.27405C20.6859 1.19831 20.9131 1.25701 21.1148 1.41488C22.4054 2.42652 23.4871 3.62278 24.3496 5.00982C24.4229 5.12769 24.4509 5.27255 24.5 5.40463Z" fill="#858EA9"/>
<path d="M4.29368 21.7181C4.27164 22.1314 4.13508 22.3636 3.84591 22.4824C3.55075 22.6036 3.27667 22.5489 3.0402 22.333C2.30254 21.6591 1.64178 20.9188 1.06918 20.1029C0.912974 19.8801 0.758206 19.656 0.616614 19.4243C0.395962 19.0633 0.498262 18.6285 0.842059 18.4181C1.18202 18.21 1.61806 18.294 1.84087 18.6429C2.46497 19.6198 3.19904 20.5031 4.04763 21.2982C4.18252 21.4241 4.24289 21.6279 4.29368 21.7181Z" fill="#858EA9"/>
<path d="M13.3102 12.2316C13.3062 12.6896 12.9384 13.0402 12.4686 13.0343C12.0072 13.0283 11.6545 12.6619 11.6627 12.1966C11.6706 11.7514 12.0347 11.4044 12.4918 11.4063C12.9571 11.4084 13.3143 11.7684 13.3102 12.2316Z" fill="#858EA9"/>
</svg>
