<svg width="23" height="24" viewBox="0 0 23 24" fill="none" xmlns="http://www.w3.org/2000/svg">
<path d="M22.1107 8.32305C22.1107 9.26167 22.1292 10.201 22.1072 11.1396C22.0255 14.6548 20.6815 17.607 18.112 20.0011C17.4226 20.6437 16.6544 21.1804 15.8315 21.6384C14.5954 22.3263 13.3579 23.0108 12.1232 23.7009C11.4054 24.102 10.6989 24.0999 9.98112 23.6931C8.56538 22.8915 7.10563 22.1602 5.73178 21.2933C2.63122 19.3365 0.775284 16.5136 0.164685 12.8933C0.0610257 12.277 0.0177158 11.6444 0.0113258 11.0189C-0.00784414 9.05293 0.00280583 7.08624 0.00422582 5.12025C0.00493582 4.02473 0.757534 3.21959 1.85093 3.09676C4.69376 2.77797 7.35057 1.89686 9.79865 0.412256C10.3716 0.0643567 10.9567 -0.113143 11.6141 0.0785567C11.798 0.132517 11.9776 0.219136 12.1424 0.319246C14.1793 1.55606 16.3633 2.41374 18.7056 2.85749C19.2345 2.9576 19.7692 3.03925 20.3045 3.09747C21.3375 3.20894 22.1072 4.03822 22.11 5.08049C22.1136 6.16182 22.1107 7.24244 22.1107 8.32305ZM20.3684 8.31595C20.3826 8.31595 20.3975 8.31595 20.4117 8.31595C20.4117 7.28007 20.4124 6.24347 20.411 5.20758C20.4103 4.91009 20.335 4.82986 20.0496 4.79365C19.8132 4.76383 19.5767 4.72975 19.3403 4.69638C16.5401 4.29736 13.9259 3.36869 11.5026 1.9139C11.1775 1.71865 10.9453 1.71439 10.6187 1.91035C8.00803 3.483 5.17727 4.42232 2.1541 4.78868C1.73733 4.83909 1.70325 4.87601 1.70325 5.30343C1.70325 7.14517 1.69686 8.98761 1.70751 10.8293C1.71035 11.315 1.73662 11.8042 1.80336 12.2848C2.25421 15.5565 3.86946 18.1047 6.66188 19.8584C7.98531 20.6898 9.38756 21.3934 10.7479 22.1673C10.9787 22.2987 11.1583 22.288 11.3834 22.1609C12.4917 21.534 13.6028 20.9127 14.7218 20.305C15.9479 19.6383 17.0385 18.8062 17.9338 17.7305C19.3744 16.001 20.225 14.0187 20.3577 11.768C20.4245 10.6206 20.3684 9.46615 20.3684 8.31595Z" fill="#858EA9"/>
<path d="M10.4414 12.4765C11.2089 11.6585 11.9644 10.8527 12.7205 10.0469C13.1749 9.56263 13.6265 9.07699 14.0844 8.59633C14.4621 8.20015 14.9698 8.16962 15.3319 8.51113C15.6954 8.85405 15.7004 9.3617 15.3255 9.76285C13.9374 11.251 12.5458 12.7363 11.1507 14.2181C10.7708 14.6221 10.2937 14.6384 9.87838 14.2713C9.06259 13.5507 8.24964 12.8279 7.43882 12.1016C7.01638 11.7232 6.9681 11.2162 7.30747 10.8371C7.64046 10.4658 8.14101 10.4523 8.55991 10.8172C9.1201 11.3057 9.67319 11.8027 10.2291 12.2954C10.2944 12.3536 10.3619 12.409 10.4414 12.4765Z" fill="#858EA9"/>
</svg>
