<svg width="26" height="26" viewBox="0 0 26 26" fill="none" xmlns="http://www.w3.org/2000/svg">
<path d="M20.223 0.000629739C20.3634 0.0227133 20.5033 0.0486045 20.6441 0.0656114C20.897 0.0960715 21.0998 0.195828 21.1909 0.451186C21.2828 0.70832 21.1851 0.911642 21.0041 1.09161C20.5962 1.49775 20.1832 1.8988 19.7846 2.31382C18.5068 3.64442 18.7848 5.71927 20.3553 6.60972C21.3579 7.17805 22.6443 7.04073 23.4916 6.25486C23.9321 5.84644 24.3514 5.41517 24.7715 4.98569C24.9753 4.77729 25.1972 4.6359 25.4916 4.74429C25.7764 4.84938 25.8381 5.09534 25.8708 5.37481C26.0622 7.01154 25.7018 8.51145 24.7085 9.82504C23.3584 11.6105 21.5386 12.4373 19.3036 12.2992C18.8279 12.2697 18.3571 12.1359 17.8888 12.0298C17.7527 11.9991 17.673 12.0187 17.5819 12.1161C17.3511 12.3634 17.1105 12.6015 16.8993 12.8172C16.561 12.6467 16.2604 12.4611 15.9358 12.339C15.4669 12.1626 14.9897 12.2124 14.5209 12.3837C14.4432 12.4121 14.3066 12.4157 14.2584 12.3682C13.5332 11.659 12.8184 10.9394 12.0818 10.2027C12.5476 9.73772 12.9758 9.25543 13.4619 8.84168C13.8688 8.49545 13.9429 8.18095 13.8013 7.64308C12.9738 4.49959 14.811 1.25508 17.9261 0.286955C18.3578 0.152677 18.8132 0.093787 19.2577 0.00012207C19.5796 0.000629739 19.9014 0.000629739 20.223 0.000629739Z" fill="#1EA3D0"/>
<path d="M14.3251 14.2799C14.4396 14.1464 14.5556 13.989 14.6939 13.854C15.0937 13.4633 15.5572 13.4559 15.9494 13.8471C18.5139 16.406 21.086 18.9576 23.6309 21.5355C24.9326 22.8542 24.5163 25.0265 22.8605 25.7667C21.8498 26.2187 20.7085 26.0065 19.8907 25.1983C18.9576 24.2761 18.0339 23.3443 17.1061 22.4166C15.5199 20.8306 13.9339 19.2444 12.348 17.6582C11.8258 17.136 11.823 16.719 12.3429 16.2032C12.4564 16.0907 12.5848 15.9933 12.6828 15.909C9.867 13.0932 7.08701 10.3137 4.26563 7.49236C4.18669 7.58221 4.08541 7.71776 3.96408 7.83173C3.54449 8.22594 3.0089 8.18837 2.66495 7.72639C1.83618 6.61358 1.01478 5.49519 0.197429 4.374C-0.0769661 3.99782 -0.0381294 3.58077 0.290586 3.24596C0.747235 2.78093 1.2082 2.32022 1.67322 1.86332C2.01412 1.52826 2.43396 1.49526 2.82208 1.77905C3.92829 2.58827 5.03272 3.40029 6.13233 4.21815C6.63163 4.58951 6.66615 5.12103 6.22879 5.56702C6.1232 5.67465 5.99425 5.75943 5.88941 5.84396C8.71815 8.67294 11.4986 11.4534 14.3251 14.2799Z" fill="#1EA3D0"/>
<path d="M8.62052 13.6359C9.3706 14.3875 10.0884 15.1043 10.8002 15.8272C10.8383 15.8658 10.8494 15.9651 10.8299 16.0211C10.4857 17.0192 10.5705 17.549 11.237 18.4448C11.2043 18.4841 11.1713 18.5303 11.132 18.5696C8.92461 20.778 6.72107 22.9902 4.50713 25.1919C3.30573 26.3867 1.40324 26.2296 0.461007 24.8746C-0.218001 23.8984 -0.140073 22.5432 0.646814 21.6527C0.708495 21.5829 0.772716 21.5156 0.838459 21.4497C3.38696 18.9006 5.93596 16.3519 8.48446 13.8024C8.52609 13.7605 8.5596 13.7105 8.62052 13.6359Z" fill="#1EA3D0"/>
</svg>
