<svg width="28" height="24" viewBox="0 0 28 24" fill="none" xmlns="http://www.w3.org/2000/svg">
<path d="M27.4792 23.4419C27.4613 23.4591 27.4376 23.4726 27.4262 23.4933C27.1265 24.0339 26.6324 24.1531 26.1284 23.7961C24.7295 22.8057 23.3277 21.8196 21.9396 20.8156C21.4398 20.4543 20.9006 20.295 20.289 20.2965C17.1406 20.3029 13.9921 20.3029 10.8437 20.2979C9.3308 20.2958 8.09753 19.371 7.77344 17.9329C7.658 17.4216 7.67378 16.8718 7.6917 16.342C7.70533 15.9435 8.11403 15.6672 8.53492 15.6893C8.93286 15.7107 9.25839 16.0278 9.2799 16.4291C9.29137 16.6512 9.28276 16.8747 9.28348 17.0967C9.28635 18.06 9.91302 18.6884 10.8753 18.6884C14.0237 18.6891 17.1721 18.6948 20.3205 18.6848C21.2663 18.682 22.1088 18.9426 22.8731 19.4974C23.8468 20.2051 24.8342 20.8949 25.8452 21.6132C25.8559 21.5211 25.8695 21.4568 25.8695 21.3926C25.8702 17.3931 25.8724 13.3936 25.8688 9.3941C25.8681 8.47295 25.2199 7.83743 24.295 7.83244C23.6238 7.82887 22.9534 7.83315 22.2823 7.83101C21.7775 7.82958 21.4233 7.50611 21.4161 7.04482C21.409 6.56925 21.7603 6.2315 22.278 6.22864C22.9663 6.22436 23.6554 6.22079 24.3437 6.22936C25.9283 6.24864 27.1236 7.25047 27.4341 8.80785C27.4405 8.8407 27.4635 8.87069 27.4792 8.90211C27.4792 13.7499 27.4792 18.5956 27.4792 23.4419Z" fill="#858EA9"/>
<path d="M10.8532 0.000714067C13.5005 0.000714067 16.1484 0.00142813 18.7956 0C19.0882 0 19.3893 0.0114251 19.5758 0.264919C19.6898 0.420585 19.7945 0.629093 19.7952 0.814036C19.8074 4.26084 19.8124 7.70835 19.7988 11.1552C19.793 12.5219 18.6185 13.8272 17.2576 14.0293C17.0203 14.0643 16.778 14.0828 16.5378 14.0828C13.3893 14.0864 10.2409 14.0885 7.09321 14.0821C6.53465 14.0807 6.04636 14.2392 5.59464 14.5634C4.1943 15.5667 2.78536 16.5578 1.38288 17.5582C1.17064 17.7096 0.951951 17.8067 0.685937 17.7724C0.287275 17.7217 0.00190229 17.384 0.00118527 16.9477C-0.000965779 15.371 0.000468256 13.7943 0.000468256 12.2177C0.000468256 9.19789 -0.000965779 6.17882 0.00118527 3.15903C0.00261931 1.60451 1.01361 0.365602 2.53943 0.064266C2.80903 0.010711 3.09081 0.00357033 3.36687 0.00357033C5.86209 -0.00142813 8.35731 0.000714067 10.8532 0.000714067ZM1.60874 15.4081C1.74712 15.3132 1.8346 15.2546 1.92064 15.1939C2.80831 14.5634 3.70171 13.9407 4.58078 13.2981C5.35085 12.7354 6.19622 12.4683 7.15559 12.4733C10.2861 12.489 13.4166 12.4805 16.5471 12.4783C17.5774 12.4776 18.1948 11.8564 18.1948 10.8274C18.1955 7.86116 18.1948 4.89493 18.1948 1.92869C18.1948 1.83372 18.1948 1.73947 18.1948 1.63593C18.0915 1.63093 18.0213 1.6245 17.951 1.6245C13.0315 1.62379 8.11209 1.62379 3.19263 1.62593C3.05066 1.62593 2.90439 1.63093 2.76816 1.66378C2.03967 1.83944 1.60946 2.42069 1.60946 3.22187C1.60874 7.18565 1.60874 11.1494 1.60874 15.1139C1.60874 15.1925 1.60874 15.2703 1.60874 15.4081Z" fill="#858EA9"/>
<path d="M10.4547 4.36782C11.9741 4.36782 13.4934 4.36568 15.0128 4.36925C15.5434 4.37068 15.9012 4.71558 15.8926 5.20043C15.8854 5.59316 15.6044 5.91307 15.2107 5.96876C15.0967 5.98519 14.9791 5.9859 14.863 5.9859C11.9139 5.98661 8.96405 5.98733 6.01496 5.98447C5.84717 5.98447 5.67079 5.97876 5.51304 5.92877C5.14306 5.81095 4.93441 5.43036 4.99536 5.03833C5.05559 4.65202 5.40119 4.37211 5.84287 4.36997C6.95138 4.36568 8.05917 4.36854 9.16768 4.36854C9.59646 4.36782 10.0252 4.36782 10.4547 4.36782Z" fill="#858EA9"/>
<path d="M10.4236 9.72763C8.91281 9.72763 7.40277 9.72977 5.89202 9.7262C5.35354 9.72478 5.00005 9.41558 4.98714 8.95073C4.97495 8.49444 5.30621 8.13955 5.77658 8.1117C5.92787 8.10242 6.08059 8.10956 6.2326 8.10956C9.14584 8.10956 12.0598 8.10884 14.973 8.11027C15.5431 8.11027 15.9073 8.45017 15.8908 8.95715C15.8786 9.33704 15.6019 9.65194 15.2211 9.70907C15.1071 9.7262 14.9895 9.72763 14.8741 9.72763C13.3906 9.72835 11.9071 9.72763 10.4236 9.72763Z" fill="#858EA9"/>
</svg>
