<svg width="24" height="24" viewBox="0 0 24 24" fill="none" xmlns="http://www.w3.org/2000/svg">
<path d="M9.93829 0C10.9695 0 12.0007 0 13.0313 0C13.1002 0.0118961 13.1678 0.028175 13.2373 0.0350622C14.5878 0.164667 15.9414 0.264219 17.2876 0.428886C19.68 0.72128 21.939 2.77179 22.4399 5.12785C22.8224 6.92667 22.9508 8.76055 22.9545 10.5963C22.9577 12.0395 22.8694 13.4827 22.8337 14.9259C22.8299 15.0667 22.8806 15.232 22.9602 15.3485C23.3008 15.8481 23.5894 16.3728 23.7566 16.9551C23.8549 17.297 23.9187 17.6495 23.9976 17.9969C23.9976 18.372 23.9976 18.747 23.9976 19.1214C23.9782 19.2197 23.9563 19.3174 23.9394 19.4157C23.2713 23.4247 18.6776 25.3331 15.3836 22.9639C15.2152 22.843 15.058 22.8174 14.8652 22.8299C14.0863 22.8794 13.3074 22.9401 12.5273 22.957C10.2294 23.0052 7.94287 22.8844 5.66446 22.55C3.28836 22.2013 1.02184 20.1771 0.527211 17.8229C0.152171 16.0391 0.0451057 14.2209 0.00879123 12.4014C-0.0362888 10.1505 0.0908118 7.91029 0.417642 5.67883C0.75762 3.3547 2.67978 1.10196 4.97573 0.582284C6.14844 0.316812 7.36497 0.24481 8.56398 0.100178C9.01916 0.0457061 9.47998 0.0325578 9.93829 0ZM13.7601 21.1738C12.7451 18.8854 12.8773 16.7779 14.5183 14.9666C16.3584 12.9348 18.6293 12.6606 21.1257 13.7237C21.1438 13.2748 21.1701 12.8328 21.1782 12.3907C21.2189 10.2175 21.1 8.05555 20.7763 5.90298C20.524 4.225 19.0113 2.56706 17.3439 2.25024C15.6296 1.92467 13.8922 1.81885 12.151 1.78943C10.0723 1.75499 8.00361 1.88272 5.94433 2.18889C4.24005 2.44246 2.57084 3.94826 2.25215 5.63563C1.92657 7.35743 1.82326 9.10303 1.79133 10.8524C1.75627 12.7514 1.86459 14.6441 2.11378 16.5281C2.21145 17.2669 2.35483 17.9901 2.77683 18.6262C3.50437 19.7244 4.46044 20.5252 5.78592 20.7487C8.00862 21.1237 10.2532 21.2233 12.5047 21.1751C12.9079 21.1669 13.3124 21.1738 13.7601 21.1738ZM22.2182 18.5511C22.2126 16.5487 20.5565 14.904 18.5542 14.9115C16.55 14.919 14.9027 16.5757 14.9134 18.5742C14.924 20.5803 16.5757 22.2213 18.5774 22.2151C20.5784 22.2088 22.2239 20.5527 22.2182 18.5511Z" fill="#858EA9"/>
<path d="M11.4835 5.99006C13.3725 5.99006 15.2621 5.98881 17.151 5.99131C17.7139 5.99194 18.0958 6.34694 18.1034 6.86411C18.1109 7.34246 17.7552 7.73378 17.2763 7.77385C17.2299 7.77761 17.1823 7.77698 17.136 7.77698C13.3656 7.77698 9.59513 7.77761 5.82406 7.77635C5.30564 7.77635 4.95814 7.50587 4.85985 7.03441C4.76029 6.55732 5.12156 6.05392 5.60554 6.0007C5.70635 5.98943 5.8084 5.99069 5.90983 5.99069C7.76751 5.99006 9.6258 5.99006 11.4835 5.99006Z" fill="#858EA9"/>
<path d="M9.14238 13.3177C8.011 13.3177 6.87899 13.3177 5.74761 13.3184C5.38571 13.3184 5.11648 13.1543 4.94806 12.8413C4.78339 12.5338 4.80593 12.2233 4.99815 11.9328C5.1697 11.6742 5.42015 11.5358 5.72757 11.5352C8.00599 11.5314 10.285 11.5296 12.5635 11.5358C13.0637 11.5371 13.455 11.9559 13.4463 12.4418C13.4381 12.9233 13.0587 13.3108 12.5597 13.3146C11.4208 13.3234 10.2813 13.3177 9.14238 13.3177Z" fill="#858EA9"/>
<path d="M19.452 17.3789C19.4526 17.6362 19.4577 17.8941 19.4514 18.1515C19.4389 18.6348 19.0338 19.0243 18.5573 19.0186C18.0865 19.013 17.6845 18.6305 17.6757 18.1609C17.6663 17.6381 17.6657 17.1153 17.6757 16.5925C17.6845 16.1185 18.0815 15.7478 18.5604 15.7466C19.045 15.7453 19.4351 16.1079 19.4508 16.5831C19.4589 16.8479 19.452 17.1134 19.452 17.3789Z" fill="#858EA9"/>
<path d="M19.472 20.452C19.4751 21.2159 19.323 21.3705 18.5754 21.3712C17.7996 21.3718 17.66 21.2328 17.6631 20.4614C17.6656 19.7132 17.8384 19.5436 18.5904 19.558C18.7069 19.5605 18.8233 19.5767 18.9392 19.5893C19.2641 19.6256 19.4256 19.7909 19.4507 20.1146C19.4594 20.231 19.4657 20.3481 19.472 20.452Z" fill="#858EA9"/>
</svg>
