<svg width="25" height="25" viewBox="0 0 25 25" fill="none" xmlns="http://www.w3.org/2000/svg">
<path d="M24.8197 13.9149C24.6791 14.229 24.4221 14.3789 24.0966 14.4748C21.54 15.2287 18.9864 15.9931 16.4316 16.7535C15.9429 16.899 15.6909 16.8092 15.4075 16.3894C14.7673 15.4407 14.1269 14.492 13.4893 13.5417C13.1304 13.0069 13.3143 12.5199 13.9397 12.333C16.5102 11.5649 19.0807 10.7965 21.6511 10.0283C22.197 9.86519 22.4317 9.94769 22.7491 10.4187C23.3755 11.3481 24.0016 12.2778 24.6261 13.2086C24.6964 13.3134 24.7554 13.4256 24.8197 13.5342C24.8197 13.6608 24.8197 13.788 24.8197 13.9149Z" fill="#858EA9"/>
<path d="M11.7743 15.7207C11.7743 18.759 11.7743 21.7249 11.7743 24.7141C11.6902 24.6899 11.6166 24.6716 11.5446 24.6478C8.91116 23.7842 6.27775 22.9204 3.64433 22.0564C3.24217 21.9245 3.07375 21.6986 3.07351 21.2821C3.0728 19.7984 3.07328 18.3148 3.07328 16.8309C3.07328 16.7681 3.07328 16.7053 3.07328 16.6071C3.30749 16.6729 3.51962 16.7298 3.73009 16.7923C5.22281 17.2352 6.71507 17.6804 8.20803 18.1225C9.24491 18.4295 10.1606 18.1063 10.7633 17.2215C11.0899 16.7427 11.4111 16.2604 11.7743 15.7207Z" fill="#858EA9"/>
<path d="M13.2304 24.7136C13.2304 21.7226 13.2304 18.758 13.2304 15.7451C13.2993 15.8368 13.3463 15.8937 13.3874 15.9543C13.6815 16.3887 13.9706 16.8266 14.2685 17.2584C14.8512 18.1032 15.7845 18.4285 16.7693 18.1354C18.3915 17.6526 20.0135 17.1693 21.6357 16.6874C21.7259 16.6607 21.8188 16.6428 21.9319 16.6155C21.9319 16.8104 21.9319 16.9841 21.9319 17.1578C21.9319 18.5376 21.9326 19.9173 21.9314 21.2971C21.9312 21.6859 21.7656 21.9259 21.3936 22.0483C18.7338 22.9239 16.0726 23.796 13.4119 24.6685C13.3599 24.6852 13.3052 24.695 13.2304 24.7136Z" fill="#858EA9"/>
<path d="M11.7213 13.0607C11.6726 13.1921 11.6475 13.3388 11.5717 13.4526C10.8982 14.4654 10.2189 15.4748 9.5345 16.4803C9.32095 16.7939 9.04398 16.8865 8.67578 16.7772C6.02693 15.9914 3.37855 15.2047 0.73159 14.4125C0.210893 14.2565 0.0239456 13.7438 0.322539 13.2949C0.987425 12.2954 1.65944 11.3009 2.33335 10.3076C2.55973 9.97377 2.83766 9.87928 3.23056 9.9961C5.86255 10.7781 8.4943 11.562 11.1253 12.3476C11.4976 12.4585 11.6931 12.7082 11.7213 13.0607Z" fill="#858EA9"/>
<path d="M12.505 1.49756C12.9081 1.0881 13.3791 0.846464 13.9338 0.748916C15.3505 0.499994 16.7661 1.62943 16.8335 3.05104C16.8756 3.94072 16.5304 4.67832 15.9054 5.2622C15.1671 5.95185 14.3652 6.57474 13.588 7.22302C13.386 7.39155 13.1763 7.55163 12.9642 7.70747C12.6717 7.92254 12.3506 7.94534 12.075 7.72557C11.1275 6.96987 10.1747 6.21863 9.25823 5.4272C8.73421 4.97472 8.35319 4.40425 8.2166 3.70332C8.00899 2.63758 8.50664 1.56056 9.45634 1.03756C10.416 0.508926 11.5878 0.652074 12.3933 1.39602C12.4223 1.42305 12.452 1.44961 12.505 1.49756Z" fill="#858EA9"/>
<path d="M20.7934 8.80358C19.8505 9.08564 18.9491 9.35642 18.0471 9.62533C16.5252 10.079 14.9994 10.5206 13.4832 10.9919C13.1333 11.1008 12.8152 11.309 12.4475 11.4884C11.9914 11.0244 11.3027 10.92 10.6573 10.7261C8.5622 10.0964 6.46397 9.47748 4.36693 8.85364C4.32916 8.84236 4.29353 8.82355 4.21039 8.789C4.59972 8.6609 4.9501 8.54502 5.30072 8.43007C6.49153 8.03965 7.68305 7.6511 8.87267 7.25645C9.01472 7.2092 9.11496 7.2186 9.2392 7.31897C9.85373 7.81494 10.478 8.29891 11.1013 8.78407C11.974 9.46337 13.0071 9.47089 13.8868 8.79652C14.5265 8.3062 15.1541 7.80083 15.7949 7.31192C15.8672 7.25692 16.0033 7.22566 16.0871 7.25245C17.6148 7.74113 19.1391 8.24015 20.6637 8.738C20.6931 8.74763 20.7197 8.76597 20.7934 8.80358Z" fill="#858EA9"/>
</svg>
