<svg width="23" height="24" viewBox="0 0 23 24" fill="none" xmlns="http://www.w3.org/2000/svg">
<path d="M0.396484 11.3978C0.396484 10.4115 0.396484 9.42546 0.396484 8.43915C0.406027 8.42825 0.420342 8.41888 0.424246 8.40623C0.714436 7.48337 1.26294 7.07655 2.21939 7.07655C3.35391 7.07633 4.48865 7.07655 5.62317 7.07655C5.69626 7.07655 5.76957 7.07655 5.84266 7.07655C5.62556 6.9283 5.40672 6.82801 5.19461 6.71508C4.19737 6.18399 3.31965 5.51359 2.72582 4.52446C2.36362 3.9212 2.17385 3.27195 2.31547 2.56558C2.50546 1.61721 3.12684 1.0471 3.99567 0.720076C4.25268 0.623494 4.52444 0.566156 4.78947 0.490723C5.40455 0.490723 6.01942 0.490723 6.6345 0.490723C6.66681 0.504894 6.69805 0.527131 6.73166 0.532364C7.29166 0.61848 7.82411 0.792021 8.32858 1.04884C9.67217 1.73232 10.5998 2.8224 11.2977 4.13377C11.4131 4.3507 11.5183 4.57285 11.6391 4.81442C11.812 4.48151 11.9612 4.16582 12.1347 3.8643C12.9491 2.45003 14.0333 1.33466 15.6005 0.776978C15.9412 0.655761 16.2997 0.584906 16.6502 0.490723C17.2653 0.490723 17.8801 0.490723 18.4952 0.490723C18.7943 0.579455 19.1023 0.646168 19.3912 0.761281C20.2351 1.0979 20.8139 1.6885 20.979 2.60788C21.1208 3.39862 20.8586 4.1039 20.4188 4.74727C19.8063 5.6431 18.962 6.26422 18.014 6.7565C17.824 6.85526 17.6292 6.94509 17.4368 7.03905C17.4403 7.05148 17.4438 7.06391 17.4472 7.07655C17.5182 7.07655 17.5893 7.07655 17.6602 7.07655C18.8386 7.07655 20.0171 7.07284 21.1954 7.07786C22.1725 7.08178 22.885 7.80211 22.8869 8.7786C22.8884 9.53643 22.8882 10.2942 22.8863 11.0521C22.886 11.1617 22.8837 11.274 22.8622 11.3808C22.6919 12.2289 22.0402 12.7397 21.1206 12.7404C18.2734 12.7424 15.4261 12.7413 12.5789 12.7406C12.5079 12.7406 12.437 12.7334 12.3396 12.728C12.3396 11.167 12.3396 9.61993 12.3396 8.07681C11.8607 8.07681 11.4096 8.07681 10.9314 8.07681C10.9314 9.63388 10.9314 11.1809 10.9314 12.741C10.8093 12.741 10.7147 12.741 10.62 12.741C7.86054 12.741 5.10113 12.741 2.34172 12.741C1.2445 12.741 0.794683 12.4306 0.414052 11.4107C0.411883 11.405 0.402557 11.402 0.396484 11.3978ZM10.7243 6.65098C10.746 6.62722 10.7677 6.60324 10.7891 6.57947C10.5584 6.01089 10.364 5.42377 10.0903 4.87699C9.2499 3.19761 8.01518 2.02883 6.04566 1.8797C5.41886 1.83218 4.80118 1.87839 4.23056 2.17533C3.76165 2.41929 3.57774 2.83112 3.73801 3.33627C3.81848 3.59004 3.94644 3.83945 4.10043 4.05681C4.49798 4.61777 5.04084 5.01717 5.63336 5.35074C6.69197 5.94636 7.83886 6.27425 9.02998 6.45324C9.59193 6.53761 10.1593 6.58623 10.7243 6.65098ZM12.5199 6.61806C12.5828 6.62242 12.619 6.62918 12.6545 6.62678C13.9346 6.54416 15.1958 6.35579 16.4066 5.9106C17.3338 5.56984 18.2007 5.12138 18.9006 4.39997C19.1997 4.09169 19.4456 3.7481 19.5567 3.32275C19.6846 2.83243 19.5352 2.45134 19.0975 2.20193C18.9405 2.11254 18.7685 2.03646 18.5937 1.99416C17.5468 1.74083 16.5244 1.83523 15.5671 2.32816C13.8266 3.22464 13.069 4.83905 12.5199 6.61806Z" fill="#858EA9"/>
<path d="M2.2671 14.1548C5.16749 14.1548 8.03968 14.1548 10.9251 14.1548C10.9251 17.13 10.9251 20.0986 10.9251 23.0989C10.8433 23.0989 10.759 23.0989 10.6746 23.0989C8.46456 23.0989 6.25429 23.076 4.04468 23.1102C3.17346 23.1237 2.23695 22.4843 2.26168 21.3107C2.2864 20.1417 2.2671 18.9716 2.2671 17.802C2.2671 16.6766 2.2671 15.551 2.2671 14.4256C2.2671 14.3394 2.2671 14.2533 2.2671 14.1548Z" fill="#858EA9"/>
<path d="M12.3576 14.1499C15.2426 14.1499 18.1089 14.1499 21.0006 14.1499C21.0065 14.2319 21.0167 14.3088 21.0167 14.3858C21.0176 16.7031 21.0193 19.0202 21.0163 21.3375C21.015 22.2477 20.5075 22.8971 19.6718 23.0722C19.5868 23.0901 19.4979 23.0973 19.4107 23.0973C17.1128 23.0988 14.8149 23.0986 12.5172 23.0986C12.4678 23.0986 12.4185 23.0986 12.3576 23.0986C12.3576 20.1102 12.3576 17.1415 12.3576 14.1499Z" fill="#858EA9"/>
</svg>
