<svg width="25" height="23" viewBox="0 0 25 23" fill="none" xmlns="http://www.w3.org/2000/svg">
<path d="M24.546 0.527526C24.546 7.07659 24.546 13.6257 24.546 20.1747C24.3193 20.7278 23.9049 20.9052 23.3163 20.9013C20.3284 20.8821 17.3399 20.8924 14.352 20.8924C13.634 20.8924 13.2818 21.2214 13.2293 21.9391C13.194 22.423 12.7784 22.8059 12.2839 22.8091C11.7843 22.8123 11.361 22.4416 11.3168 21.9615C11.2457 21.1881 10.9216 20.8924 10.144 20.8924C7.10813 20.8924 4.07222 20.8924 1.03567 20.8924C0.3939 20.8924 0 20.505 0 19.8719C0 13.5232 0 7.17454 0.000640487 0.825851C0.000640487 0.203594 0.39454 -0.190118 1.01581 -0.190118C4.12346 -0.190758 7.2311 -0.190758 10.3394 -0.189478C10.4822 -0.189478 10.6263 -0.179875 10.7685 -0.16131C11.3373 -0.0857681 11.8304 0.160702 12.257 0.518564C12.282 0.514082 12.2909 0.515363 12.2967 0.510882C12.3415 0.477592 12.3851 0.442382 12.4293 0.408452C12.9276 0.0320254 13.4848 -0.188197 14.1125 -0.188837C17.2682 -0.192038 20.4239 -0.190758 23.5802 -0.190118C23.9978 -0.190118 24.2898 0.0121797 24.4692 0.384766C24.4922 0.43342 24.5204 0.480153 24.546 0.527526ZM22.6124 18.9776C22.6124 13.2115 22.6124 7.47542 22.6124 1.72467C22.517 1.72467 22.4382 1.72467 22.3594 1.72467C19.6911 1.72467 17.0229 1.72467 14.3546 1.72467C13.6097 1.72467 13.2305 2.10045 13.2305 2.83986C13.2305 8.18218 13.2305 13.5239 13.2305 18.8662C13.2305 18.9481 13.2305 19.0307 13.2305 19.0614C13.7077 19.032 14.1496 18.9827 14.5929 18.9814C17.1651 18.9737 19.7379 18.9776 22.3101 18.9776C22.4049 18.9776 22.4997 18.9776 22.6124 18.9776ZM11.3148 19.0602C11.3148 19.0358 11.3148 18.9725 11.3148 18.9097C11.3148 13.536 11.3155 8.1617 11.3142 2.78801C11.3142 2.12542 10.9165 1.72595 10.258 1.72531C7.55006 1.72403 4.84144 1.72467 2.13346 1.72531C2.06493 1.72531 1.9964 1.73427 1.93491 1.73811C1.93491 7.49527 1.93491 13.2313 1.93491 18.9776C2.04892 18.9776 2.14435 18.9776 2.23978 18.9776C4.81198 18.9776 7.38482 18.9737 9.95701 18.9814C10.3989 18.9827 10.8415 19.0313 11.3148 19.0602Z" fill="#858EA9"/>
<path d="M18.0387 5.55977C18.6695 5.55977 19.2998 5.55785 19.9307 5.56041C20.4898 5.56297 20.9036 5.97653 20.901 6.52453C20.8991 7.05844 20.4847 7.47264 19.9396 7.47392C18.6625 7.47712 17.3847 7.47712 16.1076 7.47392C15.5638 7.47264 15.1507 7.05652 15.1494 6.52197C15.1481 5.97461 15.5613 5.56297 16.1223 5.56105C16.7615 5.55785 17.4001 5.55977 18.0387 5.55977Z" fill="#858EA9"/>
<path d="M18.0166 11.3091C17.3857 11.3091 16.7555 11.3111 16.1246 11.3085C15.5635 11.3059 15.1491 10.8949 15.1504 10.3482C15.1517 9.80279 15.5667 9.39564 16.131 9.395C17.3921 9.39307 18.6539 9.39307 19.915 9.395C20.4824 9.39564 20.8988 9.79895 20.9013 10.3425C20.9045 10.9001 20.4882 11.3066 19.9086 11.3085C19.2783 11.3104 18.6475 11.3091 18.0166 11.3091Z" fill="#858EA9"/>
<path d="M18.0307 15.1421C17.3998 15.1421 16.7696 15.1441 16.1387 15.1415C15.561 15.1396 15.1466 14.7305 15.1504 14.1716C15.1543 13.63 15.5725 13.2286 16.1406 13.228C17.4017 13.2261 18.6635 13.2261 19.9246 13.228C20.487 13.2293 20.9014 13.639 20.9014 14.1857C20.9014 14.7312 20.4857 15.1396 19.9227 15.1421C19.2924 15.1441 18.6616 15.1421 18.0307 15.1421Z" fill="#858EA9"/>
<path d="M6.52048 7.47468C5.8896 7.47468 5.25936 7.4766 4.62848 7.47404C4.06293 7.47211 3.64597 7.06752 3.64405 6.524C3.64213 5.96577 4.05716 5.56117 4.63809 5.56053C5.89152 5.55925 7.14495 5.55925 8.39839 5.56053C8.98059 5.56117 9.39626 5.96513 9.39498 6.52208C9.3937 7.0752 8.97418 7.47339 8.38814 7.47468C7.76558 7.47596 7.14303 7.47468 6.52048 7.47468Z" fill="#858EA9"/>
<path d="M6.5083 11.3091C5.87742 11.3091 5.24719 11.3117 4.61631 11.3085C4.05652 11.3059 3.64276 10.893 3.64405 10.3463C3.64597 9.80151 4.06164 9.39564 4.62655 9.395C5.88767 9.39307 7.14943 9.39307 8.41055 9.395C8.97674 9.39564 9.39242 9.80023 9.39498 10.345C9.3969 10.902 8.98058 11.3072 8.4003 11.3091C7.76942 11.3104 7.13854 11.3091 6.5083 11.3091Z" fill="#858EA9"/>
<path d="M6.51327 13.2276C7.14415 13.2276 7.77439 13.2263 8.40527 13.2283C8.98427 13.2302 9.39867 13.638 9.39546 14.1969C9.39162 14.7391 8.97402 15.1418 8.40591 15.1424C7.14479 15.1443 5.88303 15.1443 4.62191 15.1424C4.05957 15.1411 3.64453 14.7314 3.64453 14.186C3.64453 13.6393 4.05893 13.2315 4.62127 13.2289C5.25151 13.2257 5.88239 13.2276 6.51327 13.2276Z" fill="#858EA9"/>
</svg>
