<svg width="24" height="24" viewBox="0 0 24 24" fill="none" xmlns="http://www.w3.org/2000/svg">
<path d="M3.94768 10.9095C3.94768 10.7825 3.94768 10.6823 3.94768 10.5821C3.94768 8.71514 3.94878 6.84814 3.94658 4.98115C3.94631 4.68366 4.00339 4.41443 4.23282 4.20147C4.44139 4.00772 4.69387 3.96408 4.96337 3.96436C6.05563 3.96491 7.14761 3.96463 8.23987 3.96463C11.6712 3.96463 15.1025 3.96271 18.5337 3.9693C18.7368 3.96957 18.958 3.99811 19.1394 4.08154C19.5146 4.25416 19.6145 4.59748 19.6137 4.98938C19.6098 6.85638 19.612 8.72337 19.612 10.5904C19.612 10.6889 19.612 10.7871 19.612 10.9109C20.2278 10.9109 20.8146 10.9109 21.4011 10.9109C21.6722 10.9109 21.9433 10.9035 22.2142 10.9112C22.7214 10.9252 23.0814 11.2899 23.0809 11.7792C23.0803 12.2686 22.7181 12.6396 22.2117 12.644C21.0424 12.6539 19.8727 12.6552 18.7033 12.6569C12.964 12.6648 7.22473 12.6722 1.48515 12.6791C0.871785 12.6799 0.47934 12.3363 0.478516 11.802C0.477967 11.2992 0.85724 10.9277 1.38937 10.9238C2.17948 10.9183 2.96958 10.9216 3.75941 10.9205C3.81265 10.92 3.86535 10.9145 3.94768 10.9095Z" fill="#858EA9"/>
<path d="M3.94769 14.4082C9.17408 14.4082 14.3749 14.4082 19.6002 14.4082C19.6041 14.4911 19.6115 14.5734 19.6115 14.6555C19.6123 15.9722 19.6131 17.289 19.6115 18.6057C19.6106 19.2965 19.2753 19.6354 18.5859 19.6354C14.0478 19.6368 9.50944 19.6368 4.97134 19.6354C4.28196 19.6351 3.94879 19.2968 3.94797 18.6038C3.9466 17.287 3.94742 15.9703 3.94742 14.6536C3.94769 14.5778 3.94769 14.5021 3.94769 14.4082Z" fill="#858EA9"/>
<path d="M18.8384 0.503221C19.4347 0.503221 20.0314 0.488127 20.6272 0.506239C21.9324 0.546033 23.0425 1.64982 23.0702 2.95943C23.0957 4.16751 23.0853 5.37613 23.079 6.58475C23.0765 7.08368 22.686 7.46158 22.2112 7.45911C21.7364 7.45664 21.3525 7.07846 21.3487 6.57926C21.3401 5.47932 21.3456 4.3791 21.3448 3.27915C21.3443 2.56068 21.0144 2.23327 20.2907 2.23272C19.1908 2.2319 18.0911 2.23574 16.9911 2.22943C16.5984 2.22724 16.2768 1.98354 16.1654 1.63226C16.0517 1.27439 16.1662 0.867673 16.4865 0.668157C16.6475 0.567713 16.8586 0.508984 17.0496 0.502397C17.6454 0.481815 18.242 0.494713 18.8384 0.494713C18.8381 0.498006 18.8381 0.500476 18.8384 0.503221Z" fill="#858EA9"/>
<path d="M4.71254 23.0966C4.11619 23.0966 3.51956 23.1115 2.92376 23.0936C1.63528 23.0552 0.516944 21.9454 0.489775 20.6547C0.464527 19.4466 0.474956 18.238 0.479621 17.0294C0.481542 16.5272 0.8556 16.1515 1.3334 16.1413C1.81448 16.1312 2.20748 16.5159 2.21132 17.0288C2.21955 18.1288 2.21406 19.229 2.21489 20.3289C2.21544 21.0334 2.54833 21.3663 3.25391 21.3671C4.36154 21.3682 5.46916 21.3644 6.57652 21.3707C6.96128 21.3729 7.26975 21.6065 7.38803 21.9536C7.50686 22.3024 7.41136 22.7015 7.10124 22.9067C6.93191 23.019 6.70496 23.0879 6.50077 23.0964C5.90552 23.1208 5.30834 23.1052 4.71199 23.1052C4.71254 23.1024 4.71254 23.0997 4.71254 23.0966Z" fill="#858EA9"/>
<path d="M18.8214 23.1017C18.194 23.1017 17.5664 23.1121 16.9393 23.0981C16.4999 23.0885 16.1667 22.7433 16.1245 22.2948C16.088 21.9049 16.3649 21.5023 16.7551 21.3999C16.8726 21.3691 17.0005 21.3694 17.1234 21.3691C18.1847 21.367 19.2457 21.3686 20.3069 21.3675C21.0108 21.367 21.3437 21.0324 21.3443 20.3271C21.3451 19.2349 21.3393 18.1423 21.347 17.0501C21.3511 16.4433 21.8432 16.0453 22.4113 16.1705C22.7763 16.2509 23.0708 16.5649 23.073 16.9392C23.0809 18.2249 23.1114 19.5126 23.0581 20.7961C23.0082 22.0036 21.866 23.058 20.6563 23.0932C20.0451 23.1107 19.4328 23.0962 18.8208 23.0962C18.8214 23.0984 18.8214 23.1 18.8214 23.1017Z" fill="#858EA9"/>
<path d="M0.485057 4.73416C0.485057 4.13781 0.470237 3.54091 0.488076 2.94483C0.526497 1.6547 1.63522 0.535 2.92398 0.508379C4.13178 0.483406 5.3404 0.49356 6.54847 0.498225C7.0614 0.500146 7.44643 0.891219 7.43847 1.37313C7.43051 1.85943 7.04877 2.22855 6.53036 2.23102C5.44606 2.23624 4.36176 2.23239 3.27746 2.23294C2.53949 2.23322 2.21566 2.55705 2.21538 3.29419C2.21483 4.37877 2.22032 5.46334 2.21264 6.54792C2.20825 7.15772 1.7203 7.55428 1.15002 7.43024C0.768002 7.34736 0.488625 7.0227 0.482038 6.6168C0.471884 5.98944 0.479294 5.3618 0.479294 4.73444C0.481215 4.73416 0.483136 4.73416 0.485057 4.73416Z" fill="#858EA9"/>
</svg>
