<svg width="27" height="24" viewBox="0 0 27 24" fill="none" xmlns="http://www.w3.org/2000/svg">
<path d="M25.0557 6.60424C24.3159 7.18441 23.6405 7.71345 22.9658 8.24326C20.938 9.83735 18.9109 11.4314 16.8838 13.0255C15.849 13.8389 14.9171 13.8419 13.8862 13.0317C11.9722 11.5283 10.0597 10.0217 8.1434 8.52056C7.97532 8.38888 7.78477 8.28741 7.53613 8.12785C7.31072 8.2603 6.89012 8.46014 6.52452 8.73357C5.99935 9.12629 5.99935 9.71574 6.08688 10.2936C6.12174 10.5252 6.22166 10.7583 6.3394 10.9636C7.22707 12.5128 8.12791 14.0542 9.02023 15.601C9.2619 16.0201 9.61279 16.309 10.0473 16.5011C10.4795 16.6924 10.9009 16.6955 11.3153 16.4291C11.6228 16.2308 11.9489 16.0604 12.2673 15.8783C13.2138 15.3384 14.2169 15.4082 15.0829 16.0735C15.1673 16.1386 15.2564 16.1998 15.3284 16.2765C16.5592 17.5871 17.5445 19.0502 18.0224 20.8047C18.2494 21.6366 18.024 22.3926 17.1472 22.8744C13.99 24.611 10.9822 24.2826 8.0915 22.2725C6.82274 21.3903 5.77937 20.2663 4.98233 18.9496C3.75848 16.9279 2.56795 14.8838 1.42157 12.8164C0.560231 11.2649 0.0730177 9.57632 0.00717817 7.79245C-0.0997143 4.88389 0.986251 2.52219 3.33014 0.772405C3.66786 0.519891 4.04818 0.314627 4.43237 0.137247C5.0838 -0.16484 5.66009 0.0675345 6.17286 0.486584C6.78788 0.988514 7.24101 1.62832 7.61978 2.3177C7.93581 2.89167 8.23558 3.47648 8.51288 4.07058C8.61047 4.27972 8.753 4.25648 8.91256 4.25648C13.2897 4.25726 17.6669 4.25726 22.0433 4.25726C22.797 4.25726 23.5506 4.25028 24.3043 4.26113C24.5529 4.265 24.8093 4.28514 25.0479 4.34943C25.8597 4.56864 26.3097 5.16197 26.312 6.00084C26.3167 7.72119 26.3136 9.44232 26.3136 11.1627C26.3136 13.1735 26.3143 15.1835 26.3136 17.1943C26.3128 18.3005 25.5979 19.0185 24.484 19.0208C22.6095 19.0247 20.735 19.0224 18.8605 19.0216C18.3973 19.0216 18.1231 18.7853 18.1239 18.395C18.1247 18.0053 18.3981 17.7644 18.8636 17.7637C20.6707 17.7606 22.4771 17.7621 24.2842 17.7621C24.4004 17.7621 24.5173 17.7668 24.6312 17.752C24.893 17.718 25.0595 17.5855 25.0549 17.2981C25.0541 17.2501 25.0557 17.2013 25.0557 17.1533C25.0557 13.7606 25.0557 10.3679 25.0557 6.97449C25.0557 6.87845 25.0557 6.78395 25.0557 6.60424ZM13.1062 22.7466C14.1534 22.7241 15.196 22.5142 16.1534 21.9851C16.9706 21.5336 17.0015 21.4577 16.6429 20.5638C16.1905 19.436 15.543 18.4182 14.7568 17.4941C14.5662 17.2703 14.3184 17.0875 14.0744 16.9178C13.7336 16.6808 13.3703 16.6924 13.0109 16.9008C12.6189 17.1285 12.2332 17.3702 11.8273 17.57C11.564 17.7001 11.2743 17.8272 10.9869 17.852C9.65229 17.9674 8.63913 17.3973 7.96137 16.2695C7.04736 14.7474 6.1837 13.1952 5.27899 11.6677C4.8948 11.0186 4.72129 10.3331 4.79643 9.59104C4.88783 8.69717 5.2635 7.96828 6.08069 7.51438C6.46875 7.29904 6.84907 7.06977 7.23249 6.84591C7.55162 6.66001 7.7228 6.38581 7.70808 6.01246C7.70034 5.82036 7.70266 5.62052 7.64922 5.43927C7.25031 4.06903 6.57487 2.84287 5.67171 1.74141C5.54003 1.5803 5.36032 1.45249 5.18449 1.3363C5.11246 1.28828 4.97071 1.27434 4.89712 1.31306C4.59039 1.47418 4.279 1.63684 4.00248 1.84288C2.21706 3.16897 1.30848 4.9629 1.2589 7.17589C1.2163 9.0953 1.76238 10.8792 2.69111 12.5376C3.70891 14.3563 4.76544 16.1541 5.82895 17.9472C6.50903 19.0944 7.37269 20.0959 8.41141 20.9371C9.76925 22.0363 11.2898 22.7218 13.1062 22.7466ZM8.95129 5.52292C9.0179 6.16196 8.91798 6.74909 8.55393 7.26884C8.66469 7.34629 8.76307 7.40826 8.85369 7.47875C10.7747 8.98764 12.6956 10.4965 14.615 12.0077C15.2138 12.4795 15.5329 12.4849 16.1317 12.0147C18.5236 10.1363 20.9155 8.25798 23.3074 6.37884C23.6521 6.10774 23.9952 5.83431 24.3895 5.52292C19.2137 5.52292 14.11 5.52292 8.95129 5.52292Z" fill="#858EA9"/>
</svg>
