<svg width="28" height="29" viewBox="0 0 28 29" fill="none" xmlns="http://www.w3.org/2000/svg">
<circle cx="13.9781" cy="14.7057" r="13.0461" fill="#FFCB2E"/>
<path d="M14.1174 22.6536C12.6538 22.6536 11.4104 22.4017 10.3875 21.8981C9.38023 21.3788 8.60906 20.6469 8.07396 19.7027C7.53887 18.7426 7.23984 17.5937 7.17689 16.256C7.16115 15.6107 7.15328 14.9183 7.15328 14.1786C7.15328 13.4389 7.16115 12.7307 7.17689 12.0539C7.23984 10.7319 7.53887 9.5909 8.07396 8.63088C8.6248 7.67085 9.40383 6.93903 10.4111 6.43541C11.4341 5.91605 12.6695 5.65637 14.1174 5.65637C15.1876 5.65637 16.1476 5.79801 16.9975 6.0813C17.8473 6.36459 18.5713 6.75804 19.1693 7.26166C19.7674 7.74954 20.2317 8.32399 20.5622 8.98499C20.8927 9.64599 21.0658 10.3621 21.0815 11.1332C21.0973 11.2749 21.0501 11.3929 20.9399 11.4873C20.8455 11.5818 20.7274 11.629 20.5858 11.629H18.3431C18.17 11.629 18.0283 11.5896 17.9182 11.511C17.808 11.4165 17.7293 11.267 17.6821 11.0624C17.4303 10.0237 16.9975 9.31549 16.3837 8.93777C15.7699 8.56006 15.0066 8.3712 14.0938 8.3712C13.0393 8.3712 12.1974 8.67022 11.5678 9.26827C10.9383 9.85058 10.5999 10.8185 10.5527 12.172C10.5055 13.4625 10.5055 14.7845 10.5527 16.138C10.5999 17.4914 10.9383 18.4672 11.5678 19.0653C12.1974 19.6476 13.0393 19.9387 14.0938 19.9387C15.0066 19.9387 15.7699 19.7499 16.3837 19.3722C16.9975 18.9787 17.4303 18.2705 17.6821 17.2475C17.7293 17.0272 17.808 16.8777 17.9182 16.799C18.0283 16.7203 18.17 16.6809 18.3431 16.6809H20.5858C20.7274 16.6809 20.8455 16.7281 20.9399 16.8226C21.0501 16.917 21.0973 17.035 21.0815 17.1767C21.0658 17.9479 20.8927 18.6639 20.5622 19.3249C20.2317 19.9859 19.7674 20.5683 19.1693 21.0719C18.5713 21.5598 17.8473 21.9453 16.9975 22.2286C16.1476 22.5119 15.1876 22.6536 14.1174 22.6536Z" fill="#FF7A00"/>
</svg>
