<svg width="35" height="35" viewBox="0 0 35 35" fill="none" xmlns="http://www.w3.org/2000/svg">
<path d="M26.9978 0.847344C27.1814 0.876222 27.3643 0.91008 27.5485 0.93232C27.8791 0.972152 28.1443 1.1026 28.2635 1.43653C28.3836 1.77279 28.2558 2.03867 28.0192 2.27401C27.4857 2.80511 26.9457 3.32957 26.4245 3.87229C24.7536 5.61231 25.117 8.32556 27.1707 9.49C28.4819 10.2332 30.1641 10.0536 31.2722 9.02595C31.8481 8.49186 32.3964 7.9279 32.9458 7.36626C33.2123 7.09374 33.5024 6.90885 33.8875 7.05059C34.2599 7.18801 34.3406 7.50966 34.3834 7.87512C34.6337 10.0155 34.1623 11.9769 32.8635 13.6947C31.0979 16.0295 28.7182 17.1106 25.7955 16.93C25.1735 16.8915 24.5577 16.7166 23.9453 16.5779C23.7674 16.5377 23.6631 16.5633 23.544 16.6907C23.2423 17.014 22.9276 17.3254 22.6514 17.6075C22.2089 17.3845 21.8159 17.1418 21.3914 16.9822C20.7783 16.7515 20.1542 16.8165 19.5411 17.0406C19.4396 17.0778 19.261 17.0824 19.1979 17.0203C18.2496 16.0929 17.3148 15.1519 16.3516 14.1886C16.9607 13.5805 17.5206 12.9498 18.1563 12.4087C18.6884 11.956 18.7853 11.5447 18.6001 10.8413C17.518 6.7306 19.9206 2.48778 23.9941 1.22177C24.5587 1.04617 25.1542 0.969165 25.7354 0.84668C26.1563 0.847344 26.5772 0.847344 26.9978 0.847344Z" fill="url(#paint0_linear_5080_4707)"/>
<path d="M19.2853 19.5202C19.435 19.3456 19.5867 19.1398 19.7676 18.9632C20.2904 18.4524 20.8965 18.4428 21.4094 18.9543C24.7629 22.3005 28.1264 25.6372 31.4544 29.0083C33.1566 30.7327 32.6122 33.5735 30.447 34.5414C29.1252 35.1326 27.6329 34.8551 26.5634 33.7982C25.3431 32.5923 24.1352 31.3737 22.922 30.1605C20.8477 28.0865 18.7738 26.0123 16.6998 23.938C16.017 23.2552 16.0134 22.7098 16.6932 22.0353C16.8416 21.8883 17.0095 21.7608 17.1377 21.6506C13.4555 17.9684 9.82009 14.3337 6.13061 10.6442C6.02738 10.7617 5.89493 10.939 5.73627 11.088C5.18757 11.6035 4.48719 11.5544 4.03741 10.9503C2.95364 9.49505 1.87949 8.03253 0.810648 6.56637C0.451824 6.07443 0.50261 5.52906 0.932469 5.09124C1.52962 4.48313 2.13242 3.88066 2.74053 3.28317C3.18632 2.84502 3.73535 2.80186 4.24288 3.17297C5.68946 4.23119 7.13372 5.29305 8.57168 6.36256C9.2246 6.84818 9.26974 7.54326 8.69781 8.12647C8.55973 8.26721 8.3911 8.37808 8.25401 8.48862C11.9531 12.1881 15.5892 15.8241 19.2853 19.5202Z" fill="url(#paint1_linear_5080_4707)"/>
<path d="M11.8251 18.6782C12.8059 19.6611 13.7447 20.5985 14.6754 21.5438C14.7252 21.5943 14.7398 21.7241 14.7142 21.7974C14.2641 23.1026 14.375 23.7954 15.2467 24.9668C15.2039 25.0182 15.1607 25.0786 15.1093 25.1301C12.2227 28.0179 9.34117 30.9108 6.44602 33.79C4.87496 35.3524 2.38708 35.147 1.15493 33.3751C0.266999 32.0985 0.368904 30.3262 1.39791 29.1618C1.47857 29.0705 1.56255 28.9826 1.64852 28.8963C4.98117 25.5629 8.31449 22.23 11.6471 18.896C11.7016 18.8412 11.7454 18.7758 11.8251 18.6782Z" fill="url(#paint2_linear_5080_4707)"/>
<defs>
<linearGradient id="paint0_linear_5080_4707" x1="34.448" y1="0.84668" x2="16.3516" y2="0.84668" gradientUnits="userSpaceOnUse">
<stop stop-color="#FF5790"/>
<stop offset="1" stop-color="#F81140"/>
</linearGradient>
<linearGradient id="paint1_linear_5080_4707" x1="32.4588" y1="2.92188" x2="0.572266" y2="2.92188" gradientUnits="userSpaceOnUse">
<stop stop-color="#FF5790"/>
<stop offset="1" stop-color="#F81140"/>
</linearGradient>
<linearGradient id="paint2_linear_5080_4707" x1="15.2467" y1="18.6782" x2="0.551758" y2="18.6782" gradientUnits="userSpaceOnUse">
<stop stop-color="#FF5790"/>
<stop offset="1" stop-color="#F81140"/>
</linearGradient>
</defs>
</svg>
