<svg width="25" height="25" viewBox="0 0 25 25" fill="none" xmlns="http://www.w3.org/2000/svg">
<path fill-rule="evenodd" clip-rule="evenodd" d="M14.8315 5.47634C13.6343 4.49682 11.9126 4.49682 10.7154 5.47634L4.54074 10.5283C4.07142 10.9123 4.24051 11.6671 4.82879 11.8142C5.82475 12.0632 6.52344 12.9581 6.52344 13.9847V18.8235C6.52344 20.6184 7.97851 22.0735 9.77344 22.0735H15.7734C17.5684 22.0735 19.0234 20.6184 19.0234 18.8235V13.9847C19.0234 12.9581 19.7221 12.0632 20.7181 11.8142C21.3064 11.6671 21.4755 10.9123 21.0061 10.5283L14.8315 5.47634ZM9.76556 4.3154C11.5153 2.8838 14.0316 2.8838 15.7813 4.3154L21.956 9.36741C23.3801 10.5326 22.867 12.8231 21.0819 13.2694C20.7537 13.3515 20.5234 13.6464 20.5234 13.9847V18.8235C20.5234 21.4468 18.3968 23.5735 15.7734 23.5735H9.77344C7.15008 23.5735 5.02344 21.4468 5.02344 18.8235V13.9847C5.02344 13.6464 4.79319 13.3515 4.46499 13.2694C2.67983 12.8231 2.16673 10.5326 3.59088 9.36741L9.76556 4.3154Z" fill="#484848"/>
<path fill-rule="evenodd" clip-rule="evenodd" d="M12.7734 15.5732C12.0831 15.5732 11.5234 16.1329 11.5234 16.8232C11.5234 17.5136 12.0831 18.0732 12.7734 18.0732C13.4638 18.0732 14.0234 17.5136 14.0234 16.8232C14.0234 16.1329 13.4638 15.5732 12.7734 15.5732ZM10.0234 16.8232C10.0234 15.3045 11.2547 14.0732 12.7734 14.0732C14.2922 14.0732 15.5234 15.3045 15.5234 16.8232C15.5234 18.342 14.2922 19.5732 12.7734 19.5732C11.2547 19.5732 10.0234 18.342 10.0234 16.8232Z" fill="#484848"/>
</svg>
