<svg width="33" height="30" viewBox="0 0 33 30" fill="none" xmlns="http://www.w3.org/2000/svg">
<path d="M28.3305 16.1284C28.3295 15.9446 28.2166 15.7177 28.0822 15.5833C24.4857 11.9696 20.8784 8.36449 17.2733 4.75831C16.5906 4.07664 16.0379 4.07879 15.3519 4.76369C11.7468 8.36987 8.13958 11.975 4.54416 15.5898C4.40438 15.7306 4.29901 15.9757 4.29794 16.1725C4.28396 20.4636 4.28719 24.7557 4.28719 29.0468V29.4285H28.3273C28.3338 29.2909 28.3402 29.2038 28.3402 29.1167C28.3413 24.7869 28.3445 20.4582 28.3305 16.1284ZM15.295 20.5808C15.3003 22.4032 15.296 24.2267 15.296 26.1094H11.6447V15.0489C11.6447 13.7082 11.6565 13.6964 13.0209 13.7867C13.1639 13.7963 13.3059 13.8307 13.5972 13.877C13.337 15.2876 13.1027 16.6187 12.8446 17.9444C12.621 19.0852 12.6726 19.1572 13.8574 19.1637C15.4691 19.1734 15.2896 19.0046 15.295 20.5808ZM17.8518 25.9083C17.2937 25.8524 16.9421 25.5223 16.9045 24.9482C16.8701 24.4375 17.4002 23.9042 17.9034 23.9698C18.4356 24.0386 18.827 24.3149 18.8366 24.9245C18.8388 25.4686 18.3732 25.961 17.8518 25.9083ZM18.7657 22.2355C18.0464 22.3194 17.3088 22.2484 16.4325 22.2484C17.0658 20.655 17.6496 19.1841 18.3216 17.4918C17.5206 17.4918 16.9206 17.4703 16.3239 17.4982C15.724 17.5262 15.5853 17.3036 15.7766 16.7456C16.0487 15.9532 16.2422 15.1339 16.5293 14.3479C16.611 14.1253 16.8819 13.8544 17.1013 13.8168C19.6914 13.3673 21.9256 14.9801 22.3192 17.5434C22.6503 19.7067 20.9558 21.9785 18.7657 22.2355Z" fill="#FFFEFE"/>
<path d="M32.6722 16.0335C32.6636 16.27 32.4743 16.5904 32.097 16.7926C31.7163 16.9968 31.3422 16.9657 30.9906 16.7259C30.8562 16.6345 30.7411 16.5141 30.625 16.398C26.4619 12.2424 22.2988 8.08568 18.1367 3.93008C16.9562 2.75168 15.6767 2.74953 14.5026 3.92471C10.3266 8.10504 6.1516 12.2843 1.98094 16.4678C1.65839 16.7915 1.30788 17.0076 0.838018 16.8936C-0.0124551 16.6861 -0.284478 15.6926 0.344507 15.0486C1.20788 14.1626 2.08954 13.295 2.96259 12.4187C6.80424 8.56629 10.647 4.7139 14.4897 0.863648C15.6412 -0.290029 16.9906 -0.287879 18.1485 0.870099C22.8256 5.54717 27.5016 10.2264 32.1787 14.9024C32.4432 15.1669 32.6797 15.4389 32.6722 16.0335Z" fill="#FFFEFE"/>
</svg>
