<svg width="32" height="32" viewBox="0 0 32 32" fill="none" xmlns="http://www.w3.org/2000/svg">
<path d="M23.2233 3.00051C23.3636 3.02259 23.5035 3.04848 23.6444 3.06549C23.8972 3.09595 24.1 3.19571 24.1911 3.45106C24.283 3.7082 24.1853 3.91152 24.0043 4.09149C23.5964 4.49762 23.1834 4.89868 22.7849 5.3137C21.5071 6.6443 21.785 8.71914 23.3555 9.6096C24.3582 10.1779 25.6446 10.0406 26.4919 9.25474C26.9323 8.84632 27.3516 8.41505 27.7717 7.98556C27.9756 7.77717 28.1974 7.63578 28.4919 7.74417C28.7767 7.84925 28.8383 8.09522 28.8711 8.37469C29.0625 10.0114 28.702 11.5113 27.7088 12.8249C26.3586 14.6104 24.5389 15.4371 22.3039 15.299C21.8282 15.2696 21.3573 15.1358 20.889 15.0297C20.7529 14.999 20.6732 15.0186 20.5821 15.116C20.3514 15.3633 20.1107 15.6014 19.8996 15.8171C19.5612 15.6465 19.2607 15.461 18.936 15.3389C18.4672 15.1625 17.99 15.2122 17.5211 15.3836C17.4435 15.412 17.3069 15.4156 17.2587 15.3681C16.5335 14.6589 15.8187 13.9393 15.082 13.2026C15.5478 12.7376 15.976 12.2553 16.4621 11.8416C16.869 11.4953 16.9431 11.1808 16.8015 10.643C15.974 7.49947 17.8113 4.25496 20.9263 3.28683C21.3581 3.15255 21.8135 3.09366 22.2579 3C22.5798 3.00051 22.9017 3.00051 23.2233 3.00051Z" fill="#1EA3D0"/>
<path d="M17.3256 17.2798C17.4401 17.1463 17.5561 16.9889 17.6944 16.8538C18.0942 16.4632 18.5577 16.4558 18.9499 16.847C21.5144 19.4059 24.0865 21.9574 26.6314 24.5354C27.9331 25.854 27.5168 28.0264 25.861 28.7665C24.8503 29.2186 23.709 29.0064 22.8912 28.1982C21.9581 27.276 21.0344 26.3442 20.1066 25.4164C18.5204 23.8305 16.9344 22.2443 15.3485 20.6581C14.8263 20.1359 14.8235 19.7189 15.3434 19.2031C15.4569 19.0906 15.5853 18.9932 15.6833 18.9089C12.8675 16.0931 10.0875 13.3136 7.26612 10.4922C7.18718 10.5821 7.0859 10.7176 6.96457 10.8316C6.54498 11.2258 6.00939 11.1882 5.66544 10.7263C4.83667 9.61346 4.01526 8.49506 3.19792 7.37388C2.92352 6.99769 2.96236 6.58064 3.29107 6.24584C3.74772 5.78081 4.20869 5.3201 4.67371 4.8632C5.01461 4.52814 5.43445 4.49514 5.82257 4.77893C6.92878 5.58815 8.03321 6.40017 9.13282 7.21802C9.63211 7.58938 9.66664 8.12091 9.22928 8.5669C9.12368 8.67453 8.99474 8.75931 8.8899 8.84383C11.7186 11.6728 14.4991 14.4533 17.3256 17.2798Z" fill="#1EA3D0"/>
<path d="M11.6208 16.6357C12.3708 17.3873 13.0887 18.1042 13.8004 18.8271C13.8385 18.8657 13.8497 18.9649 13.8301 19.021C13.4859 20.0191 13.5707 20.5489 14.2373 21.4446C14.2045 21.484 14.1715 21.5302 14.1322 21.5695C11.9249 23.7779 9.72132 25.9901 7.50737 28.1918C6.30597 29.3866 4.40348 29.2295 3.46125 27.8745C2.78224 26.8983 2.86017 25.543 3.64706 24.6526C3.70874 24.5828 3.77296 24.5155 3.8387 24.4495C6.3872 21.9005 8.93621 19.3518 11.4847 16.8023C11.5263 16.7604 11.5598 16.7104 11.6208 16.6357Z" fill="#1EA3D0"/>
</svg>
