<svg width="25" height="25" viewBox="0 0 25 25" fill="none" xmlns="http://www.w3.org/2000/svg">
<path d="M6.06264 10.5471C6.06264 10.4507 6.06264 10.3536 6.06264 10.2558C6.06859 9.22681 6.03752 8.19651 6.08711 7.16953C6.23653 4.11321 8.42624 1.57902 11.4113 0.964429C15.1732 0.190204 18.7831 2.67983 19.3927 6.48045C19.4594 6.89616 19.4733 7.32251 19.4799 7.74488C19.4932 8.59094 19.4839 9.43766 19.4839 10.2837C19.4839 10.3729 19.4839 10.4613 19.4839 10.5484C19.706 10.587 19.9031 10.6063 20.0915 10.6562C21.0832 10.9169 21.7133 11.7723 21.7212 12.8811C21.7291 14.0424 21.7232 15.2044 21.7232 16.3658C21.7232 18.3984 21.7252 20.4318 21.7219 22.4645C21.7206 23.4249 21.3424 24.1799 20.4558 24.5942C20.1589 24.7326 19.8059 24.8111 19.4786 24.8117C15.0079 24.8257 10.5366 24.8257 6.06595 24.8184C4.76151 24.8164 3.83458 23.8546 3.82599 22.5117C3.81673 21.1508 3.82401 19.7899 3.82401 18.429C3.82401 16.5873 3.82004 14.7448 3.82533 12.903C3.82863 11.7856 4.43623 10.9442 5.43456 10.6629C5.62298 10.6096 5.82133 10.5904 6.06264 10.5471ZM12.7733 12.0736C10.5955 12.0736 8.41764 12.0736 6.24049 12.0736C5.55224 12.0736 5.31555 12.3084 5.31555 12.9962C5.31489 16.1323 5.31489 19.2691 5.31555 22.4053C5.31555 23.0757 5.56282 23.3225 6.22661 23.3225C10.5902 23.3225 14.9537 23.3225 19.3173 23.3225C19.9831 23.3225 20.2303 23.0764 20.231 22.4079C20.2323 19.2631 20.2323 16.1183 20.231 12.9736C20.231 12.3164 19.985 12.0736 19.3318 12.0736C17.1461 12.0736 14.9597 12.0736 12.7739 12.0736H12.7733ZM7.5727 10.5598H17.9692C17.9765 10.4966 17.9871 10.4487 17.9871 10.4001C17.9857 9.37913 18.0089 8.35814 17.9758 7.33781C17.8694 4.08328 14.8142 1.72602 11.6559 2.4437C9.21697 2.99843 7.59584 5.0178 7.56014 7.56196C7.54692 8.49117 7.55749 9.42103 7.55815 10.3502C7.55815 10.4148 7.56741 10.4799 7.5727 10.5591V10.5598Z" fill="black"/>
<path d="M12.029 19.5899C12.029 19.54 12.0237 19.4895 12.0297 19.4409C12.0925 18.9627 11.988 18.6487 11.4954 18.3747C10.6102 17.8832 10.3153 16.7198 10.6935 15.7254C11.0518 14.7823 12.0541 14.1923 13.0491 14.3393C14.1142 14.4963 14.8481 15.2239 14.9909 16.2629C15.1291 17.2686 14.62 18.1751 13.6627 18.6095C13.5424 18.664 13.5133 18.7312 13.5146 18.8523C13.5205 19.3252 13.5199 19.7981 13.5159 20.2703C13.5119 20.7739 13.2283 21.0732 12.7682 21.0698C12.308 21.0665 12.0343 20.7679 12.029 20.261C12.027 20.0369 12.029 19.8134 12.029 19.5892V19.5899ZM12.7662 17.3138C13.2157 17.3165 13.5133 17.0245 13.5159 16.5768C13.5186 16.1312 13.2197 15.8239 12.7794 15.8199C12.3371 15.8159 12.0336 16.1172 12.0303 16.5628C12.0277 17.0125 12.3199 17.3111 12.7662 17.3131V17.3138Z" fill="black"/>
</svg>
