<svg width="24" height="24" viewBox="0 0 24 24" fill="none" xmlns="http://www.w3.org/2000/svg">
<path d="M11.6338 23.1146C8.45774 23.1146 5.28169 23.1168 2.10564 23.1132C1.10944 23.1124 0.44604 22.4569 0.446778 21.4918C0.451206 16.7898 0.454895 12.0885 0.458585 7.38654C0.459323 6.11424 1.18692 5.36846 2.47239 5.32373C2.54619 5.32153 2.61998 5.323 2.69304 5.323C8.7507 5.323 14.8084 5.323 20.866 5.32227C21.3331 5.32227 21.784 5.38093 22.1943 5.62072C22.7795 5.96245 23.0946 6.45377 23.0938 7.14675C23.0894 11.9214 23.0813 16.6967 23.0997 21.4713C23.1034 22.473 22.3367 22.9988 21.6556 23.0956C21.4564 23.1242 21.252 23.1315 21.0498 23.1315C17.9106 23.1337 14.7707 23.133 11.6316 23.133C11.6316 23.1271 11.6316 23.1205 11.6316 23.1146H11.6338ZM2.31153 6.28364C2.37646 6.35917 2.39786 6.38777 2.42295 6.4127C5.22782 9.18976 8.03196 11.9661 10.8383 14.7417C11.4183 15.3159 12.1348 15.3151 12.7178 14.7417C13.2867 14.1814 13.8498 13.6153 14.4173 13.0536C16.6288 10.8646 18.8404 8.67717 21.052 6.48823C21.1073 6.43397 21.1568 6.37384 21.2402 6.28364H2.31153ZM1.88353 22.1643H21.3516C18.8913 19.7187 16.4355 17.2767 13.9649 14.8201C13.8151 14.9727 13.6498 15.1435 13.4808 15.3122C12.413 16.3748 11.1541 16.3748 10.0841 15.3144C9.85243 15.0849 9.62072 14.8568 9.42885 14.6683C6.89849 17.1821 4.3947 19.6688 1.88279 22.1643H1.88353ZM22.1212 6.85196C22.0932 6.84022 22.0659 6.82922 22.0379 6.81749C19.6145 9.27116 17.1919 11.7248 14.8069 14.1396C17.2192 16.5273 19.6949 18.9795 22.1212 21.3811V6.85196ZM1.42601 6.76836V21.1442C3.83904 18.7478 6.25871 16.3447 8.59352 14.0267C6.23141 11.6339 3.85601 9.22863 1.42675 6.76836H1.42601Z" fill="black"/>
<path d="M11.7654 2.91953C14.5172 2.91953 17.2689 2.91953 20.0206 2.91953C20.1217 2.91953 20.2243 2.9144 20.3239 2.9276C20.5519 2.9584 20.6907 3.0948 20.7195 3.31992C20.7497 3.55752 20.6442 3.73278 20.4162 3.81271C20.3151 3.84791 20.2 3.85377 20.0907 3.85377C14.5504 3.85597 9.00999 3.85597 3.46962 3.85377C3.36041 3.85377 3.24603 3.84938 3.14345 3.81638C2.91396 3.74304 2.7981 3.57072 2.82319 3.33386C2.84828 3.0992 2.98997 2.9518 3.23422 2.9254C3.33458 2.9144 3.43641 2.91807 3.53751 2.91807C6.28039 2.91807 9.02254 2.91807 11.7654 2.91807V2.91953Z" fill="black"/>
<path d="M11.7419 1.44944C9.78046 1.44944 7.81978 1.44944 5.85837 1.44944C5.76612 1.44944 5.67315 1.45531 5.58238 1.44211C5.33517 1.40618 5.17431 1.20891 5.18242 0.963255C5.19054 0.730794 5.35288 0.550399 5.59197 0.5196C5.67388 0.509334 5.75727 0.514467 5.84066 0.514467C9.79965 0.514467 13.7594 0.514467 17.7184 0.514467C17.7826 0.514467 17.8475 0.511534 17.9117 0.516667C18.1803 0.5372 18.3663 0.722728 18.3707 0.972788C18.3759 1.23238 18.184 1.42818 17.9021 1.44724C17.8195 1.45311 17.7361 1.44944 17.6534 1.44944C15.6832 1.44944 13.7129 1.44944 11.7419 1.44944Z" fill="black"/>
</svg>
