<svg width="38" height="38" viewBox="0 0 38 38" fill="none" xmlns="http://www.w3.org/2000/svg">
<path d="M3.27295 8.49382C3.42261 7.89344 3.60563 7.30934 4.00094 6.81391C4.67768 5.9646 5.54721 5.49438 6.63553 5.43825C6.75673 5.43174 6.87874 5.42849 7.00075 5.42849C12.8743 5.42768 18.7486 5.42524 24.623 5.43744C24.8898 5.43744 25.2119 5.50659 25.4063 5.66685C25.5893 5.81735 25.7292 6.13055 25.73 6.3738C25.7487 10.2705 25.7577 14.1681 25.7357 18.0648C25.7251 19.9433 24.1187 21.4556 22.1795 21.4621C19.126 21.471 16.0717 21.4645 13.0183 21.4645C12.4196 21.4645 11.8209 21.4702 11.2223 21.4629C10.6529 21.4556 10.1478 21.628 9.68821 21.9567C8.10452 23.0891 6.51921 24.2191 4.9339 25.3499C4.19697 25.8754 3.72032 25.7745 3.27295 25.0025L3.27295 8.49382ZM15.0908 12.2246C15.892 12.2246 16.6932 12.2246 17.4936 12.2246C18.4566 12.2246 19.4205 12.2319 20.3836 12.2205C20.9611 12.214 21.3596 11.7576 21.2986 11.2053C21.2441 10.7131 20.8431 10.3974 20.2559 10.3974C17.457 10.3958 14.6589 10.3974 11.86 10.3974C11.2109 10.3974 10.5618 10.3958 9.91352 10.3983C9.52959 10.3999 9.22213 10.5479 9.03749 10.8969C8.70644 11.5209 9.14892 12.2189 9.88912 12.2222C11.6233 12.2303 13.3566 12.2246 15.0908 12.2254V12.2246ZM15.0973 16.4882C16.4256 16.4882 17.7538 16.4882 19.0821 16.4882C19.5384 16.4882 19.9948 16.4988 20.4511 16.4809C20.9033 16.4638 21.258 16.1124 21.2994 15.6755C21.3434 15.2159 21.0603 14.8083 20.6097 14.7001C20.4836 14.67 20.3494 14.6619 20.2184 14.6619C16.8217 14.6603 13.4249 14.6595 10.0282 14.6619C9.88749 14.6619 9.7183 14.6432 9.61256 14.7115C9.39213 14.8531 9.13184 15.0085 9.0196 15.2265C8.70888 15.826 9.17983 16.4834 9.89644 16.4858C11.6306 16.4923 13.3639 16.4882 15.0981 16.4882H15.0973Z" fill="white"/>
<path d="M11.9805 23.2915C12.1464 23.2915 12.2676 23.2915 12.388 23.2915C15.6456 23.2915 18.9033 23.298 22.1618 23.2891C24.6971 23.2817 26.8176 21.6327 27.4098 19.2036C27.5147 18.774 27.5595 18.3217 27.5643 17.8784C27.5822 16.2139 27.5717 14.5486 27.5717 12.8834C27.5717 12.7727 27.5717 12.6629 27.5717 12.5352C27.6562 12.5262 27.7238 12.5124 27.7905 12.5124C28.8259 12.5116 29.8605 12.5026 30.896 12.514C32.923 12.536 34.4489 14.0768 34.4505 16.1008C34.4538 21.2984 34.4505 26.4968 34.4546 31.6943C34.4546 32.1157 34.3375 32.4607 33.9471 32.6551C33.5591 32.8479 33.2101 32.7389 32.8701 32.494C31.3141 31.373 29.7459 30.2707 28.1939 29.1448C27.6196 28.7282 27.0031 28.5338 26.2938 28.5362C22.7515 28.5468 19.2099 28.5419 15.6676 28.5411C13.4885 28.5411 11.9829 27.0304 11.9805 24.8445C11.9805 24.3393 11.9805 23.8333 11.9805 23.2907V23.2915Z" fill="white"/>
</svg>
