<svg width="18" height="22" viewBox="0 0 18 22" fill="none" xmlns="http://www.w3.org/2000/svg">
<path d="M16.7453 4.64015L16.0537 4.93025L16.0537 4.93025L16.7453 4.64015ZM16.1305 5.11335C16.2907 5.49532 16.7302 5.67508 17.1122 5.51486C17.4942 5.35464 17.6739 4.91511 17.5137 4.53314L16.1305 5.11335ZM13.552 0.626885C13.1674 0.47305 12.7309 0.660111 12.5771 1.0447C12.4232 1.42929 12.6103 1.86576 12.9949 2.0196L13.552 0.626885ZM13.4407 1.39013L13.1621 2.08649L13.1621 2.08649L13.4407 1.39013ZM0.850238 4.64015L1.54186 4.93025L1.54186 4.93025L0.850238 4.64015ZM0.0818172 4.53314C-0.0784038 4.91511 0.10136 5.35464 0.483332 5.51486C0.865303 5.67508 1.30484 5.49532 1.46506 5.11335L0.0818172 4.53314ZM4.60063 2.0196C4.98521 1.86576 5.17228 1.42929 5.01844 1.0447C4.86461 0.660112 4.42813 0.47305 4.04354 0.626885L4.60063 2.0196ZM4.15486 1.39013L3.87631 0.693775L3.87631 0.693775L4.15486 1.39013ZM15.013 7.79843L14.2678 7.88301L14.2678 7.88301L15.013 7.79843ZM15.4602 11.7385L16.2054 11.6539L16.2054 11.6539L15.4602 11.7385ZM2.08671 11.7385L1.3415 11.6539L1.3415 11.6539L2.08671 11.7385ZM2.5339 7.79843L3.27912 7.88301L2.5339 7.79843ZM1.22122 13.6954L0.650115 13.2092L0.650115 13.2092L1.22122 13.6954ZM16.3257 13.6954L15.7545 14.1815L15.7545 14.1815L16.3257 13.6954ZM11.0434 3.1969H10.2934C10.2934 3.51748 10.4971 3.80262 10.8004 3.90647L11.0434 3.1969ZM6.50349 3.1969L6.74644 3.90647C7.04973 3.80262 7.25349 3.51748 7.25349 3.1969H6.50349ZM12.4757 19.0864C12.6211 18.6986 12.4245 18.2663 12.0366 18.1209C11.6488 17.9756 11.2165 18.1722 11.0711 18.56L12.4757 19.0864ZM6.47574 18.56C6.33037 18.1722 5.8981 17.9756 5.51023 18.1209C5.12236 18.2663 4.92578 18.6986 5.07114 19.0864L6.47574 18.56ZM16.7453 4.64015L16.0537 4.93025L16.1305 5.11335L16.8221 4.82324L17.5137 4.53314L17.4369 4.35004L16.7453 4.64015ZM13.2734 1.32324L12.9949 2.0196L13.1621 2.08649L13.4407 1.39013L13.7192 0.693775L13.552 0.626885L13.2734 1.32324ZM16.7453 4.64015L17.4369 4.35004C16.7374 2.68251 15.3982 1.36536 13.7192 0.693775L13.4407 1.39013L13.1621 2.08649C14.468 2.60883 15.5096 3.63329 16.0537 4.93025L16.7453 4.64015ZM0.850238 4.64015L0.158618 4.35004L0.0818172 4.53314L0.773438 4.82324L1.46506 5.11335L1.54186 4.93025L0.850238 4.64015ZM4.32208 1.32324L4.04354 0.626885L3.87631 0.693775L4.15486 1.39013L4.4334 2.08649L4.60063 2.0196L4.32208 1.32324ZM0.850238 4.64015L1.54186 4.93025C2.08588 3.63329 3.12755 2.60883 4.4334 2.08649L4.15486 1.39013L3.87631 0.693775C2.19736 1.36536 0.858076 2.68251 0.158618 4.35004L0.850238 4.64015ZM14.5506 16.8232V16.0732H2.99625V16.8232V17.5732H14.5506V16.8232ZM15.013 7.79843L14.2678 7.88301L14.7149 11.8231L15.4602 11.7385L16.2054 11.6539L15.7582 7.71385L15.013 7.79843ZM2.08671 11.7385L2.83193 11.8231L3.27912 7.88301L2.5339 7.79843L1.78869 7.71385L1.3415 11.6539L2.08671 11.7385ZM1.22122 13.6954L1.79233 14.1815C2.36964 13.5033 2.73372 12.6884 2.83193 11.8231L2.08671 11.7385L1.3415 11.6539C1.27863 12.2079 1.04411 12.7464 0.650115 13.2092L1.22122 13.6954ZM15.4602 11.7385L14.7149 11.8231C14.8132 12.6884 15.1772 13.5033 15.7545 14.1815L16.3257 13.6954L16.8968 13.2092C16.5028 12.7464 16.2682 12.2079 16.2054 11.6539L15.4602 11.7385ZM2.99625 16.8232V16.0732C2.34121 16.0732 1.87786 15.7493 1.664 15.3724C1.45753 15.0086 1.46057 14.5712 1.79233 14.1815L1.22122 13.6954L0.650115 13.2092C-0.115156 14.1082 -0.138789 15.2348 0.359422 16.1128C0.850232 16.9776 1.82291 17.5732 2.99625 17.5732V16.8232ZM14.5506 16.8232V17.5732C15.724 17.5732 16.6966 16.9776 17.1875 16.1128C17.6857 15.2348 17.662 14.1082 16.8968 13.2092L16.3257 13.6954L15.7545 14.1815C16.0863 14.5712 16.0893 15.0086 15.8829 15.3724C15.669 15.7493 15.2057 16.0732 14.5506 16.0732V16.8232ZM11.0434 3.1969H11.7934V3.09319H11.0434H10.2934V3.1969H11.0434ZM15.013 7.79843L15.7582 7.71385C15.4789 5.2535 13.654 3.298 11.2863 2.48734L11.0434 3.1969L10.8004 3.90647C12.7176 4.56287 14.0647 6.09425 14.2678 7.88301L15.013 7.79843ZM6.50349 3.1969H7.25349V3.09319H6.50349H5.75349V3.1969H6.50349ZM2.5339 7.79843L3.27912 7.88301C3.48214 6.09425 4.82931 4.56287 6.74644 3.90647L6.50349 3.1969L6.26055 2.48734C3.89288 3.298 2.06793 5.2535 1.78869 7.71385L2.5339 7.79843ZM8.77344 0.823242V1.57324C9.61288 1.57324 10.2934 2.25375 10.2934 3.09319H11.0434H11.7934C11.7934 1.42532 10.4413 0.0732422 8.77344 0.0732422V0.823242ZM8.77344 0.823242V0.0732422C7.10557 0.0732422 5.75349 1.42532 5.75349 3.09319H6.50349H7.25349C7.25349 2.25375 7.93399 1.57324 8.77344 1.57324V0.823242ZM11.7734 18.8232L11.0711 18.56C10.7484 19.4211 9.85802 20.0732 8.77344 20.0732V20.8232V21.5732C10.4589 21.5732 11.9251 20.5557 12.4757 19.0864L11.7734 18.8232ZM8.77344 20.8232V20.0732C7.68886 20.0732 6.79845 19.4211 6.47574 18.56L5.77344 18.8232L5.07114 19.0864C5.62179 20.5557 7.08796 21.5732 8.77344 21.5732V20.8232Z" fill="#484848"/>
</svg>
