<svg width="31" height="32" viewBox="0 0 31 32" fill="none" xmlns="http://www.w3.org/2000/svg">
<path d="M30.9962 11.1627C30.6154 12.0957 29.9726 12.4515 29.1197 12.1936C28.5958 12.0351 28.2934 11.6737 28.2093 11.1369C28.1826 10.9687 28.1786 10.7957 28.1786 10.6243C28.1761 8.84964 28.1802 7.07501 28.1753 5.30119C28.1729 4.51857 27.8269 4.0165 27.1841 3.86531C26.9812 3.81761 26.7645 3.81438 26.5535 3.81357C24.8096 3.80952 23.0657 3.81357 21.3218 3.80872C21.1116 3.80872 20.8949 3.79821 20.6928 3.74565C20.0161 3.5694 19.6498 2.94606 19.7428 2.16667C19.8253 1.47461 20.3556 1.00083 21.0946 0.996791C22.6768 0.987089 24.2598 0.979004 25.842 1.00002C26.5333 1.00892 27.2512 0.987089 27.9102 1.16011C29.6217 1.61124 30.6162 2.77951 30.9396 4.51938C30.9501 4.57597 30.9768 4.63014 30.9962 4.68512V11.1619V11.1627Z" fill="black"/>
<path d="M3.70137 31.9858C3.47904 31.93 3.25509 31.8807 3.03518 31.8184C1.2759 31.3228 0.0445761 29.7746 0.0187045 27.9506C-0.00878415 25.9949 0.00496016 24.0391 0.0138535 22.0826C0.0170875 21.2854 0.558775 20.7462 1.33492 20.7227C2.18707 20.6968 2.73604 21.1609 2.81446 21.9775C2.8282 22.1174 2.82901 22.2596 2.82901 22.4003C2.82982 24.1038 2.82901 25.8081 2.82901 27.5116C2.82901 28.7122 3.28823 29.1666 4.49854 29.1666C6.26267 29.1666 8.02679 29.1617 9.79011 29.169C10.7918 29.173 11.3553 29.7883 11.2632 30.7666C11.2001 31.4336 10.7886 31.8014 10.1766 31.985H3.70137V31.9858Z" fill="black"/>
<path d="M20.8296 31.9861C19.899 31.6085 19.5416 30.9633 19.7979 30.1112C19.9556 29.5873 20.3162 29.2849 20.8522 29.1992C21.0204 29.1725 21.1934 29.1693 21.364 29.1693C23.1265 29.1668 24.8898 29.1709 26.6523 29.1668C27.4632 29.1652 27.9637 28.8313 28.1221 28.1805C28.1715 27.9784 28.1755 27.7609 28.1755 27.5507C28.1795 25.8076 28.1755 24.0645 28.1804 22.3214C28.1804 22.1112 28.1901 21.8945 28.2394 21.6924C28.3792 21.12 28.8676 20.7497 29.4772 20.7246C30.1814 20.6955 30.6826 20.993 30.8993 21.5679C30.9308 21.6511 30.964 21.7344 30.9971 21.8177V28.2945C30.9777 28.3495 30.9519 28.4036 30.9405 28.4602C30.6163 30.2001 29.6098 31.3296 27.9144 31.8381C27.7147 31.8979 27.5085 31.9375 27.3056 31.9869H20.8296V31.9861Z" fill="black"/>
<path d="M9.88782 6.62525C10.7844 6.62525 11.6819 6.62282 12.5785 6.62525C13.5681 6.62848 14.096 7.14915 14.0984 8.13551C14.1033 9.94976 14.1033 11.764 14.0984 13.5791C14.096 14.5484 13.5681 15.0812 12.6019 15.0845C10.778 15.0901 8.95402 15.0909 7.13006 15.0845C6.16635 15.0812 5.64406 14.5436 5.64244 13.5726C5.64002 11.7583 5.64002 9.9441 5.64244 8.12904C5.64406 7.15804 6.16796 6.63091 7.13653 6.62606C8.05336 6.62201 8.97099 6.62525 9.88782 6.62525ZM11.2574 12.2499V9.47841H8.48994V12.2499H11.2574Z" fill="black"/>
<path d="M25.3649 10.8689C25.3649 11.776 25.3673 12.6832 25.3649 13.5903C25.3609 14.5411 24.8361 15.0795 23.8886 15.0836C22.0541 15.0908 20.2205 15.0908 18.386 15.0836C17.4393 15.0795 16.9113 14.5419 16.9089 13.5903C16.9041 11.7655 16.9041 9.94157 16.9089 8.11681C16.9113 7.15148 17.4441 6.62758 18.4167 6.62596C20.231 6.62273 22.0444 6.62273 23.8587 6.62596C24.8434 6.62758 25.3625 7.15552 25.3649 8.14754C25.3673 9.05466 25.3649 9.96179 25.3649 10.8689ZM19.7435 12.2409H22.5239V9.47669H19.7435V12.2409Z" fill="black"/>
<path d="M9.85762 26.3539C8.961 26.3539 8.06358 26.3563 7.16697 26.3539C6.1604 26.3506 5.64296 25.83 5.64216 24.8202C5.64054 23.0156 5.63973 21.2119 5.64216 19.4073C5.64377 18.4218 6.16686 17.8971 7.15888 17.8946C8.96262 17.8906 10.7664 17.8906 12.5709 17.8946C13.5759 17.8963 14.0965 18.4202 14.0981 19.4291C14.1014 21.2232 14.1014 23.0172 14.0981 24.8121C14.0965 25.8364 13.5767 26.3514 12.5475 26.3539C11.6508 26.3563 10.7534 26.3539 9.85681 26.3539H9.85762ZM11.2515 23.5104V20.7389H8.48319V23.5104H11.2515Z" fill="black"/>
<path d="M6.94195 0.993959C7.90001 0.993959 8.85807 0.990725 9.81532 0.994767C10.8922 0.999618 11.522 1.855 11.2043 2.88259C11.0467 3.39275 10.6909 3.69027 10.1678 3.7784C9.99966 3.80669 9.82664 3.81073 9.65605 3.81073C7.92184 3.81316 6.18763 3.80831 4.45342 3.81559C4.20441 3.81639 3.94408 3.83176 3.70881 3.90452C3.21078 4.05813 2.93427 4.42842 2.85504 4.93939C2.82917 5.10755 2.82998 5.28138 2.82998 5.45197C2.82836 7.2169 2.8324 8.98183 2.82755 10.7468C2.82513 11.5738 2.4605 12.0719 1.76843 12.2279C0.801478 12.4454 0.015626 11.8358 0.012392 10.847C0.00592412 8.9406 -0.00135228 7.03499 0.014009 5.12857C0.0342212 2.81872 1.84362 1.02145 4.15913 0.996384C5.08647 0.985874 6.01462 0.994767 6.94195 0.993959Z" fill="black"/>
<path d="M21.8433 26.3536C21.148 26.3536 20.4519 26.3608 19.7566 26.3519C18.6781 26.3382 18.049 25.4286 18.4088 24.4091C18.5738 23.941 18.9101 23.6637 19.3936 23.5724C19.5609 23.5408 19.7339 23.5295 19.9045 23.5295C21.1949 23.5263 22.4844 23.5238 23.7748 23.5311C23.9939 23.5319 24.2219 23.5505 24.4313 23.6095C25.0716 23.7915 25.4394 24.4099 25.3554 25.1222C25.2697 25.8531 24.7692 26.3293 24.0197 26.3479C23.2945 26.3665 22.5685 26.3519 21.8425 26.3519V26.3544L21.8433 26.3536Z" fill="black"/>
<path d="M19.7537 20.0159C19.7318 20.3668 19.7415 20.7233 19.6809 21.0677C19.5612 21.7452 19.0171 22.1349 18.2717 22.1212C17.5756 22.1091 17.0266 21.6967 16.9579 21.0314C16.8932 20.404 16.8859 19.7628 16.9312 19.133C16.9878 18.3431 17.5837 17.8669 18.3687 17.8968C19.161 17.9268 19.6825 18.4329 19.727 19.2292C19.7415 19.4904 19.7294 19.7531 19.7294 20.0151C19.7375 20.0151 19.7456 20.0151 19.7537 20.0159Z" fill="black"/>
<path d="M23.25 20.7411C22.8894 20.7176 22.5223 20.7273 22.169 20.6634C21.5255 20.5462 21.1309 19.9981 21.1358 19.2939C21.1406 18.5937 21.5465 18.0205 22.1949 17.951C22.8417 17.8822 23.5039 17.8725 24.1523 17.9227C24.9389 17.9841 25.3957 18.5816 25.3626 19.3796C25.331 20.1476 24.8176 20.6699 24.0375 20.7136C23.7763 20.7281 23.5136 20.716 23.2524 20.716L23.2508 20.7403L23.25 20.7411Z" fill="black"/>
</svg>
