<svg width="33" height="32" viewBox="0 0 33 32" fill="none" xmlns="http://www.w3.org/2000/svg">
<path d="M8.18849 23.7282C7.72867 24.2833 7.27597 24.8474 6.85357 25.432C6.66019 25.6994 6.44364 25.7555 6.1665 25.6575C5.89381 25.5604 5.77618 25.3438 5.77885 24.9989C5.80024 24.9276 5.82697 24.7966 5.87599 24.6746C6.15759 23.9804 6.61029 23.4082 7.17349 22.9244C7.50499 22.6383 7.96125 22.6936 8.1983 23.0331C8.35692 23.2603 8.39346 23.4804 8.18849 23.7282Z" fill="#4AB255"/>
<path d="M10.9521 24.8875C10.3515 25.6423 9.73127 26.3829 9.08787 27.1011C8.91232 27.2963 8.64408 27.4282 8.39367 27.5315C8.10316 27.6527 7.79839 27.6376 7.58006 27.3578C7.39649 27.1243 7.4054 26.7384 7.61571 26.4577C8.09603 25.8197 8.58527 25.1887 9.07896 24.5614C9.33293 24.2397 9.59493 23.9215 9.87386 23.6212C10.1243 23.3512 10.5271 23.287 10.8577 23.4287C11.1518 23.5544 11.2524 23.7977 11.2667 24.2245C11.1963 24.3787 11.1232 24.6719 10.9521 24.8875Z" fill="#4AB255"/>
<path d="M12.8717 27.3631C12.346 28.0199 11.8033 28.6633 11.257 29.3031C11.0262 29.5731 10.7268 29.7362 10.5013 29.7416C9.82582 29.7451 9.51837 29.3423 9.71086 28.8183C9.85077 28.4378 10.0308 28.052 10.2794 27.7365C10.7018 27.1991 11.1697 26.6921 11.6616 26.2153C12.0973 25.7938 12.6338 25.7626 12.9502 26.062C13.2585 26.3534 13.2407 26.9033 12.8717 27.3631Z" fill="#4AB255"/>
<path d="M14.8478 29.1258C14.4975 29.6498 14.1393 30.1711 13.749 30.6648C13.6109 30.8395 13.3676 30.9313 13.2651 30.9999C12.7001 30.9945 12.3891 30.6283 12.5147 30.2175C12.6101 29.9038 12.7429 29.5901 12.9211 29.3156C13.1546 28.9556 13.4389 28.625 13.7196 28.2971C14.011 27.9584 14.412 27.9094 14.723 28.1482C15.0278 28.3817 15.0919 28.7605 14.8478 29.1258Z" fill="#4AB255"/>
<path d="M15.6432 1.11908C13.0224 1.63416 10.9567 3.87359 10.6769 6.50335C10.381 9.27479 11.9067 11.9108 14.4206 12.9543C14.5516 13.0087 14.7209 13.0176 14.8635 12.9926C15.4971 12.883 16.1235 12.7253 16.7598 12.6371C17.7846 12.4954 18.8094 12.1826 19.8512 12.5782C19.9536 12.6175 20.1319 12.5373 20.2424 12.4633C22.1013 11.2282 23.0299 9.47797 23.0958 7.73134C23.1582 3.34337 19.5286 0.355375 15.6432 1.11908ZM18.8522 10.3094C18.485 10.6632 18.0217 10.8102 17.4923 10.8637V11.5721H16.2661C16.2661 11.3779 16.2536 11.1818 16.2688 10.9867C16.2848 10.771 16.2251 10.6659 15.9854 10.6498C15.6878 10.6311 15.3937 10.5661 15.0452 10.5126C15.0996 10.1169 15.1531 9.73016 15.2101 9.31044C15.8098 9.39598 16.3775 9.47797 16.946 9.55817C17.1002 9.58045 17.2544 9.60629 17.4094 9.61253C17.8693 9.63303 18.2239 9.34965 18.2863 8.9219C18.3523 8.46653 18.1036 8.0771 17.6402 7.98353C17.1073 7.87659 16.5673 7.80441 16.03 7.72064C15.0149 7.56291 14.2842 6.78851 14.2156 5.79489C14.1497 4.84583 14.7886 3.9529 15.727 3.69269C15.8963 3.64546 16.0727 3.62229 16.2643 3.58397V2.8871H17.4691V3.75953C17.8817 3.82369 18.2614 3.8825 18.6962 3.95112C18.6437 4.34411 18.592 4.73087 18.5349 5.15238C17.8987 5.06059 17.2972 4.97415 16.6956 4.88949C16.5744 4.87256 16.4532 4.85296 16.3312 4.84939C15.8678 4.83424 15.5193 5.11406 15.4578 5.5427C15.3928 5.9954 15.6414 6.38572 16.1066 6.48107C16.6279 6.58889 17.1581 6.65128 17.6839 6.73593C18.5644 6.87673 19.1819 7.35171 19.4395 8.21344C19.681 9.01992 19.4564 9.72838 18.8522 10.3094Z" fill="#4AB255"/>
<path d="M26.5669 24.7183C26.3219 25.0659 25.8905 25.1381 25.4396 24.8948C23.9933 24.115 22.5497 23.3299 21.1051 22.5475C20.9501 22.4629 20.7932 22.3818 20.5963 22.2775C20.4002 22.6393 20.2211 22.9699 20.0233 23.3344C20.1302 23.3995 20.2274 23.4645 20.3298 23.5198C21.335 24.0651 22.3474 24.5971 23.3446 25.1568C23.7188 25.368 24.0717 25.6246 24.4095 25.8929C24.782 26.1887 24.839 26.6058 24.6011 26.956C24.3694 27.2955 23.9488 27.3873 23.5344 27.1654C22.105 26.4008 20.6792 25.6291 19.2524 24.8609C19.1446 24.803 19.0368 24.7486 18.9004 24.6773C18.7115 25.024 18.5271 25.3617 18.3239 25.7342C18.4308 25.7966 18.5288 25.8599 18.6322 25.916C19.6775 26.4792 20.7291 27.0326 21.7664 27.611C22.0426 27.7643 22.2939 27.9763 22.5247 28.1947C22.7983 28.454 22.8206 28.798 22.6299 29.0698C22.4401 29.3389 22.1103 29.4244 21.7664 29.2667C20.8075 28.8283 19.8531 28.38 18.8969 27.9362C18.3667 27.6894 17.8346 27.4443 17.2786 27.1868C17.1066 27.5584 16.9444 27.9068 16.7662 28.2909C17.9897 28.8612 19.191 29.4209 20.3869 29.9787C20.214 30.6248 19.7194 31.0027 19.191 30.8298C18.1189 30.4769 17.062 30.075 15.9713 29.6829C16.2716 29.0136 16.3188 28.3889 15.9837 27.7803C15.6496 27.1725 15.1131 26.8526 14.4109 26.7697C14.3877 26.2074 14.2737 25.6826 13.8807 25.2619C13.4957 24.8502 13.0082 24.6667 12.4272 24.6488C12.5644 23.7702 12.4326 22.9833 11.6412 22.4718C10.8864 21.9834 10.1067 22.0414 9.31713 22.4807C8.88404 21.8319 8.28876 21.4906 7.49654 21.5289C6.69362 21.5673 6.2133 22.1224 5.68842 22.675C5.33552 22.1599 4.99154 21.6697 4.66539 21.1698C4.61727 21.0967 4.60835 20.9461 4.65202 20.874C6.04576 18.5383 7.44752 16.208 8.84572 13.8821C9.78766 14.2287 10.7109 14.5683 11.6599 14.9167C11.6261 14.9862 11.5895 15.0735 11.5432 15.1555C11.1083 15.9299 10.6699 16.7025 10.2368 17.4778C9.5524 18.704 10.1771 19.9935 11.5628 20.1905C12.5751 20.3339 13.4547 20.0479 14.1623 19.2949C14.5659 18.8653 14.9474 18.4144 15.3608 17.9965C15.5168 17.8387 15.7235 17.7131 15.9294 17.6293C16.2359 17.5046 16.5648 17.4324 16.882 17.3317C17.2902 17.2016 17.6707 17.2604 18.0307 17.485C19.3986 18.3342 20.7781 19.1665 22.129 20.0434C22.6192 20.3616 23.0425 20.784 23.4934 21.1627C24.446 21.9638 25.3977 22.7659 26.3459 23.5732C26.7496 23.9172 26.8262 24.3512 26.5669 24.7183Z" fill="#4AB255"/>
<path d="M25.153 14.3033C26.4469 16.4554 27.7266 18.5835 29.041 20.7695C28.4083 21.3852 27.7756 22.001 27.1295 22.6293C26.3052 21.9351 25.4961 21.3077 24.7502 20.6126C22.8859 18.8776 20.6411 17.7084 18.5158 16.3628C17.9677 16.0161 17.3457 15.9707 16.7139 16.1195C16.6275 16.1391 16.5437 16.1721 16.4564 16.1863C15.3371 16.3699 14.4736 16.9465 13.8132 17.8617C13.6332 18.1121 13.4051 18.3322 13.1805 18.5461C12.7243 18.9774 12.1824 19.1084 11.5791 18.9355C11.2031 18.8277 11.0596 18.5238 11.245 18.1869C11.8616 17.0703 12.4926 15.96 13.1262 14.8532C13.1743 14.7685 13.2857 14.6981 13.3819 14.6687C15.1143 14.1305 16.8877 13.7883 18.6922 13.6056C18.809 13.5931 18.9346 13.6181 19.0505 13.6484C20.4041 13.9968 21.7586 14.3417 23.1069 14.707C23.5008 14.814 23.8653 14.8157 24.2396 14.6509C24.5229 14.527 24.8179 14.4299 25.153 14.3033Z" fill="#4AB255"/>
<path d="M1.71757 19.6503C2.25314 20.0219 2.77089 20.3819 3.30736 20.7544C4.99963 17.9384 6.68032 15.142 8.38329 12.3099C5.85958 10.8048 3.37152 9.32196 0.864746 7.82751L1.71757 19.6503Z" fill="#4AB255"/>
<path d="M30.4526 20.7454L32.0424 19.6422L32.8953 7.83728C31.6263 8.59386 30.3778 9.33707 29.1293 10.0812C27.8897 10.8199 26.651 11.5596 25.3767 12.3197L30.4526 20.7454Z" fill="#4AB255"/>
</svg>
