<svg width="33" height="32" viewBox="0 0 33 32" fill="none" xmlns="http://www.w3.org/2000/svg">
<path d="M32.1772 10.9069C31.1183 11.9805 30.0652 13.0598 28.9908 14.1178C28.8822 14.2245 28.6046 14.2746 28.4748 14.2097C28.3287 14.1367 28.1842 13.9093 28.1727 13.7402C28.1352 13.1805 28.1589 12.6174 28.1589 11.969C27.3008 12.0084 26.4591 12.0059 25.6305 12.1093C25.3635 12.143 25.0974 12.427 24.8908 12.6519C24.5684 13.0048 24.2949 13.4029 24.0059 13.7854C23.8491 13.993 23.6532 14.1079 23.3985 14.0168C23.1274 13.92 23.0392 13.6918 23.0784 13.4234C23.1682 12.8078 23.2164 12.1791 23.3813 11.584C23.7381 10.2946 24.579 9.61829 25.9064 9.50092C26.5032 9.44839 27.1049 9.45249 27.7041 9.43279C27.8437 9.42787 27.9842 9.43197 28.1572 9.43197C28.1572 8.86481 28.158 8.32556 28.1572 7.78713C28.1564 7.53351 28.225 7.31765 28.4838 7.21998C28.7132 7.13379 28.8977 7.22572 29.0602 7.38988C30.0986 8.43965 31.1379 9.4886 32.1764 10.5384C32.1772 10.6615 32.1772 10.7838 32.1772 10.9069Z" fill="url(#paint0_linear_4902_883)"/>
<path d="M7.03121 16.5326C10.0609 17.4305 13.0489 18.317 16.032 19.2009C16.032 22.8091 16.032 26.3901 16.032 29.9999C15.107 29.7274 14.2016 29.4607 13.2962 29.1923C11.5214 28.667 9.74736 28.14 7.97251 27.6147C7.25653 27.403 7.00917 27.0763 7.00835 26.3269C7.00753 23.194 7.00753 20.0611 7.00917 16.9282C7.00917 16.81 7.02141 16.6926 7.03121 16.5326Z" fill="url(#paint1_linear_4902_883)"/>
<path d="M17.0356 29.9876C17.0356 26.3926 17.0356 22.8124 17.0356 19.2059C20.0196 18.3211 23.0076 17.4347 26.0364 16.5367C26.0454 16.6935 26.0576 16.8109 26.0576 16.9291C26.0585 20.0727 26.0593 23.2154 26.0576 26.359C26.0576 27.055 25.8037 27.4088 25.1547 27.6016C22.5324 28.3814 19.9094 29.157 17.2863 29.9335C17.2104 29.9556 17.1303 29.9671 17.0356 29.9876Z" fill="url(#paint2_linear_4902_883)"/>
<path d="M7.79614 15.724C9.24361 15.1708 10.629 14.6414 12.0153 14.1128C13.355 13.6023 14.6955 13.0951 16.0344 12.5821C16.3528 12.4598 16.6622 12.4417 16.9847 12.5648C19.6919 13.5966 22.4007 14.625 25.1095 15.6559C25.1462 15.6698 25.1797 15.6936 25.2613 15.7396C24.6825 15.9136 24.1461 16.0778 23.6081 16.237C21.3663 16.901 19.1236 17.5593 16.8843 18.2315C16.6377 18.3054 16.4206 18.298 16.1773 18.2257C13.4595 17.4148 10.7393 16.6129 8.02065 15.8077C7.96105 15.7897 7.90554 15.7651 7.79614 15.724Z" fill="url(#paint3_linear_4902_883)"/>
<path d="M4.91023 12.0069C4.91023 12.5667 4.90696 13.0871 4.91104 13.6066C4.91349 13.8783 4.87186 14.1212 4.58367 14.2361C4.30364 14.3478 4.1224 14.1861 3.9428 14.0055C3.00802 13.0633 2.0708 12.1235 1.13603 11.182C0.796404 10.8398 0.797221 10.6182 1.14174 10.271C2.08468 9.32133 3.03006 8.37579 3.97055 7.42533C4.14771 7.2464 4.3363 7.12082 4.59265 7.22342C4.86287 7.33176 4.91349 7.56486 4.91186 7.82751C4.90778 8.34871 4.91104 8.86908 4.91104 9.42967C5.18943 9.42967 5.45068 9.41736 5.71029 9.43213C6.30871 9.46496 6.91203 9.47153 7.5031 9.56017C8.5489 9.71858 9.29509 10.321 9.60042 11.3363C9.81024 12.0332 9.87473 12.7752 9.98821 13.4999C10.0249 13.7355 9.90657 13.9242 9.68124 14.0112C9.44204 14.104 9.24284 14.0178 9.08936 13.82C8.80199 13.449 8.50482 13.0838 8.23214 12.7013C7.90395 12.2417 7.47044 12.0077 6.9104 12.0069C6.25973 12.0061 5.60988 12.0069 4.91023 12.0069Z" fill="url(#paint4_linear_4902_883)"/>
<path d="M17.8152 6.0455C17.8152 7.19294 17.8152 8.29689 17.8152 9.40083C17.8152 9.99261 17.6837 10.1272 17.1033 10.1289C16.7065 10.1297 16.3089 10.1313 15.9122 10.1289C15.4068 10.1256 15.2533 9.97209 15.2533 9.4706C15.2525 8.34531 15.2533 7.22003 15.2533 6.04632C14.7766 6.04632 14.3128 6.04796 13.8499 6.0455C13.5479 6.04468 13.214 6.10295 13.0564 5.74181C12.8956 5.37328 13.1764 5.17711 13.3895 4.96289C14.281 4.06414 15.1741 3.16703 16.0681 2.26992C16.4249 1.91206 16.6437 1.9096 16.998 2.26418C17.936 3.20315 18.87 4.14622 19.808 5.08519C19.9909 5.26822 20.1354 5.46028 20.0186 5.73442C19.9043 6.00364 19.6725 6.0496 19.4121 6.04714C18.892 6.04221 18.3736 6.0455 17.8152 6.0455Z" fill="url(#paint5_linear_4902_883)"/>
<defs>
<linearGradient id="paint0_linear_4902_883" x1="28.1406" y1="14.2091" x2="28.1226" y2="6.85038" gradientUnits="userSpaceOnUse">
<stop stop-color="#4AB255"/>
<stop offset="0.853165" stop-color="#1EA3D0"/>
</linearGradient>
<linearGradient id="paint1_linear_4902_883" x1="12.0324" y1="29.9435" x2="11.9661" y2="15.8899" gradientUnits="userSpaceOnUse">
<stop stop-color="#4AB255"/>
<stop offset="0.853165" stop-color="#1EA3D0"/>
</linearGradient>
<linearGradient id="paint2_linear_4902_883" x1="22.0595" y1="29.9313" x2="21.9934" y2="15.8949" gradientUnits="userSpaceOnUse">
<stop stop-color="#4AB255"/>
<stop offset="0.853165" stop-color="#1EA3D0"/>
</linearGradient>
<linearGradient id="paint3_linear_4902_883" x1="17.5206" y1="18.2592" x2="17.5142" y2="12.2039" gradientUnits="userSpaceOnUse">
<stop stop-color="#4AB255"/>
<stop offset="0.853165" stop-color="#1EA3D0"/>
</linearGradient>
<linearGradient id="paint4_linear_4902_883" x1="5.95608" y1="14.2432" x2="5.93789" y2="6.84824" gradientUnits="userSpaceOnUse">
<stop stop-color="#4AB255"/>
<stop offset="0.853165" stop-color="#1EA3D0"/>
</linearGradient>
<linearGradient id="paint5_linear_4902_883" x1="16.9352" y1="10.0961" x2="16.9043" y2="1.61182" gradientUnits="userSpaceOnUse">
<stop stop-color="#4AB255"/>
<stop offset="0.853165" stop-color="#1EA3D0"/>
</linearGradient>
</defs>
</svg>
