<svg width="26" height="24" viewBox="0 0 26 24" fill="none" xmlns="http://www.w3.org/2000/svg">
<path fill-rule="evenodd" clip-rule="evenodd" d="M6.76847 16.4645C5.25816 17.1815 4.68733 18.0043 4.68733 18.6438C4.68733 19.2833 5.25816 20.1062 6.76847 20.8232C8.2217 21.513 10.2961 21.9659 12.6395 21.9659C14.983 21.9659 17.0573 21.513 18.5106 20.8232C20.0209 20.1062 20.5917 19.2833 20.5917 18.6438C20.5917 18.0043 20.0209 17.1815 18.5106 16.4645C17.0573 15.7746 14.983 15.3218 12.6395 15.3218C10.2961 15.3218 8.2217 15.7746 6.76847 16.4645ZM5.91495 14.8438C7.68522 14.0034 10.0641 13.5098 12.6395 13.5098C15.215 13.5098 17.5938 14.0034 19.3641 14.8438C21.0773 15.6571 22.5002 16.9482 22.5002 18.6438C22.5002 20.3394 21.0773 21.6306 19.3641 22.4439C17.5938 23.2843 15.215 23.7779 12.6395 23.7779C10.0641 23.7779 7.68522 23.2843 5.91495 22.4439C4.20176 21.6306 2.77881 20.3394 2.77881 18.6438C2.77881 16.9482 4.20176 15.6571 5.91495 14.8438Z" fill="#858EA9"/>
<path fill-rule="evenodd" clip-rule="evenodd" d="M12.6394 2.03371C10.3556 2.03371 8.50423 3.79146 8.50423 5.95977C8.50423 8.12807 10.3556 9.88583 12.6394 9.88583C14.9231 9.88583 16.7745 8.12807 16.7745 5.95977C16.7745 3.79146 14.9231 2.03371 12.6394 2.03371ZM6.5957 5.95977C6.5957 2.79071 9.30154 0.22168 12.6394 0.22168C15.9772 0.22168 18.683 2.79071 18.683 5.95977C18.683 9.12882 15.9772 11.6979 12.6394 11.6979C9.30154 11.6979 6.5957 9.12882 6.5957 5.95977Z" fill="#858EA9"/>
</svg>
