<svg width="35" height="35" viewBox="0 0 35 35" fill="none" xmlns="http://www.w3.org/2000/svg">
<path d="M28.3506 28.8602C28.0172 29.4784 27.6762 30.0922 27.3538 30.7169C27.0543 31.2959 26.8466 31.9207 26.3373 32.3829C25.8181 32.8529 25.2071 32.9564 24.5524 32.9434C24.477 32.9423 24.4027 32.854 24.3272 32.8093C24.266 32.7733 24.1753 32.6948 24.1436 32.7133C23.5829 33.0328 23.0255 32.7133 22.4735 32.6915C21.5412 32.6533 20.7968 33.024 20.0787 33.5507C19.5235 33.9573 18.9464 34.3357 18.3616 34.6988C17.5703 35.1894 16.5057 34.8056 15.7941 34.1482C15.3307 33.7208 14.759 33.4078 14.2289 33.0557C13.56 32.6108 12.8299 32.6435 12.0735 32.7667C11.6986 32.8278 11.3051 32.7776 10.8319 32.7776C10.4132 33.0884 9.69294 33.0524 9.1213 32.6239C9.06227 32.553 9.00435 32.4822 8.94532 32.4113C8.33652 32.2238 8.20973 31.6437 7.96817 31.1738C7.68399 30.6199 7.47523 30.0279 7.20088 29.4685C6.84456 28.7424 6.18766 28.3466 5.47721 28.0468C5.01486 27.8516 4.51317 27.748 4.06067 27.5354C3.77648 27.4013 3.54586 27.1473 3.29993 26.9358C2.53701 26.2794 2.47253 25.4224 2.61352 24.5076C2.6321 24.3888 2.67801 24.2503 2.63648 24.1511C2.52499 23.8829 2.40148 23.6354 2.71299 23.4173C2.72829 23.4064 2.73594 23.3574 2.7261 23.341C2.42225 22.8613 2.97203 22.3532 2.65943 21.8604C2.37197 21.4057 2.15555 20.9042 1.86809 20.4495C1.63309 20.0777 1.32596 19.7528 1.07347 19.3919C0.277764 18.2536 0.312741 17.341 1.14889 16.2496C1.57735 15.6892 1.98832 15.1146 2.37743 14.5258C2.53483 14.2892 2.61352 14.0003 2.7272 13.7354C2.74906 13.7081 2.77201 13.6819 2.79387 13.6547C2.71845 12.9275 2.62555 12.2024 2.57418 11.4741C2.54029 11.0009 2.5239 10.5179 2.57527 10.0479C2.6649 9.23675 3.27589 8.8377 3.93279 8.50515C4.66182 8.13554 5.40616 7.79536 6.12864 7.41375C6.88719 7.01361 7.13858 6.22859 7.48944 5.52534C7.7605 4.98127 7.99878 4.41758 8.30373 3.89314C8.65568 3.28693 9.19016 2.89551 9.92357 2.95002C10.9215 3.02526 11.915 3.20625 12.9129 3.22914C13.3163 3.23787 13.7622 3.00563 14.1251 2.78103C14.8038 2.36017 15.4301 1.85426 16.0914 1.40397C17.1593 0.676729 18.0938 0.813017 19.1081 1.52935C19.7606 1.98946 20.3979 2.47465 21.0712 2.90314C21.575 3.22369 22.1554 3.2346 22.7435 3.17027C23.1719 3.12229 23.608 3.14083 24.0376 3.10049C24.3491 3.07214 24.6562 2.96638 24.9677 2.94893C25.8432 2.89987 26.4597 3.34472 26.8499 4.08068C27.1723 4.68907 27.4183 5.33889 27.6981 5.97018C27.7188 5.99962 27.7407 6.03015 27.7615 6.05959C27.9823 6.38341 28.203 6.70832 28.4249 7.03215C28.4501 7.06158 28.4741 7.08993 28.4992 7.11937C29.1157 7.44537 29.7376 7.75938 30.3453 8.10065C30.8995 8.41139 31.4536 8.72649 31.975 9.08629C32.4078 9.38612 32.4942 9.88549 32.5051 10.3761C32.5226 11.1808 32.4363 11.9734 32.2843 12.7694C32.1488 13.4813 32.3663 14.1715 32.7817 14.7755C33.315 15.5529 33.8878 16.3063 34.3829 17.1077C34.5272 17.3421 34.5031 17.7041 34.4944 18.0061C34.4704 18.8609 33.926 19.4726 33.4549 20.117C32.9718 20.7777 32.4078 21.4013 32.3018 22.2594C32.2701 22.5167 32.3248 22.7849 32.3423 23.0477C32.3608 23.3323 32.3893 23.6169 32.3991 23.9025C32.421 24.5294 32.4647 25.1575 32.4439 25.7833C32.4177 26.5563 31.8493 26.9608 31.2514 27.2825C30.694 27.5823 30.0841 27.784 29.5201 28.0751C29.1321 28.2757 28.7834 28.5538 28.4173 28.798L28.3517 28.8667L28.3506 28.8602ZM19.4163 28.7827C19.8415 28.7162 20.2831 28.7031 20.6886 28.5767C23.0222 27.8473 24.9787 26.5531 26.4367 24.5741C27.8052 22.7163 28.5878 20.6381 28.6566 18.3125C28.6566 18.258 28.6566 18.2035 28.6566 18.1489V17.6583C28.6566 17.6038 28.6566 17.5493 28.6566 17.4948C28.6085 16.2671 28.3878 15.0775 27.9276 13.9305C27.1505 11.9963 25.982 10.3663 24.3185 9.09392C23.0123 8.0952 21.5772 7.38759 19.9475 7.11828C19.1486 6.98635 18.3452 6.82935 17.5396 6.80318C16.8991 6.78246 16.2532 6.93947 15.6105 7.02233C13.7163 7.26656 12.0517 8.03196 10.5816 9.23893C10.4701 9.34578 10.3586 9.45372 10.2482 9.56057C9.84705 9.9509 9.41532 10.3151 9.04807 10.7348C7.47851 12.5338 6.64782 14.6665 6.42703 17.015C6.28275 18.5502 6.51119 20.0668 7.02928 21.5333C7.68508 23.3922 8.71798 24.9863 10.2285 26.2685C11.8003 27.603 13.5491 28.4916 15.6214 28.8165C16.8751 29.0128 18.0938 29.0422 19.3344 28.8612C19.3617 28.8351 19.389 28.8089 19.4153 28.7827H19.4163Z" fill="#109138"/>
<path d="M28.6592 17.6583C28.6592 17.8218 28.6592 17.9854 28.6592 18.1489C28.6177 18.1827 28.5762 18.2154 28.5346 18.2492C28.5762 18.2699 28.6166 18.2917 28.6581 18.3124C28.5893 20.637 27.8056 22.7162 26.4382 24.5741C24.9802 26.553 23.0226 27.8472 20.6901 28.5766C20.2846 28.7031 19.843 28.7173 19.4178 28.7827C19.3905 28.8089 19.3632 28.835 19.337 28.8612C18.0964 29.0433 16.8777 29.0127 15.624 28.8165C13.5517 28.4927 11.8018 27.603 10.2311 26.2684C8.72056 24.9862 7.68767 23.3922 7.03186 21.5332C6.51487 20.0668 6.28534 18.5501 6.42961 17.015C6.6504 14.6654 7.48109 12.5338 9.05065 10.7348C9.4179 10.3139 9.84854 9.95086 10.2508 9.56053C10.4869 9.58233 10.5983 9.47657 10.5841 9.23889C12.0542 8.033 13.7189 7.26652 15.6131 7.02229C16.2558 6.93942 16.9028 6.78242 17.5422 6.80313C18.3478 6.8293 19.1511 6.98522 19.9501 7.11823C21.5798 7.38863 23.0149 8.09515 24.3211 9.09388C25.9846 10.3663 27.1541 11.9963 27.9302 13.9305C28.3903 15.0775 28.6111 16.267 28.6592 17.4947C28.6177 17.5154 28.5772 17.5372 28.5357 17.558C28.5772 17.5918 28.6188 17.6245 28.6603 17.6583H28.6592ZM16.3902 18.6712C15.6229 17.933 14.9092 17.2461 14.1954 16.5581C14.1167 16.4829 14.0435 16.4 13.9583 16.3335C13.5571 16.0173 12.9122 16.0195 12.627 16.3379C12.2717 16.7337 12.3144 17.4315 12.6751 17.7684C13.5604 18.5959 14.3987 19.4736 15.2611 20.3262C15.4437 20.5072 15.6437 20.6719 15.8459 20.83C16.1891 21.0993 16.7105 21.0633 17.0252 20.7526C18.797 19.0081 20.5589 17.2527 22.3438 15.5202C22.9286 14.9521 22.6488 14.0853 21.9951 13.8771C21.4825 13.7135 21.135 13.9436 20.8114 14.2652C19.3424 15.7219 17.88 17.1851 16.3913 18.6701L16.3902 18.6712Z" fill="#20BF55"/>
<path d="M10.5819 9.23877C10.5961 9.47537 10.4846 9.58222 10.2485 9.56041C10.36 9.45356 10.4715 9.34562 10.5819 9.23877Z" fill="#20BE55"/>
<path d="M28.6593 17.6587C28.6177 17.6249 28.5762 17.5922 28.5347 17.5584C28.5762 17.5376 28.6177 17.5158 28.6582 17.4951C28.6582 17.5496 28.6582 17.6041 28.6582 17.6587H28.6593Z" fill="#1FBD54"/>
<path d="M28.6582 18.312C28.6166 18.2913 28.5762 18.2695 28.5347 18.2487C28.5762 18.2149 28.6177 18.1822 28.6593 18.1484C28.6593 18.203 28.6593 18.2575 28.6593 18.312H28.6582Z" fill="#1FBD54"/>
<path d="M19.3354 28.8607C19.3624 28.8349 19.3894 28.809 19.4153 28.7832C19.3883 28.809 19.3613 28.8349 19.3354 28.8607Z" fill="#109238"/>
<path d="M16.3897 18.6727C17.8795 17.1877 19.3408 15.7234 20.8098 14.2678C21.1334 13.9473 21.4809 13.7172 21.9936 13.8797C22.6472 14.0879 22.927 14.9558 22.3422 15.5228C20.5584 17.2553 18.7965 19.0096 17.0236 20.7552C16.7089 21.0659 16.1875 21.1008 15.8443 20.8326C15.6421 20.6745 15.4421 20.5087 15.2595 20.3288C14.3971 19.4762 13.5599 18.5985 12.6735 17.771C12.3128 17.4341 12.2702 16.7363 12.6254 16.3405C12.9107 16.0221 13.5555 16.0199 13.9567 16.3361C14.0419 16.4037 14.1152 16.4855 14.1938 16.5607C14.9076 17.2476 15.6224 17.9356 16.3886 18.6738L16.3897 18.6727Z" fill="#ECEBEA"/>
</svg>
