<svg width="201" height="184" viewBox="0 0 201 184" fill="none" xmlns="http://www.w3.org/2000/svg">
<path d="M7.71631 40.8245V87.7084C7.71631 89.2628 8.97713 90.5236 10.5315 90.5236H57.4154C58.9698 90.5236 60.2306 89.2628 60.2306 87.7084V40.8245C60.2306 39.2701 58.9698 38.0093 57.4154 38.0093H10.5315C8.97713 38.0093 7.71631 39.2701 7.71631 40.8245Z" fill="#29333A"/>
<path d="M42.0317 45.5608V55.9676H52.4385V45.5608H42.0317ZM50.9576 54.4866H43.5194V47.0484H50.9509V54.4866H50.9576Z" fill="white"/>
<path d="M30.1444 48.5359H28.6567V50.0235H30.1444V48.5359Z" fill="white"/>
<path d="M46.495 48.5359H45.0073V50.0235V51.5112V52.9988H46.495H47.9826H49.4702V51.5112V50.0235V48.5359H47.9826H46.495Z" fill="white"/>
<path d="M21.2181 52.9988H22.7058V51.5112V50.0235V48.5359H21.2181H19.7305H18.2495V50.0235V51.5112V52.9988H19.7305H21.2181Z" fill="white"/>
<path d="M40.5506 51.5112H39.063V52.9989H40.5506V51.5112Z" fill="white"/>
<path d="M30.1444 52.999H28.6567V54.4867H30.1444V52.999Z" fill="white"/>
<path d="M31.6252 54.4866H33.1128V52.999H34.6005V54.4866H36.0881V52.999H37.5757V51.5113H36.0881V50.0237H40.551V48.5361H37.5757V47.0484V45.5608H36.0881V47.0484H33.1128V45.5608H27.1689V47.0484H31.6319V50.0237H30.1442V51.5113V52.999H31.6319V54.4866H31.6252ZM33.1128 48.5361H34.6005V50.0237H33.1128V48.5361Z" fill="white"/>
<path d="M25.6812 55.9744V45.5676H15.2744V55.9744H25.6812ZM16.7621 47.0486H24.1936V54.4801H16.7621V47.0486Z" fill="white"/>
<path d="M31.6248 54.4868H30.1372V55.9745H31.6248V54.4868Z" fill="white"/>
<path d="M34.6004 54.4868H33.1128V55.9745H34.6004V54.4868Z" fill="white"/>
<path d="M37.5755 54.4868H36.0879V55.9745H37.5755V54.4868Z" fill="white"/>
<path d="M30.1376 55.9745H28.6566V54.4868H27.1689V55.9745V57.4554H28.6566V58.9431H30.1376V57.4554V55.9745Z" fill="white"/>
<path d="M36.0877 55.9741H34.6001V57.4618H36.0877V55.9741Z" fill="white"/>
<path d="M16.7621 57.4551H15.2744V58.9427H16.7621H18.2497V57.4551H16.7621Z" fill="white"/>
<path d="M25.681 57.4551H24.1934V58.9427H25.681V57.4551Z" fill="white"/>
<path d="M34.6004 57.4551H33.1128V58.9427H34.6004V57.4551Z" fill="white"/>
<path d="M43.5194 57.4551H42.0317V58.9427H43.5194V57.4551Z" fill="white"/>
<path d="M52.4452 57.4551H50.9575V58.9427H52.4452V57.4551Z" fill="white"/>
<path d="M42.0321 58.9429H40.5444V60.4305H42.0321V58.9429Z" fill="white"/>
<path d="M47.9823 58.9429H46.4947H45.007H43.5194V60.4305H42.0317V61.9181H43.5194V63.4058H45.007V61.9181V60.4305H46.4947V61.9181V63.4058H47.9823H49.4699H50.9576V64.8934H52.4385V63.4058V61.9181V60.4305H50.9576V61.9181H49.4699H47.9823V60.4305H49.4699H50.9576V58.9429H49.4699H47.9823Z" fill="white"/>
<path d="M19.7308 61.918V60.4304H21.2185H22.7061V58.9427V57.4551H21.2185H19.7308V58.9427H18.2498V60.4304H16.7622V61.918H18.2498H19.7308Z" fill="white"/>
<path d="M24.1937 61.9181H25.6813V60.4304H24.1937H22.7061V61.9181H24.1937Z" fill="white"/>
<path d="M30.1444 60.4304H28.6567V61.9181H30.1444V60.4304Z" fill="white"/>
<path d="M31.6248 61.9181V63.4058H33.1125V61.9181V60.4305V58.9429H31.6248H30.1372V60.4305H31.6248V61.9181Z" fill="white"/>
<path d="M34.6001 61.9183H36.0877V60.4307H37.5754V61.9183H39.063H40.544V60.4307H39.063V58.9431H40.544V57.4554V55.9745V54.4868H39.063V55.9745V57.4554H37.5754V58.9431H36.0877H34.6001V60.4307V61.9183Z" fill="white"/>
<path d="M22.7059 61.9182H21.2183V63.4059H22.7059V61.9182Z" fill="white"/>
<path d="M25.681 63.406H24.1934V64.8936H25.681V63.406Z" fill="white"/>
<path d="M34.6004 63.406H33.1128V64.8936H34.6004V63.406Z" fill="white"/>
<path d="M43.5194 63.406H42.0317V64.8936H43.5194V63.406Z" fill="white"/>
<path d="M21.2181 64.8936V63.406H19.7305V64.8936V66.3813V67.8623H18.2495V69.3499V70.8375H19.7305V69.3499H21.2181V67.8623H22.7058V66.3813H24.1934V64.8936H22.7058H21.2181Z" fill="white"/>
<path d="M49.4702 66.381H47.9826H46.495V64.8933H45.0073V66.381V67.8619H46.495V69.3496H47.9826V70.8372V72.3248H49.4702H50.9579V70.8372V69.3496H49.4702V67.8619H50.9579V69.3496H52.4388V67.8619V66.381H50.9579V64.8933H49.4702V66.381Z" fill="white"/>
<path d="M16.7621 66.3811V64.8935H18.2497V63.4059H16.7621V61.9182H15.2744V70.8374H16.7621V69.3497V67.8621H18.2497V66.3811H16.7621Z" fill="white"/>
<path d="M25.681 66.3811H24.1934V67.8687H25.681V66.3811Z" fill="white"/>
<path d="M45.0072 67.8621H43.5196V69.3497H42.0319V67.8621H43.5196V66.3744H42.0319V64.8868H40.5443V63.3992H39.0567H37.569V64.8868H36.0814H34.5938V66.3744H36.0814H37.569V72.3183H39.0567V73.806H37.569V75.2936H36.0814V76.7812H34.5938V78.2689H36.0814H37.569V76.7812H42.0319V78.2689H43.5196V76.7812H45.0072H46.4949V69.3497H45.0072V67.8621ZM45.0072 72.325V73.8126V75.3003H43.5196H42.0319H40.5443V73.8126V72.325V70.8374H42.0319H43.5196H45.0072V72.325Z" fill="white"/>
<path d="M31.6249 69.3497H33.1125V67.8621H31.6249V66.3811H33.1125V64.8935H31.6249V63.4059H30.1372H28.6563V61.9182H27.1686H25.681V63.4059H27.1686V67.8621H28.6563V66.3811H30.1372V67.8621V69.3497H28.6563H27.1686H25.681H24.1934V70.8374H25.681H27.1686V72.325H28.6563V70.8374H30.1372V72.325H31.6249V70.8374V69.3497Z" fill="white"/>
<path d="M36.0881 70.8373V69.3496H34.6004H33.1128V70.8373H34.6004V72.3249H36.0881V70.8373Z" fill="white"/>
<path d="M15.2744 72.3252V82.732H25.6812V72.3252H15.2744ZM24.1936 81.2444H16.7621V73.8128H24.1936V81.2444Z" fill="white"/>
<path d="M43.5194 72.3252H42.0317V73.8128H43.5194V72.3252Z" fill="white"/>
<path d="M31.6248 73.8125H30.1372V75.3001H31.6248V73.8125Z" fill="white"/>
<path d="M36.0881 75.3005V73.8128H34.6005V72.3252H33.1128H31.6252V73.8128H33.1128V75.3005H31.6252V76.7881H30.1376H28.6566V75.3005H27.1689V76.7881V78.2691H28.6566V79.7567H30.1376V81.2444H31.6252V79.7567H33.1128V78.2691V76.7881H34.6005V75.3005H36.0881Z" fill="white"/>
<path d="M50.9575 75.3005H52.4385V73.8128V72.3252H50.9575V73.8128V75.3005Z" fill="white"/>
<path d="M19.7305 75.3003H18.2495V76.7879V78.2689V79.7565H19.7305H21.2181H22.7058V78.2689V76.7879V75.3003H21.2181H19.7305Z" fill="white"/>
<path d="M49.4701 76.7879V78.2689H47.9824H46.4948H45.0072V79.7565H43.5195V81.2442H45.0072H46.4948V79.7565H47.9824V81.2442H49.4701H50.9577V82.7318H52.4387V76.7879H50.9577V75.3003H49.4701V76.7879Z" fill="white"/>
<path d="M42.0321 78.2688H40.5444V79.7564H42.0321V78.2688Z" fill="white"/>
<path d="M28.6566 79.7566H27.1689V81.2442V82.7319H28.6566H30.1376V81.2442H28.6566V79.7566Z" fill="white"/>
<path d="M36.0879 81.2442V82.7319H37.5755V81.2442V79.7566H36.0879V81.2442Z" fill="white"/>
<path d="M34.6004 81.2441H33.1128V82.7318H34.6004V81.2441Z" fill="white"/>
<path d="M39.063 81.2441V82.7318H40.544H42.0316V81.2441H40.544H39.063Z" fill="white"/>
<path d="M47.9828 81.2441H46.4951V82.7318H47.9828V81.2441Z" fill="white"/>
<path d="M3.00635 61.7246H64.9401" stroke="#E64C2A" stroke-width="2.2551" stroke-miterlimit="10"/>
<path d="M3.00625 64.0594C4.29575 64.0594 5.3411 63.014 5.3411 61.7245C5.3411 60.435 4.29575 59.3896 3.00625 59.3896C1.71674 59.3896 0.671387 60.435 0.671387 61.7245C0.671387 63.014 1.71674 64.0594 3.00625 64.0594Z" fill="#E64C2A"/>
<path d="M64.9398 64.0594C66.2293 64.0594 67.2747 63.014 67.2747 61.7245C67.2747 60.435 66.2293 59.3896 64.9398 59.3896C63.6503 59.3896 62.605 60.435 62.605 61.7245C62.605 63.014 63.6503 64.0594 64.9398 64.0594Z" fill="#E64C2A"/>
<path opacity="0.7" d="M55.7739 42.5388H11.3315V61.718H55.7739V42.5388Z" fill="#E64C2A"/>
<path d="M77.8218 93.5388L81.5776 104.326L88.0485 97.3813L77.8218 93.5388Z" fill="#F7AC85"/>
<path opacity="0.5" d="M88.0485 97.3813L77.8218 93.5388L81.5776 104.326" fill="#F7AC85"/>
<path d="M88.9757 83.0322C88.9757 83.0322 83.4921 79.8835 79.7964 80.4305C76.094 80.9776 75.2067 91.3176 76.7144 93.6458C78.222 95.974 82.8784 98.3422 86.8543 98.4757C90.8303 98.6157 91.991 89.0628 88.4287 87.6886" fill="#F7AC85"/>
<path d="M88.9759 71.2109C88.9759 71.2109 83.4923 68.0622 79.7966 68.6092C76.1008 69.1563 75.2069 77.962 76.7145 80.2902C78.2222 82.6184 82.8786 84.573 86.8545 84.7064C90.8304 84.8465 91.9912 77.2349 88.4289 75.8673" fill="#F7AC85"/>
<path d="M88.9759 59.3565C88.9759 59.3565 83.4923 56.2077 79.7966 56.7547C76.1008 57.3018 75.2069 65.4204 76.7145 67.7553C78.2222 70.0835 82.8786 72.7252 86.8545 72.8586C90.8304 72.9987 91.9912 65.3871 88.4289 64.0195" fill="#F7AC85"/>
<path d="M81.2106 57.4885L87.428 47.5487L72.1314 39.4567C69.9366 38.0825 67.0414 38.7496 65.6671 40.951C64.2929 43.1458 64.96 46.041 67.1615 47.4152L81.2106 57.4885Z" fill="#F7AC85"/>
<path d="M156.713 88.4958C156.693 97.0481 156.713 117.862 156.713 117.862L200.068 183.338H143.058L118.588 132.198L93.2251 119.062H118.555C118.555 119.062 143.138 57.0886 145.386 48.4563C147.641 39.824 156.647 40.9514 154.952 45.2676C153.264 49.5837 154.392 58.216 154.765 64.0332C155.146 69.8436 156.733 81.2444 156.713 88.4958Z" fill="#F7AC85"/>
<path d="M142.164 126.1H84.7994C83.0449 126.1 81.624 124.679 81.624 122.925V19.7972C81.624 18.0428 83.0449 16.6218 84.7994 16.6218H142.164C143.918 16.6218 145.339 18.0428 145.339 19.7972V122.925C145.339 124.679 143.918 126.1 142.164 126.1Z" fill="#29333A"/>
<path d="M142.164 122.491H84.7994C83.0449 122.491 81.624 121.07 81.624 119.315V15.1608C81.624 13.4063 83.0449 11.9854 84.7994 11.9854H142.164C143.918 11.9854 145.339 13.4063 145.339 15.1608V119.315C145.339 121.07 143.918 122.491 142.164 122.491Z" fill="#1C6262"/>
<path d="M143.147 105.961L143.147 21.0518L83.8215 21.0518L83.8215 105.961L143.147 105.961Z" fill="white"/>
<path d="M122.731 16.3281H104.239C103.952 16.3281 103.725 16.5616 103.725 16.8418C103.725 17.1286 103.959 17.3555 104.239 17.3555H122.731C123.018 17.3555 123.245 17.122 123.245 16.8418C123.245 16.5549 123.018 16.3281 122.731 16.3281Z" fill="white"/>
<path d="M113.485 119.182C116.399 119.182 118.762 116.82 118.762 113.906C118.762 110.991 116.399 108.629 113.485 108.629C110.57 108.629 108.208 110.991 108.208 113.906C108.208 116.82 110.57 119.182 113.485 119.182Z" fill="white"/>
<path d="M113.485 118.402C115.968 118.402 117.981 116.389 117.981 113.905C117.981 111.422 115.968 109.409 113.485 109.409C111.001 109.409 108.988 111.422 108.988 113.905C108.988 116.389 111.001 118.402 113.485 118.402Z" fill="#1C6262"/>
<path d="M121.23 123.432H105.746C105.279 123.432 104.906 123.812 104.906 124.272C104.906 124.739 105.286 125.113 105.746 125.113H121.23C121.697 125.113 122.07 124.732 122.07 124.272C122.07 123.805 121.697 123.432 121.23 123.432Z" fill="white"/>
<path d="M94.4126 36.6217V70.6773C94.4126 71.8047 95.3265 72.7186 96.4539 72.7186H130.51C131.637 72.7186 132.551 71.8047 132.551 70.6773V36.6217C132.551 35.4943 131.637 34.5804 130.51 34.5804H96.4539C95.3332 34.5737 94.4126 35.4876 94.4126 36.6217Z" fill="#29333A"/>
<path d="M119.341 40.0635V47.6217H126.9V40.0635H119.341ZM125.819 46.541H120.422V41.1442H125.819V46.541Z" fill="white"/>
<path d="M110.703 42.2253H109.622V43.306H110.703V42.2253Z" fill="white"/>
<path d="M122.584 42.2253H121.503V43.306V44.3801V45.4608H122.584H123.658H124.738V44.3801V43.306V42.2253H123.658H122.584Z" fill="white"/>
<path d="M104.225 45.4608H105.306V44.3801V43.306V42.2253H104.225H103.144H102.063V43.306V44.3801V45.4608H103.144H104.225Z" fill="white"/>
<path d="M118.261 44.3799H117.18V45.4606H118.261V44.3799Z" fill="white"/>
<path d="M110.703 45.4607H109.622V46.5414H110.703V45.4607Z" fill="white"/>
<path d="M111.783 46.541H112.864V45.4603H113.945V46.541H115.025V45.4603H116.106V44.3796H115.025V43.2989H118.268V42.2182H116.106V41.1375V40.0635H115.025V41.1442H112.864V40.0635H108.548V41.1442H111.79V43.3056H110.709V44.3863V45.467H111.79V46.541H111.783ZM112.864 42.2249H113.945V43.3056H112.864V42.2249Z" fill="white"/>
<path d="M107.461 47.6217V40.0635H99.9023V47.6217H107.461ZM100.983 41.1442H106.38V46.541H100.983V41.1442Z" fill="white"/>
<path d="M111.783 46.5413H110.703V47.622H111.783V46.5413Z" fill="white"/>
<path d="M113.944 46.5413H112.864V47.622H113.944V46.5413Z" fill="white"/>
<path d="M116.099 46.5413H115.019V47.622H116.099V46.5413Z" fill="white"/>
<path d="M110.703 47.622H109.622V46.5413H108.542V47.622V48.7027H109.622V49.7834H110.703V48.7027V47.622Z" fill="white"/>
<path d="M115.026 47.6221H113.945V48.7028H115.026V47.6221Z" fill="white"/>
<path d="M100.983 48.7026H99.9023V49.7833H100.983H102.064V48.7026H100.983Z" fill="white"/>
<path d="M107.461 48.7026H106.38V49.7833H107.461V48.7026Z" fill="white"/>
<path d="M113.944 48.7026H112.864V49.7833H113.944V48.7026Z" fill="white"/>
<path d="M120.422 48.7026H119.341V49.7833H120.422V48.7026Z" fill="white"/>
<path d="M126.9 48.7026H125.819V49.7833H126.9V48.7026Z" fill="white"/>
<path d="M119.342 49.7834H118.261V50.8642H119.342V49.7834Z" fill="white"/>
<path d="M123.657 49.7834H122.583H121.503H120.422V50.8641H119.341V51.9449H120.422V53.0189H121.503V51.9449V50.8641H122.583V51.9449V53.0189H123.657H124.738H125.819V54.0996H126.9V53.0189V51.9449V50.8641H125.819V51.9449H124.738H123.657V50.8641H124.738H125.819V49.7834H124.738H123.657Z" fill="white"/>
<path d="M103.144 51.9448V50.864H104.225H105.306V49.7833V48.7026H104.225H103.144V49.7833H102.064V50.864H100.983V51.9448H102.064H103.144Z" fill="white"/>
<path d="M106.38 51.945H107.46V50.8643H106.38H105.306V51.945H106.38Z" fill="white"/>
<path d="M110.703 50.8643H109.622V51.945H110.703V50.8643Z" fill="white"/>
<path d="M111.783 51.9449V53.0189H112.864V51.9449V50.8641V49.7834H111.783H110.703V50.8641H111.783V51.9449Z" fill="white"/>
<path d="M113.945 51.9448H115.019V50.8641H116.1V51.9448H117.18H118.261V50.8641H117.18V49.7834H118.261V48.7027V47.622V46.5413H117.18V47.622V48.7027H116.1V49.7834H115.019H113.945V50.8641V51.9448Z" fill="white"/>
<path d="M105.306 51.9448H104.225V53.0255H105.306V51.9448Z" fill="white"/>
<path d="M107.461 53.0188H106.38V54.0995H107.461V53.0188Z" fill="white"/>
<path d="M113.944 53.0188H112.864V54.0995H113.944V53.0188Z" fill="white"/>
<path d="M120.422 53.0188H119.341V54.0995H120.422V53.0188Z" fill="white"/>
<path d="M104.225 54.0995V53.0188H103.144V54.0995V55.1802V56.2609H102.063V57.3416V58.4223H103.144V57.3416H104.225V56.2609H105.306V55.1802H106.38V54.0995H105.306H104.225Z" fill="white"/>
<path d="M124.738 55.1803H123.658H122.584V54.0996H121.503V55.1803V56.261H122.584V57.3417H123.658V58.4224V59.5031H124.738H125.819V58.4224V57.3417H124.738V56.261H125.819V57.3417H126.9V56.261V55.1803H125.819V54.0996H124.738V55.1803Z" fill="white"/>
<path d="M100.983 55.1803V54.0996H102.064V53.0189H100.983V51.9448H99.9023V58.4224H100.983V57.3417V56.261H102.064V55.1803H100.983Z" fill="white"/>
<path d="M107.461 55.1802H106.38V56.2609H107.461V55.1802Z" fill="white"/>
<path d="M121.503 56.2609H120.422V57.3416H119.342V56.2609H120.422V55.1802H119.342V54.0995H118.261V53.0188H117.18H116.099V54.0995H115.019H113.938V55.1802H115.019H116.099V59.4964H117.18V60.5771H116.099V61.6578H115.019V62.7385H113.938V63.8192H115.019H116.099V62.7385H119.342V63.8192H120.422V62.7385H121.503H122.584V57.3416H121.503V56.2609ZM121.503 59.503V60.5837V61.6644H120.422H119.342H118.261V60.5837V59.503V58.4223H119.342H120.422H121.503V59.503Z" fill="white"/>
<path d="M111.783 57.3417H112.864V56.261H111.783V55.1803H112.864V54.0996H111.783V53.0189H110.703H109.622V51.9448H108.541H107.461V53.0189H108.541V56.261H109.622V55.1803H110.703V56.261V57.3417H109.622H108.541H107.461H106.38V58.4224H107.461H108.541V59.5031H109.622V58.4224H110.703V59.5031H111.783V58.4224V57.3417Z" fill="white"/>
<path d="M115.019 58.4223V57.3416H113.944H112.864V58.4223H113.944V59.503H115.019V58.4223Z" fill="white"/>
<path d="M99.9023 59.5029V67.0612H107.461V59.5029H99.9023ZM106.38 65.9805H100.983V60.5836H106.38V65.9805Z" fill="white"/>
<path d="M120.422 59.5029H119.341V60.5836H120.422V59.5029Z" fill="white"/>
<path d="M111.783 60.5837H110.703V61.6644H111.783V60.5837Z" fill="white"/>
<path d="M115.019 61.6577V60.5836H113.945V59.5029H112.864H111.784V60.5836H112.864V61.6577H111.784V62.7384H110.703H109.622V61.6577H108.542V62.7384V63.8191H109.622V64.8998H110.703V65.9805H111.784V64.8998H112.864V63.8191V62.7384H113.945V61.6577H115.019Z" fill="white"/>
<path d="M125.819 61.6577H126.9V60.5836V59.5029H125.819V60.5836V61.6577Z" fill="white"/>
<path d="M103.144 61.658H102.063V62.7387V63.8194V64.9001H103.144H104.225H105.306V63.8194V62.7387V61.658H104.225H103.144Z" fill="white"/>
<path d="M124.739 62.7387V63.8194H123.658H122.584H121.503V64.9001H120.422V65.9808H121.503H122.584V64.9001H123.658V65.9808H124.739H125.819V67.0615H126.9V62.7387H125.819V61.658H124.739V62.7387Z" fill="white"/>
<path d="M119.342 63.8193H118.261V64.9H119.342V63.8193Z" fill="white"/>
<path d="M109.622 64.9001H108.542V65.9809V67.0616H109.622H110.703V65.9809H109.622V64.9001Z" fill="white"/>
<path d="M115.019 65.9809V67.0616H116.099V65.9809V64.9001H115.019V65.9809Z" fill="white"/>
<path d="M113.944 65.9807H112.864V67.0614H113.944V65.9807Z" fill="white"/>
<path d="M117.18 65.9807V67.0614H118.261H119.342V65.9807H118.261H117.18Z" fill="white"/>
<path d="M123.665 65.9807H122.584V67.0614H123.665V65.9807Z" fill="white"/>
<path d="M90.9966 51.7981H135.979" stroke="#E64C2A" stroke-width="1.638" stroke-miterlimit="10"/>
<path d="M90.9967 53.4924C91.9325 53.4924 92.6911 52.7338 92.6911 51.798C92.6911 50.8621 91.9325 50.1035 90.9967 50.1035C90.0609 50.1035 89.3022 50.8621 89.3022 51.798C89.3022 52.7338 90.0609 53.4924 90.9967 53.4924Z" fill="#E64C2A"/>
<path d="M135.979 53.4924C136.915 53.4924 137.674 52.7338 137.674 51.798C137.674 50.8621 136.915 50.1035 135.979 50.1035C135.043 50.1035 134.285 50.8621 134.285 51.798C134.285 52.7338 135.043 53.4924 135.979 53.4924Z" fill="#E64C2A"/>
<path opacity="0.7" d="M129.322 37.8691H97.041V51.7982H129.322V37.8691Z" fill="#E64C2A"/>
<path d="M114.885 79.6563C114.885 78.9625 114.325 78.3955 113.625 78.3955C112.924 78.3955 112.364 78.9625 112.364 79.6563C112.364 80.3501 112.924 80.9172 113.625 80.9172C114.325 80.9172 114.885 80.3501 114.885 79.6563Z" fill="#29333A"/>
<path d="M110.069 82.2714C110.766 82.2714 111.33 81.7069 111.33 81.0106C111.33 80.3142 110.766 79.7498 110.069 79.7498C109.373 79.7498 108.809 80.3142 108.809 81.0106C108.809 81.7069 109.373 82.2714 110.069 82.2714Z" fill="#D4D6D8"/>
<path d="M108.515 83.2256C107.821 83.2256 107.254 83.7926 107.254 84.4864C107.254 85.1802 107.814 85.7472 108.515 85.7472C109.209 85.7472 109.776 85.1869 109.776 84.4864C109.769 83.7926 109.209 83.2256 108.515 83.2256Z" fill="#D4D6D8"/>
<path d="M108.982 87.1544C108.488 87.6481 108.488 88.4419 108.982 88.9356C109.476 89.4292 110.27 89.4292 110.763 88.9356C111.257 88.4419 111.257 87.6481 110.763 87.1544C110.27 86.6608 109.469 86.6608 108.982 87.1544Z" fill="#A9ADB0"/>
<path d="M113.345 90.8634C114.041 90.8634 114.606 90.299 114.606 89.6026C114.606 88.9063 114.041 88.3418 113.345 88.3418C112.648 88.3418 112.084 88.9063 112.084 89.6026C112.084 90.299 112.648 90.8634 113.345 90.8634Z" fill="#A9ADB0"/>
<path d="M116.9 89.5092C117.597 89.5092 118.161 88.9447 118.161 88.2484C118.161 87.552 117.597 86.9875 116.9 86.9875C116.204 86.9875 115.64 87.552 115.64 88.2484C115.64 88.9447 116.204 89.5092 116.9 89.5092Z" fill="#7F8589"/>
<path d="M118.461 86.0339C119.157 86.0339 119.722 85.4694 119.722 84.773C119.722 84.0767 119.157 83.5122 118.461 83.5122C117.765 83.5122 117.2 84.0767 117.2 84.773C117.2 85.4694 117.765 86.0339 118.461 86.0339Z" fill="#7F8589"/>
<path d="M117.101 82.4716C117.797 82.4716 118.362 81.9071 118.362 81.2108C118.362 80.5144 117.797 79.95 117.101 79.95C116.404 79.95 115.84 80.5144 115.84 81.2108C115.84 81.9071 116.404 82.4716 117.101 82.4716Z" fill="#29333A"/>
<path d="M101.007 97.306L101.579 94.0635H102.275L101.803 96.7408H103.214L103.115 97.306H101.007ZM106.759 95.6848C106.697 96.0383 106.576 96.3391 106.396 96.5872C106.217 96.8352 105.999 97.0247 105.743 97.1556C105.487 97.2854 105.214 97.3503 104.924 97.3503C104.631 97.3503 104.38 97.2849 104.171 97.154C103.961 97.0231 103.811 96.8336 103.719 96.5856C103.628 96.3376 103.613 96.0373 103.676 95.6848C103.738 95.3312 103.858 95.0304 104.037 94.7823C104.216 94.5343 104.433 94.3454 104.689 94.2155C104.944 94.0847 105.218 94.0192 105.511 94.0192C105.801 94.0192 106.051 94.0847 106.261 94.2155C106.472 94.3454 106.623 94.5343 106.714 94.7823C106.806 95.0304 106.821 95.3312 106.759 95.6848ZM106.053 95.6848C106.094 95.4557 106.093 95.2626 106.051 95.1053C106.01 94.948 105.934 94.8288 105.823 94.7475C105.712 94.6662 105.572 94.6256 105.404 94.6256C105.236 94.6256 105.082 94.6662 104.942 94.7475C104.802 94.8288 104.684 94.948 104.586 95.1053C104.49 95.2626 104.422 95.4557 104.381 95.6848C104.341 95.9138 104.341 96.1069 104.382 96.2642C104.424 96.4215 104.5 96.5407 104.612 96.622C104.723 96.7033 104.862 96.7439 105.031 96.7439C105.199 96.7439 105.353 96.7033 105.493 96.622C105.632 96.5407 105.75 96.4215 105.847 96.2642C105.944 96.1069 106.013 95.9138 106.053 95.6848ZM107.371 97.306H106.625L108.333 94.0635H109.23L109.793 97.306H109.047L108.664 94.8045H108.638L107.371 97.306ZM107.549 96.0315H109.311L109.216 96.5666H107.454L107.549 96.0315ZM111.357 97.306H110.19L110.761 94.0635H111.938C112.269 94.0635 112.543 94.1285 112.759 94.2583C112.975 94.387 113.126 94.5723 113.212 94.814C113.299 95.0557 113.313 95.3449 113.254 95.6816C113.194 96.0193 113.078 96.3096 112.906 96.5524C112.734 96.7951 112.517 96.9814 112.253 97.1112C111.99 97.2411 111.691 97.306 111.357 97.306ZM110.989 96.7186H111.431C111.637 96.7186 111.817 96.6827 111.97 96.6109C112.124 96.5381 112.25 96.4257 112.347 96.2737C112.446 96.1207 112.517 95.9233 112.559 95.6816C112.602 95.442 112.6 95.2462 112.555 95.0942C112.511 94.9422 112.425 94.8303 112.298 94.7586C112.17 94.6868 112.003 94.6509 111.797 94.6509H111.354L110.989 96.7186ZM114.751 94.0635L114.179 97.306H113.483L114.055 94.0635H114.751ZM118.077 94.0635L117.506 97.306H116.905L115.832 95.2652H115.808L115.448 97.306H114.752L115.324 94.0635H115.934L116.996 96.1027H117.025L117.385 94.0635H118.077ZM120.651 95.1116C120.642 95.0346 120.622 94.9665 120.592 94.9074C120.562 94.8472 120.521 94.7966 120.469 94.7554C120.419 94.7132 120.358 94.681 120.287 94.6588C120.217 94.6367 120.137 94.6256 120.047 94.6256C119.879 94.6256 119.724 94.6668 119.582 94.7491C119.441 94.8314 119.321 94.9512 119.222 95.1085C119.124 95.2647 119.055 95.4557 119.015 95.6816C118.975 95.9075 118.976 96.0996 119.018 96.2579C119.06 96.4162 119.137 96.537 119.25 96.6204C119.363 96.7028 119.506 96.7439 119.68 96.7439C119.838 96.7439 119.977 96.7165 120.098 96.6616C120.22 96.6057 120.32 96.527 120.397 96.4257C120.475 96.3244 120.526 96.2046 120.55 96.0663L120.688 96.0869H119.839L119.93 95.5708H121.308L121.236 95.9792C121.186 96.2642 121.081 96.5091 120.923 96.7138C120.765 96.9175 120.569 97.0748 120.335 97.1856C120.102 97.2954 119.846 97.3503 119.57 97.3503C119.261 97.3503 119.002 97.2833 118.792 97.1492C118.582 97.0141 118.434 96.8226 118.347 96.5745C118.261 96.3254 118.248 96.0299 118.308 95.6879C118.355 95.4251 118.435 95.1908 118.548 94.985C118.663 94.7781 118.803 94.6029 118.969 94.4593C119.134 94.3158 119.317 94.2066 119.517 94.1316C119.716 94.0567 119.925 94.0192 120.143 94.0192C120.329 94.0192 120.498 94.0461 120.649 94.1C120.801 94.1527 120.93 94.2277 121.037 94.3248C121.146 94.4219 121.228 94.5375 121.283 94.6715C121.339 94.8045 121.364 94.9512 121.358 95.1116H120.651ZM121.905 97.3471C121.799 97.3471 121.714 97.3102 121.651 97.2363C121.59 97.1614 121.568 97.0716 121.586 96.9672C121.605 96.8637 121.658 96.7751 121.746 96.7012C121.835 96.6273 121.932 96.5904 122.039 96.5904C122.141 96.5904 122.225 96.6273 122.289 96.7012C122.353 96.7751 122.376 96.8637 122.358 96.9672C122.346 97.0368 122.316 97.1007 122.27 97.1587C122.224 97.2157 122.169 97.2616 122.105 97.2965C122.042 97.3302 121.975 97.3471 121.905 97.3471ZM123.254 97.3471C123.147 97.3471 123.063 97.3102 123 97.2363C122.938 97.1614 122.916 97.0716 122.935 96.9672C122.953 96.8637 123.006 96.7751 123.094 96.7012C123.183 96.6273 123.281 96.5904 123.387 96.5904C123.49 96.5904 123.573 96.6273 123.637 96.7012C123.702 96.7751 123.725 96.8637 123.706 96.9672C123.694 97.0368 123.665 97.1007 123.618 97.1587C123.572 97.2157 123.518 97.2616 123.454 97.2965C123.39 97.3302 123.323 97.3471 123.254 97.3471ZM124.602 97.3471C124.496 97.3471 124.411 97.3102 124.348 97.2363C124.286 97.1614 124.265 97.0716 124.283 96.9672C124.301 96.8637 124.354 96.7751 124.442 96.7012C124.532 96.6273 124.629 96.5904 124.735 96.5904C124.838 96.5904 124.922 96.6273 124.986 96.7012C125.05 96.7751 125.073 96.8637 125.055 96.9672C125.042 97.0368 125.013 97.1007 124.966 97.1587C124.921 97.2157 124.866 97.2616 124.802 97.2965C124.738 97.3302 124.672 97.3471 124.602 97.3471Z" fill="#29333A"/>
<path d="M80.1899 58.0088C80.1899 58.0088 88.1485 61.5044 90.43 63.8593C92.7115 66.2142 92.0844 71.8645 87.3013 72.0513C82.6115 72.2381 79.6963 70.8372 79.6963 70.8372L80.1899 58.0088Z" fill="#F7AC85"/>
<path d="M79.6897 70.8374C79.6897 70.8374 89.6496 75.7273 91.9244 78.0888C94.2059 80.4437 93.9924 85.4069 88.9225 85.9673C85.5469 86.3409 79.603 82.3382 79.603 82.3382L79.6897 70.8374Z" fill="#F7AC85"/>
<path d="M79.356 83.5325C79.356 83.5325 86.8342 86.9147 88.8488 89.0027C90.8635 91.0841 91.6573 96.3342 86.554 97.1347C83.432 97.6283 79.8296 95.7271 79.8296 95.7271L79.356 83.5325Z" fill="#F7AC85"/>
<path d="M104.152 30.3641C104.152 30.3641 85.9735 6.50184 55.3735 6.50184V0.858154L41.291 10.9514L55.2201 21.4649V15.6078C55.2134 15.6145 80.1831 12.2589 104.152 30.3641Z" fill="#29333A"/>
</svg>
