<svg width="25" height="25" viewBox="0 0 25 25" fill="none" xmlns="http://www.w3.org/2000/svg">
<g clip-path="url(#clip0_5080_4819)">
<path d="M12.6338 24.1146C9.45774 24.1146 6.28169 24.1168 3.10564 24.1132C2.10944 24.1124 1.44604 23.4569 1.44678 22.4918C1.45121 17.7898 1.4549 13.0885 1.45858 8.38654C1.45932 7.11424 2.18692 6.36846 3.47239 6.32373C3.54619 6.32153 3.61998 6.323 3.69304 6.323C9.7507 6.323 15.8084 6.323 21.866 6.32227C22.3331 6.32227 22.784 6.38093 23.1943 6.62072C23.7795 6.96245 24.0946 7.45377 24.0938 8.14675C24.0894 12.9214 24.0813 17.6967 24.0997 22.4713C24.1034 23.473 23.3367 23.9988 22.6556 24.0956C22.4564 24.1242 22.252 24.1315 22.0498 24.1315C18.9106 24.1337 15.7707 24.133 12.6316 24.133C12.6316 24.1271 12.6316 24.1205 12.6316 24.1146H12.6338ZM3.31153 7.28364C3.37646 7.35917 3.39786 7.38777 3.42295 7.4127C6.22782 10.1898 9.03196 12.9661 11.8383 15.7417C12.4183 16.3159 13.1348 16.3151 13.7178 15.7417C14.2867 15.1814 14.8498 14.6153 15.4173 14.0536C17.6288 11.8646 19.8404 9.67717 22.052 7.48823C22.1073 7.43397 22.1568 7.37384 22.2402 7.28364H3.31153ZM2.88353 23.1643H22.3516C19.8913 20.7187 17.4355 18.2767 14.9649 15.8201C14.8151 15.9727 14.6498 16.1435 14.4808 16.3122C13.413 17.3748 12.1541 17.3748 11.0841 16.3144C10.8524 16.0849 10.6207 15.8568 10.4289 15.6683C7.89849 18.1821 5.3947 20.6688 2.88279 23.1643H2.88353ZM23.1212 7.85196C23.0932 7.84022 23.0659 7.82922 23.0379 7.81749C20.6145 10.2712 18.1919 12.7248 15.8069 15.1396C18.2192 17.5273 20.6949 19.9795 23.1212 22.3811V7.85196ZM2.42601 7.76836V22.1442C4.83904 19.7478 7.25871 17.3447 9.59352 15.0267C7.23141 12.6339 4.85601 10.2286 2.42675 7.76836H2.42601Z" fill="black"/>
<path d="M12.7654 3.91953C15.5172 3.91953 18.2689 3.91953 21.0206 3.91953C21.1217 3.91953 21.2243 3.9144 21.3239 3.9276C21.5519 3.9584 21.6907 4.0948 21.7195 4.31992C21.7497 4.55752 21.6442 4.73278 21.4162 4.81271C21.3151 4.84791 21.2 4.85377 21.0907 4.85377C15.5504 4.85597 10.01 4.85597 4.46962 4.85377C4.36041 4.85377 4.24603 4.84938 4.14345 4.81638C3.91396 4.74304 3.7981 4.57072 3.82319 4.33386C3.84828 4.0992 3.98997 3.9518 4.23422 3.9254C4.33458 3.9144 4.43641 3.91807 4.53751 3.91807C7.28039 3.91807 10.0225 3.91807 12.7654 3.91807V3.91953Z" fill="black"/>
<path d="M12.7419 2.44944C10.7805 2.44944 8.81978 2.44944 6.85837 2.44944C6.76612 2.44944 6.67315 2.45531 6.58238 2.44211C6.33517 2.40618 6.17431 2.20891 6.18242 1.96325C6.19054 1.73079 6.35288 1.5504 6.59197 1.5196C6.67388 1.50933 6.75727 1.51447 6.84066 1.51447C10.7996 1.51447 14.7594 1.51447 18.7184 1.51447C18.7826 1.51447 18.8475 1.51153 18.9117 1.51667C19.1803 1.5372 19.3663 1.72273 19.3707 1.97279C19.3759 2.23238 19.184 2.42818 18.9021 2.44724C18.8195 2.45311 18.7361 2.44944 18.6534 2.44944C16.6832 2.44944 14.7129 2.44944 12.7419 2.44944Z" fill="black"/>
</g>
<defs>
<clipPath id="clip0_5080_4819">
<rect width="24" height="24" fill="white" transform="translate(0.773438 0.823242)"/>
</clipPath>
</defs>
</svg>
