<svg width="35" height="35" viewBox="0 0 35 35" fill="none" xmlns="http://www.w3.org/2000/svg">
<path d="M28.3506 28.1214C28.0172 28.7396 27.6762 29.3534 27.3538 29.9782C27.0543 30.5571 26.8466 31.1819 26.3373 31.6442C25.8181 32.1141 25.2071 32.2177 24.5524 32.2046C24.477 32.2035 24.4027 32.1152 24.3272 32.0705C24.266 32.0345 24.1753 31.956 24.1436 31.9745C23.5829 32.294 23.0255 31.9745 22.4735 31.9527C21.5412 31.9146 20.7968 32.2853 20.0787 32.8119C19.5235 33.2186 18.9464 33.5969 18.3616 33.96C17.5703 34.4506 16.5057 34.0668 15.7941 33.4094C15.3307 32.982 14.759 32.6691 14.2289 32.3169C13.56 31.872 12.8299 31.9048 12.0735 32.028C11.6986 32.089 11.3051 32.0389 10.8319 32.0389C10.4132 32.3496 9.69294 32.3136 9.1213 31.8851C9.06227 31.8143 9.00434 31.7434 8.94532 31.6725C8.33652 31.485 8.20973 30.9049 7.96817 30.435C7.68399 29.8811 7.47523 29.2891 7.20088 28.7298C6.84456 28.0036 6.18766 27.6078 5.47721 27.308C5.01486 27.1128 4.51317 27.0093 4.06067 26.7967C3.77648 26.6625 3.54586 26.4085 3.29993 26.197C2.53701 25.5406 2.47253 24.6836 2.61352 23.7689C2.6321 23.65 2.67801 23.5116 2.63648 23.4123C2.52499 23.1441 2.40148 22.8966 2.71299 22.6786C2.72829 22.6677 2.73594 22.6186 2.7261 22.6022C2.42225 22.1225 2.97203 21.6144 2.65943 21.1216C2.37197 20.6669 2.15555 20.1654 1.86809 19.7107C1.63309 19.3389 1.32596 19.014 1.07347 18.6531C0.277764 17.5148 0.312741 16.6023 1.14889 15.5109C1.57735 14.9504 1.98832 14.3758 2.37743 13.7871C2.53483 13.5505 2.61352 13.2615 2.7272 12.9966C2.74906 12.9693 2.77201 12.9432 2.79387 12.9159C2.71845 12.1887 2.62555 11.4636 2.57418 10.7353C2.54029 10.2621 2.5239 9.7791 2.57527 9.30917C2.6649 8.49798 3.27589 8.09893 3.93279 7.76638C4.66182 7.39677 5.40616 7.05659 6.12864 6.67498C6.88719 6.27484 7.13858 5.48982 7.48944 4.78657C7.7605 4.2425 7.99878 3.67881 8.30373 3.15437C8.65567 2.54816 9.19016 2.15674 9.92356 2.21126C10.9215 2.28649 11.915 2.46748 12.9129 2.49037C13.3163 2.4991 13.7622 2.26686 14.1251 2.04226C14.8038 1.6214 15.4301 1.11549 16.0914 0.665196C17.1593 -0.0620409 18.0938 0.0742478 19.1081 0.790582C19.7606 1.25069 20.3979 1.73588 21.0712 2.16437C21.575 2.48492 22.1554 2.49583 22.7435 2.4315C23.1719 2.38352 23.608 2.40206 24.0376 2.36172C24.3491 2.33337 24.6562 2.22761 24.9677 2.21017C25.8432 2.1611 26.4597 2.60595 26.8499 3.34191C27.1723 3.9503 27.4183 4.60012 27.6981 5.23141C27.7188 5.26085 27.7407 5.29138 27.7615 5.32082C27.9823 5.64464 28.203 5.96955 28.4249 6.29338C28.4501 6.32281 28.4741 6.35116 28.4992 6.3806C29.1157 6.7066 29.7376 7.02061 30.3453 7.36188C30.8995 7.67262 31.4536 7.98772 31.975 8.34752C32.4078 8.64736 32.4942 9.14672 32.5051 9.63736C32.5226 10.442 32.4363 11.2347 32.2843 12.0306C32.1488 12.7426 32.3663 13.4327 32.7817 14.0368C33.315 14.8141 33.8878 15.5676 34.3829 16.3689C34.5272 16.6033 34.5031 16.9653 34.4944 17.2673C34.4704 18.1221 33.926 18.7338 33.4549 19.3782C32.9718 20.0389 32.4078 20.6626 32.3018 21.5206C32.2701 21.778 32.3248 22.0462 32.3423 22.3089C32.3608 22.5935 32.3893 22.8781 32.3991 23.1637C32.421 23.7907 32.4647 24.4187 32.4439 25.0445C32.4177 25.8176 31.8493 26.2221 31.2514 26.5437C30.694 26.8435 30.0841 27.0452 29.5201 27.3364C29.1321 27.537 28.7834 27.815 28.4173 28.0592L28.3517 28.1279L28.3506 28.1214ZM19.4163 28.044C19.8415 27.9775 20.2831 27.9644 20.6886 27.8379C23.0222 27.1085 24.9787 25.8143 26.4367 23.8354C27.8052 21.9775 28.5878 19.8994 28.6566 17.5737C28.6566 17.5192 28.6566 17.4647 28.6566 17.4102V16.9195C28.6566 16.865 28.6566 16.8105 28.6566 16.756C28.6085 15.5283 28.3878 14.3388 27.9276 13.1918C27.1505 11.2576 25.982 9.62754 24.3185 8.35515C23.0123 7.35643 21.5772 6.64882 19.9475 6.37951C19.1486 6.24758 18.3452 6.09058 17.5396 6.06441C16.8991 6.04369 16.2532 6.2007 15.6105 6.28356C13.7163 6.52779 12.0517 7.29319 10.5816 8.50016C10.4701 8.60701 10.3586 8.71495 10.2482 8.8218C9.84705 9.21214 9.41532 9.5763 9.04807 9.99607C7.47851 11.7951 6.64782 13.9277 6.42703 16.2763C6.28275 17.8114 6.51119 19.328 7.02928 20.7945C7.68508 22.6535 8.71798 24.2475 10.2285 25.5297C11.8003 26.8643 13.5491 27.7529 15.6214 28.0778C16.8751 28.274 18.0938 28.3035 19.3344 28.1225C19.3617 28.0963 19.389 28.0701 19.4153 28.044H19.4163Z" fill="#109138"/>
<path d="M28.6592 16.9195C28.6592 17.083 28.6592 17.2466 28.6592 17.4101C28.6177 17.4439 28.5762 17.4766 28.5346 17.5104C28.5762 17.5312 28.6166 17.553 28.6581 17.5737C28.5893 19.8982 27.8056 21.9774 26.4382 23.8353C24.9802 25.8142 23.0226 27.1084 20.6901 27.8379C20.2846 27.9643 19.843 27.9785 19.4178 28.0439C19.3905 28.0701 19.3632 28.0963 19.337 28.1224C18.0964 28.3045 16.8777 28.274 15.624 28.0777C13.5517 27.7539 11.8018 26.8642 10.2311 25.5297C8.72056 24.2475 7.68767 22.6534 7.03186 20.7945C6.51487 19.328 6.28534 17.8114 6.42961 16.2762C6.6504 13.9266 7.48109 11.795 9.05065 9.99602C9.4179 9.57516 9.84854 9.21209 10.2508 8.82176C10.4869 8.84356 10.5983 8.7378 10.5841 8.50012C12.0542 7.29423 13.7189 6.52775 15.6131 6.28352C16.2558 6.20065 16.9028 6.04365 17.5422 6.06436C18.3478 6.09053 19.1511 6.24645 19.9501 6.37946C21.5798 6.64986 23.0149 7.35638 24.3211 8.35511C25.9846 9.6275 27.1542 11.2575 27.9302 13.1917C28.3903 14.3387 28.6111 15.5283 28.6592 16.7559C28.6177 16.7767 28.5772 16.7985 28.5357 16.8192C28.5772 16.853 28.6188 16.8857 28.6603 16.9195H28.6592ZM16.3902 17.9324C15.6229 17.1942 14.9092 16.5074 14.1954 15.8194C14.1167 15.7441 14.0435 15.6613 13.9583 15.5948C13.5571 15.2786 12.9122 15.2808 12.627 15.5991C12.2717 15.9949 12.3144 16.6927 12.6751 17.0296C13.5604 17.8572 14.3987 18.7349 15.2611 19.5875C15.4437 19.7685 15.6437 19.9331 15.8459 20.0912C16.1891 20.3605 16.7105 20.3245 17.0252 20.0138C18.797 18.2693 20.5589 16.5139 22.3438 14.7814C22.9286 14.2133 22.6488 13.3465 21.9951 13.1383C21.4825 12.9747 21.135 13.2048 20.8114 13.5264C19.3424 14.9831 17.88 16.4463 16.3913 17.9313L16.3902 17.9324Z" fill="#20BF55"/>
<path d="M10.5819 8.5C10.5961 8.7366 10.4846 8.84345 10.2485 8.82164C10.36 8.71479 10.4715 8.60685 10.5819 8.5Z" fill="#20BE55"/>
<path d="M28.6593 16.9199C28.6177 16.8861 28.5762 16.8534 28.5347 16.8196C28.5762 16.7989 28.6177 16.7771 28.6582 16.7563C28.6582 16.8109 28.6582 16.8654 28.6582 16.9199H28.6593Z" fill="#1FBD54"/>
<path d="M28.6582 17.5732C28.6166 17.5525 28.5762 17.5307 28.5347 17.51C28.5762 17.4762 28.6177 17.4435 28.6593 17.4097C28.6593 17.4642 28.6593 17.5187 28.6593 17.5732H28.6582Z" fill="#1FBD54"/>
<path d="M19.3354 28.1219C19.3624 28.0961 19.3894 28.0703 19.4153 28.0444C19.3883 28.0703 19.3613 28.0961 19.3354 28.1219Z" fill="#109238"/>
<path d="M16.3897 17.9339C17.8795 16.4489 19.3408 14.9846 20.8098 13.529C21.1334 13.2085 21.4809 12.9784 21.9936 13.1409C22.6472 13.3491 22.927 14.217 22.3422 14.784C20.5584 16.5165 18.7965 18.2708 17.0236 20.0164C16.7089 20.3271 16.1875 20.362 15.8443 20.0938C15.6421 19.9357 15.4421 19.77 15.2595 19.5901C14.3971 18.7375 13.5599 17.8598 12.6735 17.0322C12.3128 16.6953 12.2702 15.9975 12.6254 15.6017C12.9107 15.2833 13.5555 15.2812 13.9567 15.5974C14.0419 15.665 14.1152 15.7467 14.1938 15.822C14.9076 16.5089 15.6224 17.1968 16.3886 17.935L16.3897 17.9339Z" fill="#ECEBEA"/>
</svg>
