<svg width="31" height="32" viewBox="0 0 31 32" fill="none" xmlns="http://www.w3.org/2000/svg">
<path d="M30.9962 10.424C30.6154 11.357 29.9726 11.7127 29.1197 11.4548C28.5958 11.2963 28.2934 10.9349 28.2093 10.3981C28.1826 10.2299 28.1786 10.0569 28.1786 9.88551C28.1761 8.11088 28.1802 6.33624 28.1753 4.56242C28.1729 3.7798 27.8269 3.27773 27.1841 3.12654C26.9812 3.07884 26.7645 3.07561 26.5535 3.0748C24.8096 3.07075 23.0657 3.0748 21.3218 3.06995C21.1116 3.06995 20.8949 3.05944 20.6928 3.00688C20.0161 2.83063 19.6498 2.20729 19.7428 1.4279C19.8253 0.735838 20.3556 0.262064 21.0946 0.258021C22.6768 0.248319 24.2598 0.240234 25.842 0.261255C26.5333 0.270148 27.2512 0.248319 27.9102 0.421336C29.6217 0.872473 30.6162 2.04074 30.9396 3.78061C30.9501 3.8372 30.9768 3.89137 30.9962 3.94635V10.4232V10.424Z" fill="black"/>
<path d="M3.70137 31.247C3.47904 31.1912 3.25509 31.1419 3.03518 31.0796C1.27591 30.584 0.0445761 29.0358 0.0187045 27.2118C-0.00878415 25.2561 0.00496016 23.3004 0.0138535 21.3438C0.0170875 20.5466 0.558775 20.0074 1.33492 19.9839C2.18707 19.9581 2.73604 20.4221 2.81446 21.2387C2.8282 21.3786 2.82901 21.5209 2.82901 21.6616C2.82982 23.365 2.82901 25.0693 2.82901 26.7728C2.82901 27.9734 3.28823 28.4278 4.49854 28.4278C6.26267 28.4278 8.02679 28.4229 9.7901 28.4302C10.7918 28.4343 11.3553 29.0495 11.2632 30.0278C11.2001 30.6948 10.7886 31.0627 10.1766 31.2462H3.70137V31.247Z" fill="black"/>
<path d="M20.8296 31.2473C19.899 30.8697 19.5416 30.2245 19.7979 29.3724C19.9556 28.8485 20.3162 28.5461 20.8522 28.4604C21.0204 28.4337 21.1934 28.4305 21.364 28.4305C23.1265 28.4281 24.8898 28.4321 26.6523 28.4281C27.4632 28.4265 27.9637 28.0926 28.1221 27.4417C28.1715 27.2396 28.1755 27.0221 28.1755 26.8119C28.1795 25.0688 28.1755 23.3257 28.1804 21.5826C28.1804 21.3724 28.1901 21.1557 28.2394 20.9536C28.3792 20.3812 28.8676 20.0109 29.4772 19.9858C30.1814 19.9567 30.6826 20.2543 30.8993 20.8291C30.9308 20.9124 30.964 20.9956 30.9971 21.0789V27.5557C30.9777 27.6107 30.9519 27.6649 30.9405 27.7215C30.6163 29.4613 29.6098 30.5908 27.9144 31.0993C27.7147 31.1592 27.5085 31.1988 27.3056 31.2481H20.8296V31.2473Z" fill="black"/>
<path d="M9.88782 5.88648C10.7844 5.88648 11.6819 5.88405 12.5785 5.88648C13.5681 5.88971 14.096 6.41038 14.0984 7.39674C14.1033 9.21099 14.1033 11.0252 14.0984 12.8403C14.096 13.8097 13.5681 14.3425 12.6019 14.3457C10.778 14.3514 8.95402 14.3522 7.13006 14.3457C6.16635 14.3425 5.64406 13.8048 5.64244 12.8338C5.64002 11.0196 5.64002 9.20533 5.64244 7.39027C5.64406 6.41927 6.16796 5.89214 7.13653 5.88729C8.05336 5.88324 8.97099 5.88648 9.88782 5.88648ZM11.2574 11.5111V8.73964H8.48994V11.5111H11.2574Z" fill="black"/>
<path d="M25.3649 10.1301C25.3649 11.0373 25.3673 11.9444 25.3649 12.8515C25.3609 13.8023 24.8361 14.3408 23.8886 14.3448C22.0541 14.3521 20.2205 14.3521 18.386 14.3448C17.4393 14.3408 16.9113 13.8031 16.9089 12.8515C16.9041 11.0268 16.9041 9.20281 16.9089 7.37805C16.9113 6.41271 17.4441 5.88881 18.4167 5.88719C20.231 5.88396 22.0444 5.88396 23.8587 5.88719C24.8434 5.88881 25.3625 6.41675 25.3649 7.40877C25.3673 8.31589 25.3649 9.22302 25.3649 10.1301ZM19.7435 11.5021H22.5239V8.73792H19.7435V11.5021Z" fill="black"/>
<path d="M9.85762 25.6151C8.961 25.6151 8.06358 25.6175 7.16697 25.6151C6.1604 25.6119 5.64296 25.0912 5.64216 24.0814C5.64054 22.2768 5.63973 20.4731 5.64216 18.6685C5.64377 17.683 6.16686 17.1583 7.15888 17.1559C8.96262 17.1518 10.7664 17.1518 12.5709 17.1559C13.5759 17.1575 14.0965 17.6814 14.0981 18.6904C14.1014 20.4844 14.1014 22.2785 14.0981 24.0733C14.0965 25.0977 13.5767 25.6127 12.5475 25.6151C11.6508 25.6175 10.7534 25.6151 9.85681 25.6151H9.85762ZM11.2515 22.7716V20.0001H8.48319V22.7716H11.2515Z" fill="black"/>
<path d="M6.94195 0.255189C7.90001 0.255189 8.85807 0.251955 9.81532 0.255998C10.8922 0.260849 11.522 1.11623 11.2043 2.14382C11.0467 2.65398 10.6909 2.9515 10.1678 3.03963C9.99966 3.06792 9.82664 3.07197 9.65605 3.07197C7.92184 3.07439 6.18763 3.06954 4.45342 3.07682C4.20441 3.07762 3.94408 3.09299 3.70881 3.16575C3.21078 3.31936 2.93427 3.68965 2.85504 4.20062C2.82917 4.36878 2.82998 4.54261 2.82998 4.7132C2.82836 6.47813 2.8324 8.24306 2.82755 10.008C2.82513 10.8351 2.4605 11.3331 1.76843 11.4891C0.801478 11.7066 0.015626 11.097 0.012392 10.1082C0.00592412 8.20183 -0.00135228 6.29622 0.014009 4.3898C0.0342212 2.07995 1.84362 0.282678 4.15913 0.257615C5.08647 0.247104 6.01462 0.255998 6.94195 0.255189Z" fill="black"/>
<path d="M21.8433 25.6148C21.148 25.6148 20.4519 25.6221 19.7566 25.6132C18.6781 25.5994 18.049 24.6899 18.4088 23.6704C18.5738 23.2023 18.9101 22.9249 19.3936 22.8336C19.5609 22.8021 19.7339 22.7907 19.9045 22.7907C21.1949 22.7875 22.4844 22.7851 23.7748 22.7924C23.9939 22.7932 24.2219 22.8118 24.4313 22.8708C25.0716 23.0527 25.4394 23.6712 25.3554 24.3835C25.2697 25.1143 24.7692 25.5905 24.0197 25.6091C23.2945 25.6277 22.5685 25.6132 21.8425 25.6132V25.6156L21.8433 25.6148Z" fill="black"/>
<path d="M19.7537 19.2771C19.7318 19.628 19.7415 19.9845 19.6809 20.329C19.5612 21.0065 19.0171 21.3962 18.2717 21.3824C17.5756 21.3703 17.0266 20.958 16.9579 20.2926C16.8932 19.6652 16.8859 19.0241 16.9312 18.3943C16.9878 17.6044 17.5837 17.1282 18.3687 17.1581C19.161 17.188 19.6825 17.6941 19.727 18.4905C19.7415 18.7516 19.7294 19.0144 19.7294 19.2763C19.7375 19.2763 19.7456 19.2771 19.7537 19.2779V19.2771Z" fill="black"/>
<path d="M23.25 20.0023C22.8894 19.9788 22.5223 19.9886 22.169 19.9247C21.5255 19.8074 21.1309 19.2593 21.1358 18.5551C21.1406 17.8549 21.5465 17.2817 22.1949 17.2122C22.8417 17.1435 23.5039 17.1338 24.1523 17.1839C24.9389 17.2453 25.3957 17.8428 25.3626 18.6408C25.331 19.4089 24.8176 19.9311 24.0375 19.9748C23.7763 19.9894 23.5136 19.9772 23.2524 19.9772L23.2508 20.0015L23.25 20.0023Z" fill="black"/>
</svg>
