<svg width="25" height="25" viewBox="0 0 25 25" fill="none" xmlns="http://www.w3.org/2000/svg">
<path d="M20.7453 6.64015L20.0537 6.93025H20.0537L20.7453 6.64015ZM20.1305 7.11335C20.2907 7.49532 20.7302 7.67508 21.1122 7.51486C21.4942 7.35464 21.6739 6.91511 21.5137 6.53314L20.1305 7.11335ZM17.552 2.62688C17.1674 2.47305 16.7309 2.66011 16.5771 3.0447C16.4232 3.42929 16.6103 3.86576 16.9949 4.0196L17.552 2.62688ZM17.4407 3.39013L17.1621 4.08649L17.4407 3.39013ZM4.85024 6.64015L5.54186 6.93025L4.85024 6.64015ZM4.08182 6.53314C3.9216 6.91511 4.10136 7.35464 4.48333 7.51486C4.8653 7.67508 5.30484 7.49532 5.46506 7.11335L4.08182 6.53314ZM8.60063 4.0196C8.98521 3.86576 9.17228 3.42929 9.01844 3.0447C8.8646 2.66011 8.42813 2.47305 8.04354 2.62688L8.60063 4.0196ZM8.15486 3.39013L7.87631 2.69377L7.87631 2.69377L8.15486 3.39013ZM19.013 9.79843L18.2678 9.88301L19.013 9.79843ZM19.4602 13.7385L20.2054 13.6539V13.6539L19.4602 13.7385ZM6.08671 13.7385L5.3415 13.6539L5.3415 13.6539L6.08671 13.7385ZM6.5339 9.79843L7.27912 9.88301L6.5339 9.79843ZM5.22122 15.6954L4.65012 15.2092H4.65012L5.22122 15.6954ZM20.3257 15.6954L19.7545 16.1815L20.3257 15.6954ZM15.0434 5.1969H14.2934C14.2934 5.51748 14.4971 5.80262 14.8004 5.90647L15.0434 5.1969ZM10.5035 5.1969L10.7464 5.90647C11.0497 5.80262 11.2535 5.51748 11.2535 5.1969H10.5035ZM16.4757 21.0864C16.6211 20.6986 16.4245 20.2663 16.0366 20.1209C15.6488 19.9756 15.2165 20.1722 15.0711 20.56L16.4757 21.0864ZM10.4757 20.56C10.3304 20.1722 9.8981 19.9756 9.51023 20.1209C9.12236 20.2663 8.92578 20.6986 9.07114 21.0864L10.4757 20.56ZM20.0537 6.93025L20.1305 7.11335L21.5137 6.53314L21.4369 6.35004L20.0537 6.93025ZM16.9949 4.0196L17.1621 4.08649L17.7192 2.69377L17.552 2.62688L16.9949 4.0196ZM21.4369 6.35004C20.7374 4.68251 19.3982 3.36536 17.7192 2.69377L17.1621 4.08649C18.468 4.60883 19.5096 5.63329 20.0537 6.93025L21.4369 6.35004ZM4.15862 6.35004L4.08182 6.53314L5.46506 7.11335L5.54186 6.93025L4.15862 6.35004ZM8.04354 2.62688L7.87631 2.69377L8.4334 4.08649L8.60063 4.0196L8.04354 2.62688ZM5.54186 6.93025C6.08588 5.63329 7.12755 4.60883 8.4334 4.08649L7.87631 2.69377C6.19736 3.36536 4.85808 4.68251 4.15862 6.35004L5.54186 6.93025ZM18.5506 18.0732H6.99625V19.5732H18.5506V18.0732ZM18.2678 9.88301L18.7149 13.8231L20.2054 13.6539L19.7582 9.71385L18.2678 9.88301ZM6.83193 13.8231L7.27912 9.88301L5.78869 9.71385L5.3415 13.6539L6.83193 13.8231ZM5.79233 16.1815C6.36964 15.5033 6.73372 14.6884 6.83193 13.8231L5.3415 13.6539C5.27863 14.2079 5.04411 14.7464 4.65012 15.2092L5.79233 16.1815ZM18.7149 13.8231C18.8132 14.6884 19.1772 15.5033 19.7545 16.1815L20.8968 15.2092C20.5028 14.7464 20.2682 14.2079 20.2054 13.6539L18.7149 13.8231ZM6.99625 18.0732C6.34121 18.0732 5.87786 17.7493 5.664 17.3724C5.45753 17.0086 5.46057 16.5712 5.79233 16.1815L4.65012 15.2092C3.88484 16.1082 3.86121 17.2348 4.35942 18.1128C4.85023 18.9776 5.82291 19.5732 6.99625 19.5732V18.0732ZM18.5506 19.5732C19.724 19.5732 20.6966 18.9776 21.1875 18.1128C21.6857 17.2348 21.662 16.1082 20.8968 15.2092L19.7545 16.1815C20.0863 16.5712 20.0893 17.0086 19.8829 17.3724C19.669 17.7493 19.2057 18.0732 18.5506 18.0732V19.5732ZM15.7934 5.1969V5.09319H14.2934V5.1969H15.7934ZM19.7582 9.71385C19.4789 7.2535 17.654 5.298 15.2863 4.48734L14.8004 5.90647C16.7176 6.56287 18.0647 8.09425 18.2678 9.88301L19.7582 9.71385ZM11.2535 5.1969V5.09319H9.75349V5.1969H11.2535ZM7.27912 9.88301C7.48214 8.09425 8.82931 6.56287 10.7464 5.90647L10.2605 4.48734C7.89288 5.298 6.06793 7.2535 5.78869 9.71385L7.27912 9.88301ZM12.7734 3.57324C13.6129 3.57324 14.2934 4.25375 14.2934 5.09319H15.7934C15.7934 3.42532 14.4413 2.07324 12.7734 2.07324V3.57324ZM12.7734 2.07324C11.1056 2.07324 9.75349 3.42532 9.75349 5.09319H11.2535C11.2535 4.25375 11.934 3.57324 12.7734 3.57324V2.07324ZM15.0711 20.56C14.7484 21.4211 13.858 22.0732 12.7734 22.0732V23.5732C14.4589 23.5732 15.9251 22.5557 16.4757 21.0864L15.0711 20.56ZM12.7734 22.0732C11.6889 22.0732 10.7985 21.4211 10.4757 20.56L9.07114 21.0864C9.62179 22.5557 11.088 23.5732 12.7734 23.5732V22.0732Z" fill="#484848"/>
</svg>
